<?xml version="1.0" encoding="utf-8"?>
<svg version="1.1" id="Layer_1" xmlns="http://www.w3.org/2000/svg" xmlns:xlink="http://www.w3.org/1999/xlink" x="0px" y="0px" viewBox="0 0 720 943.4" style="enable-background:new 0 0 720 943.4;" xml:space="preserve">
	<style type="text/css">
		.st0 {fill: #77C4A3;}
		.st1 {fill: #8FC31F;}
		.st2 {fill: #77C4A3; fill-opacity: 0.9922;}
		.st3 {fill: #D4003C;}
		.st4 {fill: #996CAC; fill-opacity: 0.9961;}
		.st5 {fill: #E6186C; fill-opacity: 0.9961;}
		.st6 {fill: #FABE00; fill-opacity: 0.9961;}
		.st7 {fill: #D4003B; fill-opacity: 0.9961;}
		.st8 {fill: #00A84D;}
		.st9 {fill: #CD7C2F;}
		.st10 {fill: #00A4E3; fill-opacity: 0.9961;}
		.st11 {fill: #EF7C1C; fill-opacity: 0.9922;}
		.st12 {opacity: 0.99; fill: #EF7C1C; fill-opacity: 0.9922; enable-background: new;}
		.st13 {fill: #FFFFFF;}
		.st14 {fill: none; stroke: #EF7C1C; stroke-width: 3; stroke-linecap: round; stroke-linejoin: round; stroke-miterlimit: 15.1181; stroke-opacity: 0.9922;}
		.st15 {fill: #FFFFFF; stroke: #000000; stroke-width: 3.9701; stroke-linecap: round; stroke-linejoin: round; stroke-miterlimit: 15.1181; stroke-opacity: 0.9922;}
		.st16 {fill: #0052A4; fill-opacity: 0.9961;}
		.st17 {fill: #996CAC;}
		.st18 {fill: #747F00; fill-opacity: 0.9961;}
		.st19 {fill: #BDB092; fill-opacity: 0.9961;}
		.st20 {font-family: 'Pretendard-Regular', &quot;Apple SD Gothic Neo&quot;, &quot;Malgun Gothic&quot;, sans-serif; font-size: 24px; font-size: 24px;}
	</style>
	<path class="st0" d="M103.3,408.7l47.4-47.4c1.4-1.4,3.7-1.4,5.1,0l0,0c1.4,1.4,1.4,3.7,0,5.1l-47.4,47.4c-1.4,1.4-3.7,1.4-5.1,0l0,0C101.9,412.4,101.9,410.1,103.3,408.7z" />
	<path class="st1" d="M103.3,418.9l47.4-47.4c1.4-1.4,3.7-1.4,5.1,0l0,0c1.4,1.4,1.4,3.7,0,5.1L108.4,424c-1.4,1.4-3.7,1.4-5.1,0l0,0C101.9,422.6,101.9,420.3,103.3,418.9z" />
	<path class="st2" d="M37.2,415.4c0.8,0,1.6,0.1,2.4,0.2c0.7,0.2,1.4,0.4,1.9,0.7c0.5,0.3,0.9,0.7,1.2,1.1c0.3,0.4,0.5,0.9,0.5,1.5c0,0.6-0.2,1.1-0.5,1.5c-0.3,0.4-0.7,0.8-1.2,1.1c-0.5,0.3-1.2,0.5-1.9,0.7c-0.7,0.2-1.5,0.2-2.4,0.2c-0.9,0-1.6-0.1-2.4-0.2c-0.7-0.2-1.3-0.4-1.9-0.7c-0.5-0.3-0.9-0.7-1.2-1.1c-0.3-0.4-0.4-0.9-0.4-1.5c0-0.5,0.1-1,0.4-1.5c0.3-0.4,0.7-0.8,1.3-1.1c0.5-0.3,1.2-0.5,1.9-0.7C35.6,415.4,36.4,415.3,37.2,415.4L37.2,415.4z M37.2,417c-1.1,0-2,0.2-2.6,0.5c-0.7,0.3-1,0.8-1,1.3c0,0.6,0.3,1,1,1.4c0.7,0.4,1.6,0.5,2.6,0.5c1.1,0,2-0.2,2.7-0.5c0.7-0.3,1-0.8,1-1.4c0-0.6-0.3-1-1-1.3C39.2,417.2,38.3,417,37.2,417z M37.3,406c0.2,0,0.3,0,0.4,0.1c0.1,0.1,0.1,0.2,0.1,0.4c-0.2,1.9-0.9,3.7-2.1,5.2c-1.2,1.5-3,2.6-5.4,3.4l-1.3-1.5c1.8-0.5,3.3-1.3,4.3-2.2c1.1-1,1.8-2.2,2.1-3.5H30v-1.8L37.3,406z M40.8,415.3V413h-3.2v-1.7h3.2v-2H38v-1.7h2.8v-2.2H43v10L40.8,415.3z M50.8,414.4c-0.7,0-1.3-0.1-1.8-0.3c-0.5-0.2-1-0.5-1.4-0.9c-0.4-0.4-0.7-0.8-0.9-1.4c-0.2-0.5-0.3-1.1-0.3-1.7c0-0.6,0.1-1.2,0.3-1.7c0.2-0.5,0.5-1,0.9-1.4c0.4-0.4,0.9-0.7,1.4-0.9c0.5-0.2,1.2-0.3,1.8-0.3c0.7,0,1.3,0.1,1.8,0.3c0.5,0.2,1,0.5,1.4,0.9c0.4,0.4,0.7,0.8,0.9,1.4c0.2,0.5,0.3,1.1,0.3,1.7c0,0.6-0.1,1.2-0.3,1.7c-0.2,0.5-0.5,1-0.9,1.4c-0.4,0.4-0.9,0.7-1.4,0.9C52,414.3,51.4,414.4,50.8,414.4z M50.8,407.6c-0.7,0-1.3,0.2-1.7,0.7c-0.4,0.5-0.6,1.1-0.6,1.8c0,0.7,0.2,1.3,0.6,1.8c0.4,0.5,1,0.7,1.7,0.7s1.3-0.2,1.7-0.7c0.4-0.5,0.6-1.1,0.6-1.8c0-0.7-0.2-1.3-0.6-1.8C52.1,407.9,51.5,407.6,50.8,407.6L50.8,407.6z M45.5,416.9l5.1-0.1c0.3,0,0.7,0,1.2,0c0.5,0,1.1-0.1,1.6-0.1s1.2-0.1,1.8-0.2c0.6-0.1,1.1-0.2,1.6-0.2v1.7c-1.2,0.3-2.5,0.5-4.2,0.6c-1.6,0.1-3.3,0.2-5.2,0.2h-1.9L45.5,416.9z M59.3,405.4v16.7h-2.1v-16.7H59.3z M70,416c1.7,0.1,2.9,0.5,3.8,1c0.9,0.6,1.3,1.3,1.3,2.2c0,1-0.5,1.8-1.6,2.4c-1.1,0.6-2.6,0.9-4.6,0.9c-2,0-3.6-0.3-4.6-0.9c-1-0.6-1.6-1.4-1.6-2.4c0-0.9,0.4-1.6,1.3-2.2c0.9-0.6,2.1-0.9,3.8-1v-1.6h-6.5v-1.8h15.4v1.8H70V416z M68.9,417.6c-1.2,0-2.1,0.1-2.8,0.4c-0.7,0.3-1,0.7-1,1.2c0,0.6,0.3,1,1,1.2c0.7,0.3,1.6,0.4,2.8,0.4c1.2,0,2.1-0.1,2.8-0.4c0.7-0.2,1-0.7,1-1.2c0-0.5-0.3-0.9-1-1.2C71,417.7,70.1,417.6,68.9,417.6z M63,405.8h11.8v1.8h-4.7c0.1,0.4,0.4,0.8,0.7,1.1c0.4,0.3,0.8,0.5,1.4,0.7c0.5,0.2,1.1,0.4,1.7,0.5c0.6,0.1,1.3,0.2,1.9,0.3l-1.3,1.5c-0.5-0.1-1.1-0.2-1.7-0.3c-0.6-0.1-1.1-0.3-1.6-0.5c-0.5-0.2-1-0.4-1.4-0.7c-0.4-0.3-0.8-0.6-1-1c-0.3,0.4-0.7,0.7-1.1,0.9c-0.4,0.3-0.9,0.5-1.4,0.7c-0.5,0.2-1,0.4-1.6,0.5c-0.5,0.1-1.1,0.2-1.6,0.3l-1.3-1.5c0.7-0.1,1.4-0.3,2.1-0.4c0.7-0.1,1.2-0.3,1.8-0.5c0.5-0.2,0.9-0.5,1.2-0.7c0.3-0.3,0.6-0.6,0.7-1H63L63,405.8z M82.3,414c-0.7,0-1.3-0.1-1.8-0.3c-0.5-0.2-1-0.5-1.4-0.9c-0.4-0.4-0.7-0.8-0.9-1.3c-0.2-0.5-0.3-1.1-0.3-1.7c0-0.6,0.1-1.2,0.3-1.7c0.2-0.5,0.5-0.9,0.9-1.3c0.4-0.4,0.9-0.7,1.4-0.9c0.5-0.2,1.2-0.3,1.8-0.3c0.7,0,1.3,0.1,1.8,0.3c0.5,0.2,1,0.5,1.4,0.9c0.4,0.4,0.7,0.8,0.9,1.3c0.2,0.5,0.3,1.1,0.3,1.7c0,0.6-0.1,1.2-0.3,1.7c-0.2,0.5-0.5,0.9-0.9,1.3c-0.4,0.4-0.9,0.7-1.4,0.9C83.6,413.9,83,414,82.3,414L82.3,414z M82.3,407.4c-0.7,0-1.3,0.2-1.7,0.7c-0.4,0.5-0.6,1-0.6,1.7c0,0.7,0.2,1.3,0.6,1.7c0.4,0.5,1,0.7,1.7,0.7c0.7,0,1.3-0.2,1.7-0.7c0.4-0.5,0.6-1.1,0.6-1.7c0-0.7-0.2-1.3-0.6-1.7C83.6,407.6,83.1,407.4,82.3,407.4z M85.7,415.3c0.8,0,1.6,0.1,2.4,0.2c0.7,0.2,1.3,0.4,1.9,0.7c0.5,0.3,0.9,0.7,1.2,1.1c0.3,0.4,0.4,0.9,0.4,1.5c0,0.6-0.1,1.1-0.4,1.5c-0.3,0.4-0.7,0.8-1.2,1.1c-0.5,0.3-1.2,0.5-1.9,0.7c-0.7,0.2-1.5,0.2-2.4,0.2c-0.9,0-1.7-0.1-2.4-0.2c-0.7-0.2-1.3-0.4-1.8-0.7c-0.5-0.3-0.9-0.7-1.2-1.1c-0.3-0.4-0.4-0.9-0.4-1.5c0-0.5,0.1-1,0.4-1.5c0.3-0.4,0.7-0.8,1.3-1.1c0.5-0.3,1.2-0.5,1.9-0.7C84.1,415.4,84.8,415.3,85.7,415.3z M85.7,417c-1.1,0-2,0.2-2.6,0.5c-0.7,0.3-1,0.8-1,1.3c0,0.6,0.3,1,1,1.4c0.7,0.4,1.6,0.5,2.6,0.5c1.1,0,2-0.2,2.6-0.5c0.7-0.3,1-0.8,1-1.4c0-0.6-0.3-1-1-1.3C87.7,417.2,86.8,417,85.7,417z M91.1,405.4v3.6h2.1v1.8h-2.1v4.7H89v-10.1H91.1z" />
	<path class="st1" d="M69.2,439.3c-0.8-0.5-1.5-1.2-2.2-1.9c-0.7-0.8-1.2-1.6-1.6-2.4c-0.1,0.3-0.3,0.7-0.5,1.1c-0.2,0.4-0.6,0.8-0.9,1.3c-0.3,0.4-0.7,0.9-1.2,1.3c-0.4,0.4-0.8,0.8-1.3,1.1l-1.8-1.4c1.6-1,2.7-2.1,3.4-3.5c0.7-1.4,1.1-2.9,1.1-4.5v-3.6h2.2v3.7c0,1.5,0.3,3,1,4.3c0.7,1.3,1.8,2.4,3.3,3.2L69.2,439.3z M74.3,426.1v16.7h-2.1v-9.9h-3.3V431h3.3v-4.9L74.3,426.1z M76.8,429.2h8.1v1.8h-8.1V429.2z M78.5,426.5h4.7v1.7h-4.7V426.5z M80.9,439.5c-1.1,0-2-0.3-2.7-1c-0.7-0.7-1-1.6-1-2.8c0-1.2,0.3-2.1,1-2.8c0.7-0.7,1.6-1,2.7-1c1.1,0,2,0.3,2.7,1c0.7,0.7,1.1,1.6,1.1,2.8c0,1.1-0.3,2.1-1,2.8C82.9,439.2,82,439.5,80.9,439.5L80.9,439.5z M80.9,433.6c-0.5,0-0.9,0.2-1.2,0.6c-0.3,0.4-0.5,0.9-0.5,1.5c0,0.6,0.2,1.1,0.5,1.5c0.3,0.4,0.7,0.6,1.2,0.6c0.5,0,0.9-0.2,1.2-0.6c0.3-0.4,0.5-0.9,0.5-1.5c0-0.6-0.2-1.1-0.5-1.5C81.8,433.8,81.4,433.6,80.9,433.6L80.9,433.6z M85.7,442v-15.6h2v6.1h1.5v-6.4h2v16.7h-2v-8.3h-1.5v7.5H85.7z" />
	<path class="st3" d="M330.4,174l21.1-21.1c1.4-1.4,3.7-1.4,5.1,0c0,0,0,0,0,0c1.4,1.4,1.4,3.7,0,5.1c0,0,0,0,0,0l-21.1,21.1c-1.4,1.4-3.7,1.4-5.1,0c0,0,0,0,0,0C329,177.7,329,175.4,330.4,174C330.4,174,330.4,174,330.4,174z" />
	<path class="st4" d="M537.8,836.9l47.4-47.4c1.4-1.4,3.7-1.4,5.1,0c1.4,1.4,1.4,3.7,0,5.1L542.9,842c-1.4,1.4-3.7,1.4-5.1,0c0,0,0,0,0,0C536.4,840.6,536.4,838.3,537.8,836.9L537.8,836.9z" />
	<path class="st4" d="M523.1,843.7h-9.9l-1.2,9.6c0.7-0.1,1.5-0.2,2.6-0.2c3.8,0,5.4,1.4,5.4,3.6c0,2.3-2,3.5-4.1,3.5c-1.7,0-3.4-0.6-4.2-1l-0.7,2.7c1,0.6,2.8,1.1,5.1,1.1c4.7,0,7.7-3,7.7-6.6c0-2.3-1.1-3.9-2.5-4.8c-1.3-0.8-3-1.2-4.6-1.2c-0.6,0-0.9,0-1.3,0.1l0.6-3.8h7.3V843.7z" />
	<path class="st5" d="M537.8,724.6l47.4-47.4c1.4-1.4,3.7-1.4,5.1,0s1.4,3.7,0,5.1l-47.4,47.4c-1.4,1.4-3.7,1.4-5.1,0c0,0,0,0,0,0C536.4,728.3,536.4,726,537.8,724.6z" />
	<path class="st5" d="M513.7,746.2c-2.2,1-3.6,2.6-3.6,4.9c0,2.7,2.3,5.2,6.8,5.2c4.1,0,6.9-2.3,6.9-5.7c0-2.4-1.5-4-3.6-4.8v-0.1c2.1-1,2.9-2.7,2.9-4.3c0-2.3-1.8-4.8-6-4.8c-3.6,0-6.4,2.1-6.4,5.2C510.8,743.6,511.7,745.2,513.7,746.2L513.7,746.2z M517,753.8c-2,0-3.3-1.5-3.2-3.1c0-1.5,1-2.8,2.8-3.3c2.1,0.6,3.5,1.6,3.5,3.6C520.1,752.7,518.9,753.8,517,753.8L517,753.8z M516.9,739.2c1.9,0,2.7,1.4,2.7,2.7c0,1.4-1.1,2.5-2.4,2.9c-1.8-0.5-3.1-1.4-3.1-3C514.2,740.4,515.1,739.2,516.9,739.2z" />
	<path class="st6" d="M537.8,665.4l47.4-47.4c1.4-1.4,3.7-1.4,5.1,0s1.4,3.7,0,5.1l-47.4,47.4c-1.4,1.4-3.7,1.4-5.1,0c0,0,0,0,0,0C536.4,669.1,536.4,666.9,537.8,665.4z" />
	<path class="st6" d="M473.3,674.2c-1.5-0.4-2.7-0.9-3.7-1.5c-0.9-0.5-1.6-1.2-2.1-2c-0.5,0.8-1.2,1.5-2.2,2.1c-0.9,0.6-2.1,1.1-3.5,1.4l-1.4-1.5c0.9-0.2,1.7-0.5,2.4-0.7c0.7-0.3,1.4-0.6,1.9-1c0.5-0.4,0.9-0.8,1.2-1.3c0.3-0.5,0.5-1,0.5-1.7v-0.9h2.3v0.8c0,1.2,0.5,2.1,1.6,2.9c1.1,0.8,2.5,1.4,4.3,1.8L473.3,674.2z M475.2,677.7h-6.6v5.9h-2.1v-5.9h-6.7v-1.8h15.4L475.2,677.7z M481.1,676c-0.7,0-1.3-0.1-1.9-0.4c-0.5-0.2-1-0.6-1.4-1c-0.4-0.4-0.7-0.9-0.9-1.4c-0.2-0.5-0.3-1.1-0.3-1.7c0-0.6,0.1-1.2,0.3-1.7c0.2-0.5,0.5-1,0.9-1.4c0.4-0.4,0.9-0.7,1.4-1c0.5-0.2,1.2-0.4,1.9-0.4c0.7,0,1.3,0.1,1.9,0.4c0.6,0.2,1,0.6,1.4,1c0.4,0.4,0.7,0.9,0.9,1.4c0.2,0.5,0.3,1.1,0.3,1.7c0,0.6-0.1,1.2-0.3,1.7c-0.2,0.5-0.5,1-0.9,1.4c-0.4,0.4-0.9,0.7-1.4,1C482.4,675.8,481.8,676,481.1,676L481.1,676z M481.1,668.9c-0.8,0-1.3,0.3-1.8,0.8c-0.4,0.5-0.6,1.1-0.6,1.9c0,0.7,0.2,1.4,0.6,1.9c0.4,0.5,1,0.8,1.7,0.8c0.7,0,1.3-0.3,1.7-0.8c0.4-0.5,0.6-1.2,0.6-1.9c0-0.7-0.2-1.4-0.6-1.9C482.4,669.1,481.8,668.9,481.1,668.9L481.1,668.9z M490.3,666.8v12.3h-2.1v-12.3H490.3z M479.5,683.2c-0.2,0-0.3,0-0.4-0.1c-0.1-0.1-0.1-0.2-0.1-0.4v-5.1h2.1v3.8h9.5v1.8L479.5,683.2z M503.8,672.1v-1.7h-7.5v1.7H503.8z M494.2,673.3V667h2.1v1.8h7.5V667h2.1v6.4c0,0.2,0,0.3-0.1,0.4c-0.1,0.1-0.2,0.1-0.4,0.1h-10.7c-0.2,0-0.3,0-0.4-0.1C494.3,673.7,494.2,673.5,494.2,673.3L494.2,673.3z M507.8,677h-6.4v3.2h-2.2V677h-6.9v-1.8h15.4V677z M494.8,683.2c-0.2,0-0.3,0-0.4-0.1c-0.1-0.1-0.1-0.2-0.1-0.4v-4.5h2.1v3.3h10v1.8L494.8,683.2z M516.7,676.8c0.8,0,1.6,0.1,2.4,0.2c0.7,0.2,1.3,0.4,1.9,0.7c0.5,0.3,0.9,0.7,1.2,1.1c0.3,0.4,0.4,0.9,0.4,1.5c0,0.6-0.1,1.1-0.4,1.5c-0.3,0.4-0.7,0.8-1.2,1.1c-0.5,0.3-1.2,0.5-1.9,0.7c-0.7,0.2-1.5,0.2-2.4,0.2c-0.9,0-1.6-0.1-2.4-0.2c-0.7-0.1-1.3-0.4-1.8-0.7c-0.5-0.3-0.9-0.7-1.2-1.1c-0.3-0.4-0.4-0.9-0.4-1.5c0-0.5,0.1-1,0.4-1.5c0.3-0.4,0.7-0.8,1.3-1.1c0.5-0.3,1.2-0.5,1.9-0.7C515,676.9,515.8,676.8,516.7,676.8L516.7,676.8z M516.7,678.5c-1.1,0-2,0.2-2.6,0.5c-0.7,0.3-1,0.8-1,1.3c0,0.6,0.3,1,1,1.4c0.7,0.3,1.6,0.5,2.6,0.5c1.1,0,2-0.2,2.6-0.5c0.7-0.4,1-0.8,1-1.4c0-0.6-0.3-1-1-1.3C518.7,678.6,517.8,678.5,516.7,678.5L516.7,678.5z M510.2,675c-0.2,0-0.3,0-0.4-0.1c-0.1-0.1-0.1-0.2-0.1-0.4V668c0-0.2,0-0.3,0.1-0.4c0.1-0.1,0.2-0.1,0.4-0.1h7.4v1.8h-5.9v4l2.3,0c0.3,0,0.8,0,1.2,0c0.5,0,1-0.1,1.5-0.1c0.5-0.1,1-0.1,1.5-0.2c0.5-0.1,0.9-0.2,1.2-0.2v1.7c-0.3,0.1-0.6,0.1-1.1,0.2c-0.5,0.1-1,0.1-1.5,0.2c-0.6,0.1-1.1,0.1-1.8,0.2c-0.6,0-1.2,0.1-1.8,0.1c-0.1,0-0.4,0-0.7,0L510.2,675L510.2,675z M520.1,676.7v-9.8h2.1v3.2h2.2v1.8h-2.2v4.9H520.1z" />
	<path class="st6" d="M537.8,392.7l47.4-47.4c1.4-1.4,3.7-1.4,5.1,0s1.4,3.7,0,5.1L543,397.8c-1.4,1.4-3.7,1.4-5.1,0c0,0,0,0,0,0C536.4,396.4,536.4,394.1,537.8,392.7z" />
	<path class="st6" d="M473.3,401.5c-1.5-0.4-2.7-0.9-3.7-1.5c-0.9-0.5-1.6-1.2-2.1-2c-0.5,0.8-1.2,1.5-2.2,2.1c-0.9,0.6-2.1,1.1-3.5,1.4l-1.4-1.5c0.9-0.2,1.7-0.5,2.4-0.7c0.7-0.3,1.4-0.6,1.9-1c0.5-0.4,0.9-0.8,1.2-1.3c0.3-0.5,0.5-1,0.5-1.7v-0.9h2.3v0.8c0,1.2,0.5,2.1,1.6,2.9c1.1,0.8,2.5,1.4,4.3,1.8L473.3,401.5z M475.2,404.9h-6.6v5.9h-2.1v-5.9h-6.7v-1.8h15.4L475.2,404.9z M481.1,403.2c-0.7,0-1.3-0.1-1.9-0.4c-0.5-0.2-1-0.6-1.4-1c-0.4-0.4-0.7-0.9-0.9-1.4c-0.2-0.5-0.3-1.1-0.3-1.7c0-0.6,0.1-1.2,0.3-1.7c0.2-0.5,0.5-1,0.9-1.4c0.4-0.4,0.9-0.7,1.4-0.9c0.5-0.2,1.2-0.4,1.9-0.4c0.7,0,1.3,0.1,1.9,0.4c0.6,0.2,1,0.6,1.4,0.9c0.4,0.4,0.7,0.9,0.9,1.4c0.2,0.5,0.3,1.1,0.3,1.7c0,0.6-0.1,1.2-0.3,1.7c-0.2,0.5-0.5,1-0.9,1.4c-0.4,0.4-0.9,0.7-1.4,1C482.4,403.1,481.8,403.2,481.1,403.2L481.1,403.2z M481.1,396.1c-0.8,0-1.3,0.3-1.8,0.8c-0.4,0.5-0.6,1.1-0.6,1.9c0,0.7,0.2,1.4,0.6,1.9c0.4,0.5,1,0.8,1.7,0.8c0.7,0,1.3-0.3,1.7-0.8c0.4-0.5,0.6-1.2,0.6-1.9c0-0.7-0.2-1.4-0.6-1.9C482.4,396.4,481.8,396.1,481.1,396.1L481.1,396.1z M490.3,394.1v12.3h-2.1v-12.3H490.3z M479.5,410.5c-0.2,0-0.3,0-0.4-0.1c-0.1-0.1-0.1-0.2-0.1-0.4v-5.1h2.1v3.8h9.5v1.8L479.5,410.5z M503.8,399.4v-1.7h-7.5v1.7H503.8z M494.2,400.6v-6.4h2.1v1.8h7.5v-1.8h2.1v6.4c0,0.2,0,0.3-0.1,0.4c-0.1,0.1-0.2,0.1-0.4,0.1h-10.7c-0.2,0-0.3,0-0.4-0.1C494.3,400.9,494.2,400.8,494.2,400.6L494.2,400.6z M507.8,404.2h-6.4v3.2h-2.2v-3.2h-6.9v-1.8h15.4V404.2z M494.8,410.5c-0.2,0-0.3,0-0.4-0.1c-0.1-0.1-0.1-0.2-0.1-0.4v-4.5h2.1v3.3h10v1.8L494.8,410.5z M516.7,404.1c0.8,0,1.6,0.1,2.4,0.2c0.7,0.2,1.3,0.4,1.9,0.7c0.5,0.3,0.9,0.7,1.2,1.1c0.3,0.4,0.4,0.9,0.4,1.5c0,0.6-0.1,1.1-0.4,1.5c-0.3,0.4-0.7,0.8-1.2,1.1c-0.5,0.3-1.2,0.5-1.9,0.7c-0.7,0.2-1.5,0.2-2.4,0.2c-0.9,0-1.6-0.1-2.4-0.2c-0.7-0.1-1.3-0.4-1.8-0.7c-0.5-0.3-0.9-0.7-1.2-1.1c-0.3-0.4-0.4-0.9-0.4-1.5c0-0.5,0.1-1,0.4-1.5c0.3-0.4,0.7-0.8,1.3-1.1c0.5-0.3,1.2-0.5,1.9-0.7C515,404.1,515.8,404.1,516.7,404.1L516.7,404.1z M516.7,405.7c-1.1,0-2,0.2-2.6,0.5c-0.7,0.3-1,0.8-1,1.3c0,0.6,0.3,1,1,1.4c0.7,0.3,1.6,0.5,2.6,0.5c1.1,0,2-0.2,2.6-0.5c0.7-0.3,1-0.8,1-1.4c0-0.6-0.3-1-1-1.3C518.7,405.9,517.8,405.7,516.7,405.7L516.7,405.7z M510.2,402.3c-0.2,0-0.3,0-0.4-0.1c-0.1-0.1-0.1-0.2-0.1-0.4v-6.5c0-0.2,0-0.3,0.1-0.4c0.1-0.1,0.2-0.1,0.4-0.1h7.4v1.8h-5.9v4l2.3,0c0.3,0,0.8,0,1.2,0c0.5,0,1-0.1,1.5-0.1c0.5-0.1,1-0.1,1.5-0.2c0.5-0.1,0.9-0.1,1.2-0.2v1.7c-0.3,0.1-0.6,0.1-1.1,0.2c-0.5,0.1-1,0.1-1.5,0.2c-0.6,0.1-1.1,0.1-1.8,0.2c-0.6,0-1.2,0.1-1.8,0.1c-0.1,0-0.4,0-0.7,0L510.2,402.3L510.2,402.3z M520.1,403.9v-9.8h2.1v3.2h2.2v1.8h-2.2v4.8L520.1,403.9z" />
	<path class="st7" d="M537.8,280.3l47.4-47.4c1.4-1.4,3.7-1.4,5.1,0s1.4,3.7,0,5.1L543,285.4c-1.4,1.4-3.7,1.4-5.1,0c0,0,0,0,0,0C536.4,283.9,536.4,281.7,537.8,280.3z" />
	<path class="st7" d="M482.4,285.6v2.3c0,0.6,0.1,1.1,0.3,1.6c0.2,0.5,0.5,1,0.9,1.5c0.4,0.5,0.8,0.9,1.3,1.2c0.5,0.4,1,0.6,1.6,0.8l-1.3,1.6c-0.8-0.4-1.6-0.9-2.3-1.5c-0.7-0.6-1.2-1.2-1.6-1.8c-0.1,0.3-0.3,0.7-0.5,1c-0.2,0.3-0.5,0.7-0.9,1c-0.3,0.3-0.7,0.6-1.1,1c-0.4,0.3-0.8,0.6-1.2,0.8l-1.7-1.4c1.4-0.7,2.4-1.5,3.2-2.5c0.8-1,1.1-2.1,1.2-3.3v-2.3L482.4,285.6z M490.3,285.2v12.3h-2.1v-12.3H490.3z M479.6,301.6c-0.2,0-0.3,0-0.4-0.1c-0.1-0.1-0.1-0.2-0.1-0.4v-4.9h2.1v3.6h9.4v1.8H479.6z M503.8,290.5v-1.7h-7.5v1.7H503.8z M494.2,291.7v-6.4h2.1v1.8h7.5v-1.8h2.1v6.4c0,0.2,0,0.3-0.1,0.4c-0.1,0.1-0.2,0.1-0.4,0.1h-10.7c-0.2,0-0.3,0-0.4-0.1C494.3,292.1,494.2,291.9,494.2,291.7L494.2,291.7z M507.8,295.4h-6.4v3.2h-2.2v-3.2h-6.9v-1.8h15.4V295.4z M494.8,301.6c-0.2,0-0.3,0-0.4-0.1c-0.1-0.1-0.1-0.2-0.1-0.4v-4.5h2.1v3.3h10v1.8H494.8z M516.7,295.2c0.8,0,1.6,0.1,2.4,0.2c0.7,0.2,1.3,0.4,1.9,0.7c0.5,0.3,0.9,0.7,1.2,1.1c0.3,0.4,0.4,0.9,0.4,1.5c0,0.6-0.1,1.1-0.4,1.5c-0.3,0.4-0.7,0.8-1.2,1.1c-0.5,0.3-1.2,0.5-1.9,0.7c-0.7,0.2-1.5,0.2-2.4,0.2c-0.9,0-1.6-0.1-2.4-0.2c-0.7-0.1-1.3-0.4-1.8-0.7c-0.5-0.3-0.9-0.7-1.2-1.1c-0.3-0.4-0.4-0.9-0.4-1.5c0-0.5,0.1-1,0.4-1.5c0.3-0.4,0.7-0.8,1.3-1.1c0.5-0.3,1.2-0.5,1.9-0.7C515,295.3,515.8,295.2,516.7,295.2L516.7,295.2z M516.7,296.9c-1.1,0-2,0.2-2.6,0.5c-0.7,0.3-1,0.8-1,1.3c0,0.6,0.3,1,1,1.4c0.7,0.3,1.6,0.5,2.6,0.5c1.1,0,2-0.2,2.6-0.5c0.7-0.4,1-0.8,1-1.4c0-0.6-0.3-1-1-1.3C518.7,297,517.8,296.9,516.7,296.9L516.7,296.9z M510.2,293.4c-0.2,0-0.3,0-0.4-0.1c-0.1-0.1-0.1-0.2-0.1-0.4v-6.5c0-0.2,0-0.3,0.1-0.4c0.1-0.1,0.2-0.1,0.4-0.1h7.4v1.8h-5.9v4l2.3,0c0.3,0,0.8,0,1.2,0c0.5,0,1-0.1,1.5-0.1c0.5-0.1,1-0.1,1.5-0.2c0.5-0.1,0.9-0.1,1.2-0.2v1.7c-0.3,0.1-0.6,0.1-1.1,0.2c-0.5,0.1-1,0.1-1.5,0.2c-0.6,0.1-1.1,0.1-1.8,0.2c-0.6,0-1.2,0.1-1.8,0.1c-0.1,0-0.4,0-0.7,0L510.2,293.4L510.2,293.4z M520.1,295.1v-9.8h2.1v3.2h2.2v1.8h-2.2v4.9H520.1z" />
	<path class="st8" d="M537.8,167.8l47.4-47.4c1.4-1.4,3.7-1.4,5.1,0s1.4,3.7,0,5.1l-47.4,47.4c-1.4,1.4-3.7,1.4-5.1,0c0,0,0,0,0,0C536.4,171.5,536.4,169.2,537.8,167.8z" />
	<path class="st8" d="M523.8,193.5v-3H516v-0.1l1.6-1.4c3.3-3.1,5.7-5.8,5.7-9.1c0-3.1-2.1-5.8-6.3-5.8c-2.4,0-4.5,0.9-5.9,2l1.1,2.5c1-0.7,2.4-1.6,4.1-1.6c2.5,0,3.4,1.5,3.4,3.2c0,2.5-2.1,4.8-6.6,9l-2.3,2.1v2.2H523.8z" />
	<path class="st2" d="M330.4,284.3l47.4-47.4c1.4-1.4,3.7-1.4,5.1,0c1.4,1.4,1.4,3.7,0,5.1l-47.4,47.4c-1.4,1.4-3.7,1.4-5.1,0c0,0,0,0,0,0C329,288,329,285.7,330.4,284.3z" />
	<path class="st2" d="M262.5,299.9c0.8,0,1.6,0.1,2.4,0.2c0.7,0.2,1.4,0.4,1.9,0.7c0.5,0.3,0.9,0.7,1.2,1.1c0.3,0.4,0.5,0.9,0.5,1.5c0,0.6-0.2,1.1-0.5,1.5c-0.3,0.4-0.7,0.8-1.2,1.1c-0.5,0.3-1.2,0.5-1.9,0.7c-0.7,0.2-1.5,0.2-2.4,0.2c-0.9,0-1.6-0.1-2.4-0.2c-0.7-0.2-1.3-0.4-1.9-0.7c-0.5-0.3-0.9-0.7-1.2-1.1c-0.3-0.4-0.4-0.9-0.4-1.5c0-0.5,0.1-1,0.4-1.5c0.3-0.4,0.7-0.8,1.3-1.1c0.5-0.3,1.2-0.5,1.9-0.7C260.9,300,261.7,299.9,262.5,299.9L262.5,299.9z M262.5,301.6c-1.1,0-2,0.2-2.6,0.5c-0.7,0.3-1,0.8-1,1.3c0,0.6,0.3,1,1,1.4c0.7,0.3,1.6,0.5,2.6,0.5c1.1,0,2-0.2,2.7-0.5c0.7-0.4,1-0.8,1-1.4c0-0.6-0.3-1-1-1.3C264.5,301.7,263.6,301.6,262.5,301.6L262.5,301.6z M262.6,290.6c0.2,0,0.3,0,0.4,0.1c0.1,0.1,0.1,0.2,0.1,0.4c-0.2,1.9-0.9,3.7-2.1,5.2c-1.2,1.5-3,2.6-5.4,3.4l-1.3-1.5c1.8-0.5,3.3-1.3,4.3-2.2c1.1-1,1.8-2.2,2.1-3.5h-5.4v-1.8L262.6,290.6z M266.2,299.9v-2.3H263v-1.7h3.2v-2h-2.8v-1.7h2.8v-2.2h2.1v10L266.2,299.9z M276.1,299c-0.7,0-1.3-0.1-1.8-0.3c-0.5-0.2-1-0.5-1.4-0.9c-0.4-0.4-0.7-0.8-0.9-1.4c-0.2-0.5-0.3-1.1-0.3-1.7c0-0.6,0.1-1.2,0.3-1.7c0.2-0.5,0.5-1,0.9-1.4c0.4-0.4,0.9-0.7,1.4-0.9c0.5-0.2,1.2-0.3,1.8-0.3c0.7,0,1.3,0.1,1.8,0.3c0.5,0.2,1,0.5,1.4,0.9c0.4,0.4,0.7,0.8,0.9,1.4c0.2,0.5,0.3,1.1,0.3,1.7c0,0.6-0.1,1.2-0.3,1.7c-0.2,0.5-0.5,1-0.9,1.4c-0.4,0.4-0.9,0.7-1.4,0.9C277.3,298.9,276.7,299,276.1,299L276.1,299z M276.1,292.2c-0.7,0-1.3,0.2-1.7,0.7c-0.4,0.5-0.6,1.1-0.6,1.8c0,0.7,0.2,1.3,0.6,1.8c0.4,0.5,1,0.7,1.7,0.7c0.7,0,1.3-0.2,1.7-0.7c0.4-0.5,0.6-1.1,0.6-1.8c0-0.7-0.2-1.3-0.6-1.8C277.4,292.4,276.8,292.2,276.1,292.2L276.1,292.2z M270.9,301.4l5.1-0.1c0.3,0,0.7,0,1.2,0c0.5,0,1.1-0.1,1.6-0.1c0.6-0.1,1.2-0.1,1.8-0.2c0.6-0.1,1.1-0.2,1.6-0.2v1.7c-1.2,0.3-2.5,0.5-4.2,0.6c-1.6,0.1-3.3,0.2-5.2,0.2h-1.9V301.4z M284.7,289.9v16.7h-2.1v-16.7H284.7z M295.3,300.5c1.7,0.1,2.9,0.5,3.8,1c0.9,0.6,1.3,1.3,1.3,2.2c0,1-0.5,1.8-1.6,2.4c-1.1,0.6-2.6,0.9-4.6,0.9c-2,0-3.6-0.3-4.6-0.9c-1-0.6-1.6-1.4-1.6-2.4c0-0.9,0.4-1.6,1.3-2.2c0.9-0.6,2.1-0.9,3.8-1v-1.6h-6.5v-1.8H302v1.8h-6.6L295.3,300.5z M294.2,302.1c-1.2,0-2.1,0.1-2.8,0.4c-0.7,0.3-1,0.7-1,1.2c0,0.6,0.3,1,1,1.2c0.7,0.3,1.6,0.4,2.8,0.4c1.2,0,2.1-0.1,2.8-0.4c0.7-0.2,1-0.7,1-1.2c0-0.5-0.3-0.9-1-1.2C296.3,302.2,295.4,302.1,294.2,302.1z M288.3,290.4h11.8v1.8h-4.7c0.1,0.4,0.4,0.8,0.7,1.1c0.4,0.3,0.8,0.5,1.4,0.7c0.5,0.2,1.1,0.4,1.7,0.5c0.6,0.1,1.3,0.2,1.9,0.3l-1.3,1.5c-0.5-0.1-1.1-0.2-1.7-0.3c-0.6-0.1-1.1-0.3-1.6-0.5c-0.5-0.2-1-0.4-1.4-0.7c-0.4-0.3-0.8-0.6-1-1c-0.3,0.4-0.7,0.7-1.1,0.9c-0.4,0.3-0.9,0.5-1.4,0.7c-0.5,0.2-1,0.4-1.6,0.5c-0.5,0.1-1.1,0.2-1.6,0.3l-1.3-1.5c0.7-0.1,1.4-0.3,2.1-0.4c0.7-0.1,1.2-0.3,1.8-0.5c0.5-0.2,0.9-0.5,1.2-0.7c0.3-0.3,0.6-0.6,0.7-1h-4.7V290.4z M307.6,298.5c-0.7,0-1.3-0.1-1.8-0.3c-0.5-0.2-1-0.5-1.4-0.9c-0.4-0.4-0.7-0.8-0.9-1.3c-0.2-0.5-0.3-1.1-0.3-1.7c0-0.6,0.1-1.2,0.3-1.7c0.2-0.5,0.5-0.9,0.9-1.3c0.4-0.4,0.9-0.7,1.4-0.9c0.5-0.2,1.2-0.3,1.8-0.3c0.7,0,1.3,0.1,1.8,0.3c0.5,0.2,1,0.5,1.4,0.9c0.4,0.4,0.7,0.8,0.9,1.3c0.2,0.5,0.3,1.1,0.3,1.7c0,0.6-0.1,1.2-0.3,1.7c-0.2,0.5-0.5,0.9-0.9,1.3c-0.4,0.4-0.9,0.7-1.4,0.9C308.9,298.4,308.3,298.5,307.6,298.5L307.6,298.5z M307.6,291.9c-0.7,0-1.3,0.2-1.7,0.7c-0.4,0.5-0.6,1-0.6,1.7c0,0.7,0.2,1.3,0.6,1.7c0.4,0.5,1,0.7,1.7,0.7c0.7,0,1.3-0.2,1.7-0.7c0.4-0.5,0.6-1.1,0.6-1.7c0-0.7-0.2-1.3-0.6-1.7C309,292.1,308.4,291.9,307.6,291.9z M311,299.9c0.8,0,1.6,0.1,2.4,0.2c0.7,0.2,1.3,0.4,1.9,0.7c0.5,0.3,0.9,0.7,1.2,1.1c0.3,0.4,0.4,0.9,0.4,1.5c0,0.6-0.1,1.1-0.4,1.5c-0.3,0.4-0.7,0.8-1.2,1.1c-0.5,0.3-1.2,0.5-1.9,0.7c-0.7,0.2-1.5,0.2-2.4,0.2c-0.9,0-1.6-0.1-2.4-0.2c-0.7-0.2-1.3-0.4-1.9-0.7c-0.5-0.3-0.9-0.7-1.2-1.1c-0.3-0.4-0.4-0.9-0.4-1.5c0-0.5,0.1-1,0.4-1.5c0.3-0.4,0.7-0.8,1.2-1.1c0.5-0.3,1.2-0.5,1.9-0.7C309.4,300,310.2,299.9,311,299.9L311,299.9z M311,301.6c-1.1,0-2,0.2-2.6,0.5c-0.7,0.3-1,0.8-1,1.3c0,0.6,0.3,1,1,1.4c0.7,0.3,1.6,0.5,2.6,0.5c1.1,0,2-0.2,2.6-0.5c0.7-0.4,1-0.8,1-1.4c0-0.6-0.3-1-1-1.3C313,301.7,312.1,301.6,311,301.6z M316.4,289.9v3.6h2.1v1.8h-2.1v4.7h-2.1v-10.1H316.4z" />
	<path class="st9" d="M330.4,394.5l47.4-47.4c1.4-1.4,3.7-1.4,5.1,0c1.4,1.4,1.4,3.7,0,5.1l-47.4,47.4c-1.4,1.4-3.7,1.4-5.1,0c0,0,0,0,0,0C329,398.2,329,395.9,330.4,394.5L330.4,394.5z" />
	<path class="st9" d="M315.9,405.1c-0.6,0-1.2,0-1.8,0.1c-2.7,0.2-5,1.1-6.8,2.8c-2,1.9-3.3,4.8-3.3,8.5c0,4.7,2.5,8.2,7.2,8.2c4,0,6.7-3.2,6.7-6.8c0-3.9-2.6-6.2-5.8-6.2c-1.9,0-3.3,0.8-4.3,1.8h-0.1c0.5-2.6,2.4-5.1,6.4-5.5c0.7-0.1,1.3-0.1,1.8-0.1L315.9,405.1z M311.2,422c-2.4,0-3.5-2-3.6-4.6c0-0.4,0.1-0.8,0.2-1.1c0.6-1.2,1.8-2,3.1-2c2.1,0,3.3,1.6,3.3,3.8C314.2,420.4,313,422,311.2,422L311.2,422z" />
	<path class="st10" d="M330.4,508.1l47.4-47.4c1.4-1.4,3.7-1.4,5.1,0c1.4,1.4,1.4,3.7,0,5.1l-47.4,47.4c-1.4,1.4-3.7,1.4-5.1,0c0,0,0,0,0,0C329,511.8,329,509.5,330.4,508.1z" />
	<path class="st10" d="M315.6,533.6v-4.8h2.5v-2.7h-2.5v-11.5h-4.2l-7.8,11.9v2.3h8.6v4.8H315.6z M307,526.1L307,526.1l3.5-5.3c0.6-1.1,1.1-2,1.7-3.2h0.1c-0.1,1.1-0.1,2.2-0.1,3.3v5.2H307z" />
	<path class="st8" d="M330.4,565.6l47.4-47.4c1.4-1.4,3.7-1.4,5.1,0s1.4,3.7,0,5.1l-47.4,47.4c-1.4,1.4-3.7,1.4-5.1,0c0,0,0,0,0,0C329,569.3,329,567,330.4,565.6z" />
	<path class="st8" d="M317.9,591.3v-3h-7.8v-0.1l1.6-1.4c3.3-3.1,5.7-5.8,5.7-9.1c0-3.1-2.1-5.8-6.3-5.8c-2.4,0-4.5,0.9-5.9,2l1.1,2.5c1-0.7,2.4-1.6,4.1-1.6c2.5,0,3.4,1.5,3.4,3.2c0,2.5-2.1,4.8-6.6,9l-2.3,2.1v2.2L317.9,591.3z" />
	<path class="st9" d="M103.3,782.1l47.4-47.4c1.4-1.4,3.7-1.4,5.1,0c1.4,1.4,1.4,3.7,0,5.1l-47.4,47.4c-1.4,1.4-3.7,1.4-5.1,0c0,0,0,0,0,0C101.9,785.8,101.9,783.5,103.3,782.1z" />
	<path class="st9" d="M91,792.6c-0.6,0-1.2,0-1.8,0.1c-2.7,0.2-5,1.1-6.8,2.8c-2,1.9-3.3,4.8-3.3,8.5c0,4.7,2.5,8.2,7.2,8.2c4,0,6.7-3.2,6.7-6.8c0-3.9-2.5-6.2-5.8-6.2c-1.9,0-3.3,0.8-4.3,1.8h-0.1c0.5-2.6,2.4-5.1,6.4-5.5c0.7-0.1,1.3-0.1,1.8-0.1V792.6z M86.3,809.5c-2.4,0-3.5-2.1-3.6-4.6c0-0.4,0.1-0.8,0.2-1.1c0.6-1.2,1.8-1.9,3.1-2c2.1,0,3.3,1.5,3.3,3.8C89.3,807.9,88.1,809.5,86.3,809.5z" />
	<path class="st11" d="M407.9,75.8c-31,0-56.3,25.3-56.3,56.3v71.8c1.3-1.4,3.1-2.3,5-2.4c1.9,0,3.7,0.8,5,2.1v-71.5c0-25.6,20.7-46.3,46.3-46.3h8.4c-1.5-1.3-2.3-3.1-2.4-5c0.1-1.9,1-3.7,2.4-5L407.9,75.8L407.9,75.8z M425.7,75.8c1.4,1.3,2.3,3.1,2.4,5c-0.1,1.9-1,3.7-2.4,5h87.1c25.6,0,46.3,20.7,46.3,46.3v66.2c1.3-1.4,3.1-2.3,5-2.4c1.9,0,3.7,0.8,5,2.1v-65.9c0-31-25.3-56.3-56.3-56.3L425.7,75.8L425.7,75.8z M124.5,76.7v49.5c1.3-1.4,3.1-2.3,5-2.4c1.9,0.1,3.7,1,5,2.4V76.7H124.5L124.5,76.7z M124.5,135.6v42.4c1.3-1.5,3.1-2.3,5-2.4c1.9,0.1,3.7,1,5,2.4v-42.4c-1.3,1.4-3.1,2.3-5,2.4C127.6,137.9,125.8,137.1,124.5,135.6L124.5,135.6z M124.5,187.4v42.4c1.3-1.4,3.1-2.3,5-2.4c1.9,0,3.7,0.8,5,2.1v-42.1c-1.3,1.4-3.1,2.3-5,2.4C127.6,189.7,125.8,188.9,124.5,187.4L124.5,187.4z M569.1,207.6c-1.3,1.4-3.1,2.3-5,2.4c-1.9-0.1-3.7-1-5-2.4v103.1c1.3-1.4,3.1-2.3,5-2.4c1.9,0.1,3.7,1,5,2.4V207.6z M351.6,213.2v102c1.3-1.4,3.1-2.3,5-2.4c1.9,0.1,3.7,1,5,2.4v-102c-1.3,1.4-3.1,2.3-5,2.4C354.7,215.5,352.9,214.7,351.6,213.2z M124.5,239.2v42.4c1.3-1.4,3.1-2.3,5-2.4c1.9,0,3.7,0.8,5,2.1v-42.1c-1.3,1.4-3.1,2.3-5,2.4C127.6,241.5,125.8,240.7,124.5,239.2L124.5,239.2z M124.5,291v42.4c1.3-1.4,3.1-2.3,5-2.4c1.9,0,3.7,0.8,5,2.1V291c-1.3,1.4-3.1,2.3-5,2.4C127.6,293.4,125.8,292.5,124.5,291L124.5,291z M559.1,320v103.1c1.3-1.4,3.1-2.3,5-2.4c1.9,0.1,3.7,1,5,2.4V320.3c-1.3,1.3-3.1,2.1-5,2.1C562.1,322.3,560.3,321.5,559.1,320L559.1,320z M351.6,324.6v102c1.3-1.4,3.1-2.3,5-2.4c1.9,0.1,3.7,1,5,2.4V324.9c-1.3,1.3-3.1,2.1-5,2.1C354.7,326.9,352.9,326,351.6,324.6z M124.5,342.8v99.8c1.3-1.4,3.1-2.3,5-2.4c1.9,0.1,3.7,1,5,2.4v-99.8c-1.3,1.4-3.1,2.3-5,2.4C127.6,345.2,125.8,344.3,124.5,342.8L124.5,342.8z M569.1,432.5c-1.3,1.4-3.1,2.3-5,2.4c-1.9-0.1-3.7-1-5-2.4v44.1c1.3-1.4,3.1-2.3,5-2.4c1.9,0,3.7,0.8,5,2.1V432.5L569.1,432.5z M351.6,436v218.9c1.3-1.4,3.1-2.3,5-2.4c1.9,0,3.7,0.8,5,2.1V436c-1.3,1.4-3.1,2.3-5,2.4C354.7,438.3,352.9,437.4,351.6,436z M124.5,452v42.4c1.3-1.5,3.1-2.3,5-2.4c1.9,0,3.7,0.8,5,2.1V452c-1.3,1.4-3.1,2.3-5,2.4C127.6,454.3,125.8,453.5,124.5,452L124.5,452z M569.1,485.9c-1.3,1.4-3.1,2.3-5,2.4c-1.9-0.1-3.7-1-5-2.4V530c1.3-1.4,3.1-2.3,5-2.4c1.9,0.1,3.7,1,5,2.4V485.9L569.1,485.9z M124.5,503.8v42.4c1.3-1.4,3.1-2.3,5-2.4c1.9,0,3.7,0.8,5,2.1v-42.1c-1.3,1.4-3.1,2.3-5,2.4C127.6,506.1,125.8,505.3,124.5,503.8L124.5,503.8z M559.1,539.3v44.1c1.3-1.4,3.1-2.3,5-2.4c1.9,0,3.7,0.8,5,2.1v-43.5c-1.3,1.3-3.1,2.1-5,2.1C562.1,541.7,560.3,540.8,559.1,539.3L559.1,539.3z M124.5,555.6v42.4c1.3-1.4,3.1-2.3,5-2.4c1.9,0,3.7,0.8,5,2.1v-42.1c-1.3,1.4-3.1,2.3-5,2.4C127.6,557.9,125.8,557.1,124.5,555.6L124.5,555.6z M569.1,592.8c-1.3,1.4-3.1,2.3-5,2.4c-1.9-0.1-3.7-1-5-2.4v162.1c1.3-1.4,3.1-2.3,5-2.4c1.9,0,3.7,0.8,5,2.1V592.8z M124.5,607.4v42.4c1.3-1.5,3.1-2.3,5-2.4c1.9,0.1,3.7,1,5,2.4v-42.4c-1.3,1.4-3.1,2.3-5,2.4C127.6,609.7,125.8,608.9,124.5,607.4z M124.5,659.2v42.4c1.3-1.4,3.1-2.3,5-2.4c1.9,0.1,3.7,1,5,2.4v-42.1c-1.3,1.3-3.1,2.1-5,2.1C127.6,661.6,125.8,660.7,124.5,659.2L124.5,659.2z M351.6,664.3v43.5c1.3-1.4,3.1-2.3,5-2.4c1.9,0.1,3.7,1,5,2.4v-43.5c-1.3,1.4-3.1,2.3-5,2.4C354.7,666.6,352.9,665.7,351.6,664.3L351.6,664.3z M124.5,711v114.3c0,31,25.3,56.3,56.3,56.3h15.1c-1.4-1.3-2.3-3.1-2.4-5c0.1-1.9,1-3.7,2.4-5h-15.1c-25.5,0-46.3-20.6-46.3-46.2c0-0.1,0-0.1,0-0.2v-114c-1.3,1.3-3.1,2.1-5,2.1C127.6,713.4,125.8,712.5,124.5,711L124.5,711z M351.6,717.2v43.5c1.3-1.4,3.1-2.3,5-2.4c1.9,0.1,3.7,1,5,2.4v-43.5c-1.3,1.4-3.1,2.3-5,2.4C354.7,719.5,352.9,718.6,351.6,717.2z M569.1,764.2c-1.3,1.4-3.1,2.3-5,2.4c-1.9-0.1-3.7-1-5-2.4v100.7h10V764.2z M351.6,770.1v43.5c1.3-1.4,3.1-2.3,5-2.4c1.9,0.1,3.7,1,5,2.4v-43.5c-1.3,1.4-3.1,2.3-5,2.4C354.7,772.4,352.9,771.5,351.6,770.1z M351.6,823v2.4c0,25.6-20.7,46.3-46.3,46.3h-22c1.4,1.3,2.3,3.1,2.4,5c-0.1,1.9-1,3.7-2.4,5h22c31,0,56.3-25.3,56.3-56.3V823c-1.3,1.4-3.1,2.3-5,2.4C354.7,825.3,352.9,824.4,351.6,823L351.6,823z M205.3,871.7c1.4,1.3,2.3,3.1,2.4,5c-0.1,1.9-1,3.7-2.4,5h68.6c-1.4-1.3-2.3-3.1-2.4-5c0.1-1.9,1-3.7,2.4-5H205.3L205.3,871.7z" />
	<path class="st12" d="M146.7,76.7c0,9.5-7.7,17.1-17.1,17.1s-17.1-7.7-17.1-17.1c0-9.5,7.7-17.1,17.1-17.1h0C139,59.6,146.7,67.3,146.7,76.7C146.7,76.7,146.7,76.7,146.7,76.7z" />
	<path class="st13" d="M122.5,86.1c1.1,0.7,3.3,1.5,5.9,1.5c5.2,0,8.1-2.8,8.1-6.3c0-2.8-2.1-4.7-4.6-5.2v-0.1c2.6-0.9,3.9-2.7,3.9-4.9c0-2.7-2.2-5.1-6.5-5.1c-2.5,0-4.8,0.8-6,1.6l0.9,2.9c0.9-0.6,2.6-1.3,4.3-1.3c2.3,0,3.4,1.2,3.4,2.6c0,2.1-2.3,2.9-4.1,2.9h-1.8v2.9h1.8c2.4,0,4.8,1.1,4.8,3.5c0,1.6-1.2,3.4-4.2,3.4c-2,0-4-0.8-4.8-1.3L122.5,86.1z" />
	<path class="st14" d="M421,73.7c-3.9,0-7.1,3.2-7.1,7.1c0,0,0,0,0,0c0,3.9,3.2,7.1,7.1,7.1c0,0,0,0,0,0c3.9,0,7.1-3.2,7.1-7.1C428.1,76.8,424.9,73.7,421,73.7z M129.5,123.8c-3.9,0-7.1,3.2-7.1,7.1c0,3.9,3.2,7.1,7.1,7.1c3.9,0,7.1-3.2,7.1-7.1C136.6,127,133.5,123.8,129.5,123.8z M129.5,175.6c-3.9,0-7.1,3.2-7.1,7.1s3.2,7.1,7.1,7.1c3.9,0,7.1-3.2,7.1-7.1S133.5,175.6,129.5,175.6z M564.1,195.8c-3.9,0-7.1,3.2-7.1,7.1c0,0,0,0,0,0c0,3.9,3.2,7.1,7.1,7.1l0,0c3.9,0,7.1-3.2,7.1-7.1c0,0,0,0,0,0C571.2,199,568,195.8,564.1,195.8L564.1,195.8z M356.6,201.4c-3.9,0-7.1,3.2-7.1,7.1c0,3.9,3.2,7.1,7.1,7.1c3.9,0,7.1-3.2,7.1-7.1C363.7,204.6,360.5,201.4,356.6,201.4C356.6,201.4,356.6,201.4,356.6,201.4z M129.5,227.5c-3.9,0-7.1,3.2-7.1,7.1c0,3.9,3.2,7.1,7.1,7.1c3.9,0,7.1-3.2,7.1-7.1C136.6,230.6,133.5,227.5,129.5,227.5z M129.5,279.3c-3.9,0-7.1,3.2-7.1,7.1s3.2,7.1,7.1,7.1c3.9,0,7.1-3.2,7.1-7.1S133.5,279.3,129.5,279.3z M564.1,308.3c-3.9,0-7.1,3.2-7.1,7.1v0c0,3.9,3.2,7.1,7.1,7.1l0,0c3.9,0,7.1-3.2,7.1-7.1v0C571.2,311.4,568,308.3,564.1,308.3L564.1,308.3z M356.6,312.8c-3.9,0-7.1,3.2-7.1,7.1c0,3.9,3.2,7.1,7.1,7.1c3.9,0,7.1-3.2,7.1-7.1c0,0,0,0,0,0C363.7,316,360.5,312.8,356.6,312.8z M129.5,331.1c-3.9,0-7.1,3.2-7.1,7.1c0,0,0,0,0,0c0,3.9,3.2,7.1,7.1,7.1c3.9,0,7.1-3.2,7.1-7.1C136.6,334.2,133.5,331.1,129.5,331.1C129.5,331.1,129.5,331.1,129.5,331.1z M564.1,420.7c-3.9,0-7.1,3.2-7.1,7.1v0c0,3.9,3.2,7.1,7.1,7.1l0,0c3.9,0,7.1-3.2,7.1-7.1v0C571.2,423.9,568,420.7,564.1,420.7L564.1,420.7z M356.6,424.2c-3.9,0-7.1,3.2-7.1,7.1s3.2,7.1,7.1,7.1c3.9,0,7.1-3.2,7.1-7.1S360.5,424.2,356.6,424.2z M129.5,440.2c-3.9,0-7.1,3.2-7.1,7.1c0,3.9,3.2,7.1,7.1,7.1c3.9,0,7.1-3.2,7.1-7.1C136.6,443.4,133.5,440.2,129.5,440.2z M564.1,474.1c-3.9,0-7.1,3.2-7.1,7.1v0c0,3.9,3.2,7.1,7.1,7.1h0c3.9,0,7.1-3.2,7.1-7.1v0C571.2,477.3,568,474.1,564.1,474.1L564.1,474.1z M129.5,492c-3.9,0-7.1,3.2-7.1,7.1l0,0c0,3.9,3.2,7.1,7.1,7.1c0,0,0,0,0,0c3.9,0,7.1-3.2,7.1-7.1l0,0C136.6,495.2,133.5,492,129.5,492C129.5,492,129.5,492,129.5,492L129.5,492z M564.1,527.6c-3.9,0-7.1,3.2-7.1,7.1v0c0,3.9,3.2,7.1,7.1,7.1h0c3.9,0,7.1-3.2,7.1-7.1v0C571.2,530.7,568,527.6,564.1,527.6L564.1,527.6z M129.5,543.9c-3.9,0-7.1,3.2-7.1,7.1l0,0c0,3.9,3.2,7.1,7.1,7.1c0,0,0,0,0,0c3.9,0,7.1-3.2,7.1-7.1l0,0C136.6,547,133.5,543.9,129.5,543.9C129.5,543.9,129.5,543.9,129.5,543.9z M564.1,581c-3.9,0-7.1,3.2-7.1,7.1c0,0,0,0,0,0c0,3.9,3.2,7.1,7.1,7.1h0c3.9,0,7.1-3.2,7.1-7.1v0C571.2,584.2,568,581,564.1,581L564.1,581L564.1,581z M129.5,595.7c-3.9,0-7.1,3.2-7.1,7.1l0,0c0,3.9,3.2,7.1,7.1,7.1c0,0,0,0,0,0c3.9,0,7.1-3.2,7.1-7.1l0,0C136.6,598.8,133.5,595.7,129.5,595.7C129.5,595.7,129.5,595.7,129.5,595.7z M129.5,647.5c-3.9,0-7.1,3.2-7.1,7.1l0,0c0,3.9,3.2,7.1,7.1,7.1c0,0,0,0,0,0c3.9,0,7.1-3.2,7.1-7.1l0,0C136.6,650.6,133.5,647.5,129.5,647.5C129.5,647.5,129.5,647.5,129.5,647.5z M356.6,652.5c-3.9,0-7.1,3.2-7.1,7.1c0,3.9,3.2,7.1,7.1,7.1c3.9,0,7.1-3.2,7.1-7.1l0,0C363.7,655.7,360.5,652.5,356.6,652.5L356.6,652.5z M129.5,699.3c-3.9,0-7.1,3.2-7.1,7.1l0,0c0,3.9,3.2,7.1,7.1,7.1c0,0,0,0,0,0c3.9,0,7.1-3.2,7.1-7.1l0,0C136.6,702.4,133.5,699.3,129.5,699.3C129.5,699.3,129.5,699.3,129.5,699.3z M356.6,705.4c-3.9,0-7.1,3.2-7.1,7.1c0,3.9,3.2,7.1,7.1,7.1c3.9,0,7.1-3.2,7.1-7.1l0,0C363.7,708.6,360.5,705.4,356.6,705.4L356.6,705.4z M564.1,752.4c-3.9,0-7.1,3.2-7.1,7.1c0,0,0,0,0,0c0,3.9,3.2,7.1,7.1,7.1l0,0c3.9,0,7.1-3.2,7.1-7.1v0C571.2,755.6,568,752.4,564.1,752.4C564.1,752.4,564.1,752.4,564.1,752.4z M356.6,758.3c-3.9,0-7.1,3.2-7.1,7.1c0,3.9,3.2,7.1,7.1,7.1c3.9,0,7.1-3.2,7.1-7.1l0,0C363.7,761.5,360.5,758.3,356.6,758.3L356.6,758.3z M356.6,811.2c-3.9,0-7.1,3.2-7.1,7.1c0,3.9,3.2,7.1,7.1,7.1c3.9,0,7.1-3.2,7.1-7.1l0,0C363.7,814.4,360.5,811.2,356.6,811.2z M200.6,869.6c-3.9,0-7.1,3.2-7.1,7.1l0,0c0,3.9,3.2,7.1,7.1,7.1c3.9,0,7.1-3.2,7.1-7.1C207.7,872.8,204.5,869.6,200.6,869.6C200.6,869.6,200.6,869.6,200.6,869.6z M278.6,869.6c-3.9,0-7.1,3.2-7.1,7.1l0,0c0,3.9,3.2,7.1,7.1,7.1c3.9,0,7.1-3.2,7.1-7.1C285.7,872.8,282.5,869.6,278.6,869.6L278.6,869.6z" />
	<path class="st15" d="M138.9,392.7c0,5.2-4.2,9.4-9.4,9.4c-5.2,0-9.4-4.2-9.4-9.4l0,0c0-5.2,4.2-9.4,9.4-9.4C134.7,383.4,138.9,387.6,138.9,392.7z M138.9,760.9c0,5.2-4.2,9.4-9.4,9.4c-5.2,0-9.4-4.2-9.4-9.4l0,0c0-5.2,4.2-9.4,9.4-9.4C134.7,751.6,138.9,755.8,138.9,760.9z" />
	<path class="st9" d="M103.3,839.4l47.4-47.4c1.4-1.4,3.7-1.4,5.1,0c1.4,1.4,1.4,3.7,0,5.1l-47.4,47.4c-1.4,1.4-3.7,1.4-5.1,0c0,0,0,0,0,0C101.9,843.1,101.9,840.8,103.3,839.4z" />
	<path class="st9" d="M91,850c-0.6,0-1.2,0-1.8,0.1c-2.7,0.2-5,1.1-6.8,2.8c-2,1.9-3.3,4.8-3.3,8.5c0,4.7,2.5,8.2,7.2,8.2c4,0,6.7-3.2,6.7-6.8c0-3.9-2.5-6.2-5.8-6.2c-1.9,0-3.3,0.8-4.3,1.8h-0.1c0.5-2.6,2.4-5.1,6.4-5.5c0.7-0.1,1.3-0.1,1.8-0.1V850z M86.3,866.9c-2.4,0-3.5-2-3.6-4.6c0-0.4,0.1-0.8,0.2-1.1c0.6-1.2,1.8-1.9,3.1-2c2.1,0,3.3,1.5,3.3,3.8C89.3,865.3,88.1,866.9,86.3,866.9z" />
	<path class="st15" d="M138.9,818.3c0,5.2-4.2,9.4-9.4,9.4c-5.2,0-9.4-4.2-9.4-9.4l0,0c0-5.2,4.2-9.4,9.4-9.4C134.7,808.9,138.9,813.1,138.9,818.3z" />
	<path class="st16" d="M330.4,620.3l47.4-47.4c1.4-1.4,3.7-1.4,5.1,0s1.4,3.7,0,5.1l-47.4,47.4c-1.4,1.4-3.7,1.4-5.1,0c0,0,0,0,0,0C329,624,329,621.7,330.4,620.3L330.4,620.3z" />
	<path class="st17" d="M330.4,630.6l47.4-47.4c1.4-1.4,3.7-1.4,5.1,0c1.4,1.4,1.4,3.7,0,5.1l-47.4,47.4c-1.4,1.4-3.7,1.4-5.1,0c0,0,0,0,0,0C329,634.3,329,632,330.4,630.6z" />
	<path class="st16" d="M312.4,633.2h3.5v-19h-3l-4.7,2.3l0.6,2.7l3.5-1.8h0.1L312.4,633.2z" />
	<path class="st17" d="M318.5,639.9h-9.9l-1.2,9.6c0.7-0.1,1.5-0.2,2.6-0.2c3.8,0,5.4,1.4,5.4,3.6c0,2.3-2,3.5-4.1,3.5c-1.7,0-3.4-0.6-4.2-1l-0.7,2.7c1,0.6,2.8,1.1,5.1,1.1c4.7,0,7.7-3,7.7-6.6c0-2.3-1.1-3.9-2.5-4.8c-1.3-0.8-3-1.2-4.6-1.2c-0.6,0-0.9,0-1.3,0.1l0.6-3.8h7.3V639.9z" />
	<path class="st15" d="M366,603.9c0,5.2-4.2,9.4-9.4,9.4c-5.2,0-9.4-4.2-9.4-9.4c0-5.2,4.2-9.4,9.4-9.4C361.8,594.5,366,598.7,366,603.9L366,603.9z M366,545.4c0,5.2-4.2,9.4-9.4,9.4l0,0c-5.2,0-9.4-4.2-9.4-9.4c0-5.2,4.2-9.4,9.4-9.4C361.8,536,366,540.2,366,545.4L366,545.4z M366,487c0,5.2-4.2,9.4-9.4,9.4c-5.2,0-9.4-4.2-9.4-9.4c0-5.2,4.2-9.4,9.4-9.4C361.8,477.6,366,481.8,366,487L366,487z M366,375.6c0,5.2-4.2,9.4-9.4,9.4l0,0c-5.2,0-9.4-4.2-9.4-9.4c0-5.2,4.2-9.4,9.4-9.4C361.8,366.2,366,370.4,366,375.6z M366,264.2c0,5.2-4.2,9.4-9.4,9.4l0,0c-5.2,0-9.4-4.2-9.4-9.4s4.2-9.4,9.4-9.4C361.8,254.8,366,259,366,264.2L366,264.2z" />
	<path class="st18" d="M465.5,101.9l47.4-47.4c1.4-1.4,3.7-1.4,5.1,0c1.4,1.4,1.4,3.7,0,5.1L470.6,107c-1.4,1.4-3.7,1.4-5.1,0c0,0,0,0,0,0C464.1,105.6,464.1,103.3,465.5,101.9L465.5,101.9z" />
	<path class="st19" d="M475.7,101.9l47.4-47.4c1.4-1.4,3.7-1.4,5.1,0c1.4,1.4,1.4,3.7,0,5.1L480.8,107c-1.4,1.4-3.7,1.4-5.1,0c0,0,0,0,0,0C474.3,105.6,474.3,103.3,475.7,101.9z" />
	<path class="st18" d="M442.8,114.5v3h9v0.1l-8,16h3.8l8.1-16.7v-2.3H442.8z" />
	<path class="st19" d="M464.7,133.9c0.6,0,1.3,0,2.2-0.1c2.6-0.2,4.9-1.1,6.5-2.6c2-1.9,3.3-4.8,3.3-8.9c0-4.7-2.3-8.1-6.8-8.1c-4,0-6.9,3.1-6.9,6.8c0,3.5,2.5,5.9,5.8,5.9c1.8,0,3.2-0.6,4.2-1.7h0.1c-0.4,1.8-1.2,3.3-2.5,4.2c-1.1,0.9-2.5,1.4-3.9,1.5c-0.7,0.1-1.3,0.1-2,0.1L464.7,133.9z M469.7,116.9c2.3,0,3.3,2.2,3.3,4.8c0,0.5-0.1,0.8-0.2,1.1c-0.6,0.9-1.6,1.6-3.1,1.6c-2,0-3.1-1.5-3.1-3.5C466.6,118.5,467.9,116.9,469.7,116.9L469.7,116.9z" />
	<path class="st15" d="M504.9,80.8c0,5.2-4.2,9.4-9.4,9.4c-5.2,0-9.4-4.2-9.4-9.4c0-5.2,4.2-9.4,9.4-9.4C500.7,71.4,504.9,75.6,504.9,80.8C504.9,80.8,504.9,80.8,504.9,80.8z M573.5,146.7c0,5.2-4.2,9.4-9.4,9.4c-5.2,0-9.4-4.2-9.4-9.4c0-5.2,4.2-9.4,9.4-9.4C569.3,137.3,573.5,141.5,573.5,146.7L573.5,146.7L573.5,146.7z M573.5,259.1c0,5.2-4.2,9.4-9.4,9.4l0,0c-5.2,0-9.4-4.2-9.4-9.4c0-5.2,4.2-9.4,9.4-9.4C569.3,249.7,573.5,253.9,573.5,259.1L573.5,259.1z M573.5,371.6c0,5.2-4.2,9.4-9.4,9.4l0,0c-5.2,0-9.4-4.2-9.4-9.4s4.2-9.4,9.4-9.4C569.3,362.2,573.5,366.4,573.5,371.6L573.5,371.6z M573.5,644.3c0,5.2-4.2,9.4-9.4,9.4c-5.2,0-9.4-4.2-9.4-9.4c0-5.2,4.2-9.4,9.4-9.4C569.3,634.9,573.5,639.1,573.5,644.3L573.5,644.3z M573.5,703.3c0,5.2-4.2,9.4-9.4,9.4c-5.2,0-9.4-4.2-9.4-9.4c0-5.2,4.2-9.4,9.4-9.4C569.3,693.9,573.5,698.1,573.5,703.3L573.5,703.3z M573.5,815.7c0,5.2-4.2,9.4-9.4,9.4c-5.2,0-9.4-4.2-9.4-9.4c0-5.2,4.2-9.4,9.4-9.4C569.3,806.4,573.5,810.6,573.5,815.7L573.5,815.7z" />
	<path class="st12" d="M581.2,873.3c0,9.5-7.7,17.1-17.1,17.1s-17.1-7.7-17.1-17.1c0-9.5,7.7-17.1,17.1-17.1l0,0C573.5,856.1,581.2,863.8,581.2,873.3L581.2,873.3z"/>
	<path class="st13" d="M557.1,882.7c1.1,0.7,3.3,1.4,5.9,1.4c5.2,0,8.1-2.8,8.1-6.3c0-2.8-2.1-4.7-4.6-5.2v-0.1c2.6-0.9,3.9-2.7,3.9-4.9c0-2.7-2.2-5.1-6.5-5.1c-2.5,0-4.8,0.8-6,1.6l0.9,2.9c0.9-0.6,2.6-1.3,4.3-1.3c2.3,0,3.3,1.2,3.3,2.6c0,2.1-2.3,2.9-4.1,2.9h-1.8v2.9h1.8c2.4,0,4.8,1.1,4.8,3.5c0,1.6-1.2,3.3-4.2,3.3c-1.7,0-3.3-0.5-4.8-1.3L557.1,882.7z" />
	<path class="st7" d="M280.3,182v2.3c0,0.6,0.1,1.1,0.3,1.6c0.2,0.5,0.5,1,0.9,1.5c0.4,0.5,0.8,0.9,1.3,1.2c0.5,0.4,1,0.6,1.6,0.8l-1.3,1.6c-0.8-0.4-1.6-0.9-2.3-1.5c-0.7-0.6-1.2-1.2-1.6-1.9c-0.1,0.3-0.3,0.7-0.5,1c-0.2,0.3-0.5,0.7-0.9,1c-0.3,0.3-0.7,0.6-1.1,1c-0.4,0.3-0.8,0.6-1.3,0.8l-1.7-1.4c1.4-0.7,2.4-1.5,3.2-2.5c0.8-1,1.1-2.1,1.2-3.3V182L280.3,182z M288.2,181.7v12.3h-2.1v-12.3H288.2z M277.5,198c-0.2,0-0.3,0-0.4-0.1c-0.1-0.1-0.1-0.2-0.1-0.4v-4.9h2.1v3.6h9.4v1.8L277.5,198z M301.7,186.9v-1.7h-7.5v1.7H301.7z M292.1,188.2v-6.4h2.1v1.8h7.5v-1.8h2.1v6.4c0,0.2,0,0.3-0.1,0.4c-0.1,0.1-0.2,0.1-0.4,0.1h-10.7c-0.2,0-0.3,0-0.4-0.1C292.2,188.5,292.1,188.4,292.1,188.2L292.1,188.2z M305.7,191.8h-6.4v3.2h-2.2v-3.2h-6.9V190h15.4V191.8z M292.7,198c-0.2,0-0.3,0-0.4-0.1c-0.1-0.1-0.1-0.2-0.1-0.4V193h2.1v3.3h10v1.8L292.7,198z M314.6,191.6c0.8,0,1.6,0.1,2.4,0.2s1.3,0.4,1.9,0.7c0.5,0.3,0.9,0.7,1.2,1.1c0.3,0.4,0.4,0.9,0.4,1.5c0,0.6-0.1,1.1-0.4,1.5c-0.3,0.4-0.7,0.8-1.2,1.1c-0.5,0.3-1.2,0.5-1.9,0.7c-0.7,0.1-1.5,0.2-2.4,0.2c-0.9,0-1.6-0.1-2.4-0.2c-0.7-0.1-1.3-0.4-1.9-0.7c-0.5-0.3-0.9-0.7-1.2-1.1c-0.3-0.4-0.4-0.9-0.4-1.5c0-0.5,0.1-1,0.4-1.5c0.3-0.4,0.7-0.8,1.2-1.1c0.5-0.3,1.2-0.5,1.9-0.7C312.9,191.7,313.7,191.6,314.6,191.6L314.6,191.6z M314.6,193.3c-1.1,0-2,0.2-2.6,0.5c-0.7,0.3-1,0.8-1,1.3c0,0.6,0.3,1,1,1.4c0.7,0.3,1.6,0.5,2.6,0.5c1.1,0,2-0.2,2.6-0.5c0.7-0.3,1-0.8,1-1.4c0-0.6-0.3-1-1-1.3C316.6,193.4,315.7,193.3,314.6,193.3L314.6,193.3z M308.1,189.9c-0.2,0-0.3,0-0.4-0.1c-0.1-0.1-0.1-0.2-0.1-0.4v-6.5c0-0.2,0-0.3,0.1-0.4c0.1-0.1,0.2-0.1,0.4-0.1h7.4v1.8h-5.9v4l2.3,0c0.3,0,0.8,0,1.3,0c0.5,0,1-0.1,1.5-0.1c0.5-0.1,1-0.1,1.5-0.2c0.5-0.1,0.9-0.2,1.2-0.2v1.7c-0.3,0.1-0.6,0.1-1.1,0.2c-0.5,0.1-1,0.1-1.5,0.2c-0.6,0.1-1.1,0.1-1.8,0.2c-0.6,0-1.2,0.1-1.8,0.1c-0.1,0-0.4,0-0.7,0L308.1,189.9L308.1,189.9z M318,191.5v-9.8h2.1v3.2h2.2v1.8h-2.2v4.9L318,191.5z" />
	<path class="st15" d="M366,152.9c0,5.2-4.2,9.4-9.4,9.4c-5.2,0-9.4-4.2-9.4-9.4c0-5.2,4.2-9.4,9.4-9.4C361.8,143.5,366,147.7,366,152.9L366,152.9z" />
	<text id="대화" visibility="hidden" transform="translate(152.838 139.8027)" class="st20">대화</text>
	<text id="주엽" visibility="hidden" transform="translate(152.838 191.6257)" class="st20">주엽</text>
	<text id="정발산" visibility="hidden" transform="translate(152.838 242.9634)" class="st20">정발산</text>
	<text id="마두" visibility="hidden" transform="translate(152.838 294.3286)" class="st20">마두</text>
	<text id="백석" visibility="hidden" transform="translate(152.838 346.106)" class="st20">백석</text>
	<text id="대곡" visibility="hidden" transform="translate(152.838 400.706)" class="st20">대곡</text>
	<text id="화정" visibility="hidden" transform="translate(152.838 456.0867)" class="st20">화정</text>
	<text id="원당" visibility="hidden" transform="translate(152.838 508.1183)" class="st20">원당</text>
	<text id="원흥" visibility="hidden" transform="translate(152.838 559.9131)" class="st20">원흥</text>
	<text id="삼송" visibility="hidden" transform="translate(152.838 610.5131)" class="st20">삼송</text>
	<text id="지축" visibility="hidden" transform="translate(152.838 663.2672)" class="st20">지축</text>
	<text id="구파발" visibility="hidden" transform="translate(152.838 714.6335)" class="st20">구파발</text>
	<text id="연신내" visibility="hidden" transform="translate(152.838 769.2335)" class="st20">연신내</text>
	<text id="불광" visibility="hidden" transform="translate(152.838 826.9876)" class="st20">불광</text>
	<text id="녹번" visibility="hidden" transform="translate(180.7969 916.6887)" class="st20">녹번</text>
	<text id="홍제" visibility="hidden" transform="translate(259.0887 916.6884)" class="st20">홍제</text>
	<text id="신사" visibility="hidden" transform="translate(381.755 160.2319)" class="st20">신사</text>
	<text id="압구정" visibility="hidden" transform="translate(381.755 217.0549)" class="st20">압구정</text>
	<text id="옥수" visibility="hidden" transform="translate(381.755 272.3925)" class="st20">옥수</text>
	<text id="금호" visibility="hidden" transform="translate(381.755 327.7577)" class="st20">금호</text>
	<text id="약수" visibility="hidden" transform="translate(381.755 384.5351)" class="st20">약수</text>
	<text id="동대입구" visibility="hidden" transform="translate(381.755 439.1351)" class="st20">동대입구</text>
	<text id="충무로" visibility="hidden" transform="translate(381.755 495.5158)" class="st20">충무로</text>
	<text id="을지로3가" visibility="hidden" transform="translate(381.755 553.5474)" class="st20">을지로3가</text>
	<text id="종로3가" visibility="hidden" transform="translate(381.755 612.3422)" class="st20">종로3가</text>
	<text id="안국" visibility="hidden" transform="translate(381.755 666.9422)" class="st20">안국</text>
	<text id="경복궁" visibility="hidden" transform="translate(381.755 719.6964)" class="st20">경복궁</text>
	<text id="독립문" visibility="hidden" transform="translate(381.755 773.0626)" class="st20">독립문</text>
	<text id="무악재" visibility="hidden" transform="translate(381.755 825.6625)" class="st20">무악재</text>
	<text id="교대" visibility="hidden" transform="translate(590.43 155.4653)" class="st20">교대</text>
	<text id="남부터미널" visibility="hidden" transform="translate(590.43 212.2883)" class="st20">남부터미널</text>
	<text id="양재" visibility="hidden" transform="translate(590.43 267.6259)" class="st20">양재</text>
	<text id="매봉" visibility="hidden" transform="translate(590.43 323.9911)" class="st20">매봉</text>
	<text id="도곡" visibility="hidden" transform="translate(590.43 379.7685)" class="st20">도곡</text>
	<text id="대치" visibility="hidden" transform="translate(590.43 435.3685)" class="st20">대치</text>
	<text id="학여울" visibility="hidden" transform="translate(590.43 489.7492)" class="st20">학여울</text>
	<text id="대청" visibility="hidden" transform="translate(590.43 543.7808)" class="st20">대청</text>
	<text id="일원" visibility="hidden" transform="translate(590.43 596.5756)" class="st20">일원</text>
	<text id="수서" visibility="hidden" transform="translate(590.43 653.1756)" class="st20">수서</text>
	<text id="가락시장" visibility="hidden" transform="translate(590.43 711.9297)" class="st20">가락시장</text>
	<text id="경찰병원" visibility="hidden" transform="translate(590.43 768.296)" class="st20">경찰병원</text>
	<text id="오금" visibility="hidden" transform="translate(590.43 822.8959)" class="st20">오금</text>
	<text id="잠원" visibility="hidden" transform="translate(399.9308 57.5754)" class="st20">잠원</text>
	<text id="고속터미널" visibility="hidden" transform="translate(537.7979 64.9031)" class="st20">고속터미널</text>
</svg>