<?xml version="1.0" encoding="UTF-8"?>
<svg enable-background="new 0 0 720 1400" version="1.1" viewBox="0 0 720 1400"
	xmlns="http://www.w3.org/2000/svg">
	<style type="text/css">
	.st0{opacity:0.99;fill:#A02B2B;enable-background:new;}
	.st1{opacity:0.99;fill:#996CAC;enable-background:new;}
	.st2{fill:#996CAC;}
	.st3{fill:#00A84D;}
	.st4{opacity:0.99;fill:#0090D2;enable-background:new;}
	.st5{opacity:0.99;fill:#77C4A3;enable-background:new;}
	.st6{fill:#36C9AC;fill-opacity:0.9843;}
	.st7{opacity:0.99;fill:#CD7C2F;enable-background:new;}
	.st8{fill:#CD7C2F;fill-opacity:0.9922;}
	.st9{opacity:0.99;fill:#BDB092;enable-background:new;}
	.st10{fill:#BDB092;fill-opacity:0.9922;}
	.st11{opacity:0.99;fill:#0052A4;enable-background:new;}
	.st12{fill:#0052A4;fill-opacity:0.9922;}
	.st13{opacity:0.99;fill:#747F00;enable-background:new;}
	.st14{fill:#747F00;fill-opacity:0.9922;}
	.st15{opacity:0.99;fill:#00AAD5;fill-opacity:0.9922;enable-background:new;}
	.st16{fill:#A02C2C;fill-opacity:0.9922;}
	.st17{opacity:0.99;fill:#B7C450;enable-background:new;}
	.st18{fill:#B7C450;fill-opacity:0.9922;}
	.st19{opacity:0.99;fill:#FABE00;enable-background:new;}
	.st20{opacity:0.99;fill:#E6186C;enable-background:new;}
	.st21{fill:#E6186C;fill-opacity:0.9922;}
	.st22{opacity:0.99;fill:#00AAD4;enable-background:new;}
	.st23{opacity:0.99;fill:#FFFFFF;stroke:#000000;stroke-width:3.9701;stroke-linecap:round;stroke-linejoin:round;stroke-miterlimit:15.1181;stroke-opacity:0.9922;enable-background:new;}
	.st24{opacity:0.99;fill:#FF6600;enable-background:new;}
	.st25{fill:#FF6600;fill-opacity:0.9922;}
	.st26{fill:#00AAD4;fill-opacity:0.9922;}
	.st27{fill:#FABE00;fill-opacity:0.9922;}
	.st28{opacity:0.99;fill:#00A84D;fill-opacity:0.9922;enable-background:new;}
	.st29{fill:#6789CA;}
	.st30{fill:#FFFFFF;stroke:#000000;stroke-width:3.9701;stroke-linecap:round;stroke-linejoin:round;stroke-miterlimit:30.2362;}
	.st31{fill:#0090D2;fill-opacity:0.9922;}
	.st32{fill:#FFFFFF;}
	.st33{opacity:0.99;fill:none;stroke:#00A84D;stroke-width:3;stroke-linecap:round;stroke-linejoin:round;stroke-miterlimit:15.1181;stroke-opacity:0.9922;enable-background:new;}
	.st34{font-family:'Pretendard-Regular', &quot;Apple SD Gothic Neo&quot;, &quot;Malgun Gothic&quot;, sans-serif;font-size:24px;}
	</style>
	<path class="st0" d="m437.3 1243.4 47.4-47.4c1.4-1.4 3.7-1.4 5.1 0s1.4 3.7 0 5.1l-47.4 47.4c-1.4 1.4-3.7 1.4-5.1 0s-1.4-3.7 0-5.1z"/>
	<path class="st1" d="m59.8 940.6 47.4-47.4c1.4-1.4 3.7-1.4 5.1 0s1.4 3.7 0 5.1l-47.4 47.4c-1.4 1.4-3.7 1.4-5.1 0-1.5-1.4-1.5-3.6 0-5.1z"/>
	<path class="st2" d="m48.7 949h-9.9l-1.2 9.6c0.7-0.1 1.5-0.2 2.6-0.2 3.8 0 5.4 1.4 5.4 3.6 0 2.3-2 3.5-4.1 3.5-1.7 0-3.4-0.6-4.2-1l-0.7 2.7c1 0.6 2.8 1.1 5.1 1.1 4.7 0 7.7-3 7.7-6.6 0-2.3-1.1-3.9-2.5-4.8-1.3-0.8-3-1.2-4.6-1.2-0.6 0-0.9 0-1.3 0.1l0.6-3.8h7.3l-0.2-3z"/>
	<path class="st3" d="m285.1 94.9c-28.1 0-51 22.9-51 51v97.8c1.3-1.4 3.1-2.3 5-2.4 1.9 0.1 3.7 1 5 2.4v-97.8c0-22.6 18.2-40.9 40.8-41h0.1 108.7c-1.4-1.3-2.3-3.1-2.4-5 0.1-1.9 1-3.7 2.4-5h-108.6zm118.1 0c1.4 1.3 2.3 3.1 2.4 5 0 1.9-0.7 3.7-2.1 5h14c22.6 0 40.9 18.2 41 40.8v0.1 225.2c1.3-1.4 3.1-2.3 5-2.4 1.9 0.1 3.7 1 5 2.4v-225.1c0-28.1-22.9-51-51-51h-14.3zm-169 158.2v48.3c1.3-1.4 3.1-2.3 5-2.4 1.9 0.1 3.7 1 5 2.4v-48c-1.3 1.3-3.1 2.1-5 2.1-1.9-0.1-3.8-0.9-5-2.4zm0 57.7v48.4c1.3-1.4 3.1-2.3 5-2.4 1.9 0 3.7 0.7 5 2.1v-48c-1.3 1.4-3.1 2.3-5 2.4-1.9-0.2-3.8-1-5-2.5zm0 57.8v279.2c1.3-1.4 3.1-2.3 5-2.4 1.9 0.1 3.7 1 5 2.4v-279.2c-1.3 1.4-3.1 2.3-5 2.4-1.9-0.1-3.8-1-5-2.4zm377.5 9.3v105.1c1.3-1.4 3.1-2.3 5-2.4 1.9 0 3.7 0.7 5 2.1v-104.8h-10zm-143.2 2.5c-1.3 1.4-3.1 2.3-5 2.4-1.9-0.1-3.7-1-5-2.4v103.5c1.3-1.4 3.1-2.3 5-2.4 1.9 0 3.7 0.7 5 2.1v-103.2zm143.2 112v47.2c1.3-1.4 3.1-2.3 5-2.4 1.9 0.1 3.7 1 5 2.4v-47.2c-1.3 1.4-3.1 2.3-5 2.4-1.9-0.1-3.7-0.9-5-2.4zm-143.2 0.8c-1.3 1.4-3.1 2.3-5 2.4-1.9-0.1-3.7-1-5-2.4v47.1c1.3-1.4 3.1-2.3 5-2.4 1.9 0.1 3.7 1 5 2.4v-47.1zm143.2 55.8v9c0 21.2-17.1 38.4-38.3 38.4h-0.2-1.5c1.3 1.3 2.1 3.1 2.1 5-0.1 1.9-1 3.7-2.4 5h1.9c26.7 0 48.4-21.8 48.4-48.4v-8.6c-1.3 1.3-3.1 2.1-5 2.1-1.9-0.1-3.7-1-5-2.5zm-153.2 0.7v159.9c1.3-1.4 3.1-2.3 5-2.4 1.9 0.1 3.7 1 5 2.4v-103.2h93.5c-1.5-1.3-2.3-3.1-2.4-5 0.1-1.9 1-3.7 2.4-5h-93.5v-46.4c-1.3 1.3-3.1 2.1-5 2.1-1.9-0.1-3.7-1-5-2.4zm-224.3 107.5v48h-86.4c1.4 1.3 2.3 3.1 2.4 5-0.1 1.9-1 3.7-2.4 5h86.4v105.8c1.3-1.4 3.1-2.3 5-2.4 1.9 0.1 3.7 1 5 2.4v-163.5c-1.3 1.3-3.1 2.1-5 2.1-2-0.1-3.8-1-5-2.4zm-103.6 48c-27.4 0-49.6 22.3-49.6 49.6v20.4c1.3-1.4 3.1-2.3 5-2.4 1.9 0 3.7 0.7 5 2.1v-20c0-22 17.7-39.6 39.6-39.6h7.8c-1.4-1.3-2.3-3.1-2.4-5 0.1-1.9 1-3.7 2.4-5l-7.8-0.1zm327.9 13.8v47.1c1.3-1.4 3.1-2.3 5-2.4 1.9 0 3.7 0.7 5 2.1v-46.4c-1.3 1.3-3.1 2.1-5 2.1-1.9-0.2-3.7-1.1-5-2.5zm10 56.4c-1.3 1.4-3.1 2.3-5 2.4-1.9-0.1-3.7-1-5-2.4v47.1c1.3-1.4 3.1-2.3 5-2.4 1.9 0.1 3.7 1 5 2.4v-47.1zm-377.5 9.2c-1.3 1.4-3.1 2.3-5 2.4-1.9-0.1-3.7-1-5-2.4v58.1c1.3-1.4 3.1-2.3 5-2.4 1.9 0 3.7 0.7 5 2.1v-57.8zm143.2 45.8v48.3c1.3-1.4 3.1-2.3 5-2.4 1.9 0.1 3.7 1 5 2.4v-48c-1.3 1.3-3.1 2.1-5 2.1-1.9-0.1-3.8-1-5-2.4zm224.3 1.5v103.5c1.3-1.4 3.1-2.3 5-2.4 1.9 0.1 3.7 1 5 2.4v-103.2c-1.3 1.3-3.1 2.1-5 2.1-1.9-0.1-3.7-1-5-2.4zm-367.5 20.2c-1.3 1.4-3.1 2.3-5 2.4-1.9-0.1-3.7-1-5-2.4v119.3h10v-119.3zm143.2 36v106.1c1.3-1.4 3.1-2.3 5-2.4 1.9 0.1 3.7 1 5 2.4v-106.1c-1.3 1.4-3.1 2.3-5 2.4-1.9-0.1-3.7-1-5-2.4zm234.3 56.7c-1.3 1.4-3.1 2.3-5 2.4-1.9-0.1-3.7-1-5-2.4v103.5c1.3-1.4 3.1-2.3 5-2.4 1.9 0 3.7 0.7 5 2.1v-103.2zm-234.3 58.7v48.4c1.3-1.4 3.1-2.3 5-2.4 1.9 0.1 3.7 1 5 2.4v-48c-1.3 1.3-3.1 2.1-5 2.1-1.9-0.2-3.8-1-5-2.5zm234.3 54.1c-1.3 1.4-3.1 2.3-5 2.4-1.9-0.1-3.7-1-5-2.4v103.5c1.3-1.4 3.1-2.3 5-2.4 1.9 0 3.7 0.7 5 2.1v-103.2zm-234.3 3.6v48.4c1.3-1.4 3.1-2.3 5-2.4 1.9 0 3.7 0.7 5 2.1v-48c-1.3 1.4-3.1 2.3-5 2.4-1.9-0.1-3.8-1-5-2.5zm0 57.8v106c1.3-1.4 3.1-2.3 5-2.4 1.9 0.1 3.7 1 5 2.4v-106c-1.3 1.4-3.1 2.3-5 2.4-1.9-0.1-3.8-1-5-2.4zm234.3 51.5c-1.3 1.4-3.1 2.3-5 2.4-1.9-0.1-3.7-1-5-2.4v100.4c0 22.6-18.2 40.9-40.8 41h-0.2-106.2c1.3 1.3 2.1 3.1 2.1 5-0.1 1.9-1 3.7-2.4 5h106.6c28.1 0 51-22.9 51-51l-0.1-100.4zm-234.3 63.9v36.4c0 28.1 22.9 51 51 51h16.5c-1.4-1.3-2.3-3.1-2.4-5 0.1-1.9 1-3.7 2.4-5h-16.5c-22.6 0-40.9-18.2-41-40.8v-0.2-36.1c-1.3 1.3-3.1 2.1-5 2.1-1.9-0.1-3.8-0.9-5-2.4z"/>
	<path class="st4" d="m212.9 448.8 47.4-47.4c1.4-1.4 3.7-1.4 5.1 0s1.4 3.7 0 5.1l-47.3 47.5c-1.4 1.4-3.7 1.4-5.1 0-1.5-1.5-1.5-3.7-0.1-5.2z"/>
	<path class="st5" d="m212.9 438.6 47.4-47.4c1.4-1.4 3.7-1.4 5.1 0s1.4 3.7 0 5.1l-47.4 47.4c-1.4 1.4-3.7 1.4-5.1 0s-1.4-3.7 0-5.1z"/>
	<path class="st6" d="m146.8 445.4c0.8 0 1.6 0.1 2.4 0.2 0.7 0.2 1.4 0.4 1.9 0.7s0.9 0.7 1.2 1.1 0.5 0.9 0.5 1.5-0.2 1.1-0.5 1.5-0.7 0.8-1.2 1.1-1.2 0.5-1.9 0.7-1.5 0.2-2.4 0.2-1.6-0.1-2.4-0.2c-0.7-0.1-1.3-0.4-1.9-0.7-0.5-0.3-1-0.7-1.3-1.1s-0.4-0.9-0.4-1.5c0-0.5 0.1-1 0.4-1.5 0.3-0.4 0.7-0.8 1.3-1.1 0.5-0.3 1.2-0.5 1.9-0.7 0.8-0.1 1.6-0.2 2.4-0.2zm0 1.6c-1.1 0-2 0.2-2.6 0.5-0.7 0.3-1 0.8-1 1.3 0 0.6 0.3 1 1 1.4 0.7 0.3 1.6 0.5 2.6 0.5 1.1 0 2-0.2 2.6-0.5 0.7-0.4 1-0.8 1-1.4s-0.3-1-1-1.3c-0.6-0.3-1.4-0.5-2.6-0.5zm0.1-10.9c0.2 0 0.3 0 0.4 0.1s0.1 0.2 0.1 0.4c-0.2 1.9-0.9 3.7-2.1 5.2s-3 2.6-5.4 3.4l-1.3-1.5c1.8-0.5 3.3-1.3 4.3-2.2 1.1-1 1.8-2.2 2.1-3.5h-5.4v-1.8h7.3zm3.6 9.2v-2.3h-3.2v-1.7h3.2v-2h-2.8v-1.7h2.8v-2.2h2.1v10l-2.1-0.1zm9.9-0.8c-0.7 0-1.3-0.1-1.8-0.3s-1-0.5-1.4-0.9-0.7-0.8-0.9-1.4-0.3-1.1-0.3-1.7 0.1-1.2 0.3-1.7 0.5-1 0.9-1.4 0.9-0.7 1.4-0.9 1.2-0.3 1.8-0.3c0.7 0 1.3 0.1 1.8 0.3s1 0.5 1.4 0.9 0.7 0.8 0.9 1.4c0.2 0.5 0.3 1.1 0.3 1.7s-0.1 1.2-0.3 1.7-0.5 1-0.9 1.4-0.9 0.7-1.4 0.9-1.1 0.3-1.8 0.3zm0-6.8c-0.7 0-1.3 0.2-1.7 0.7s-0.6 1.1-0.6 1.8 0.2 1.3 0.6 1.8 1 0.7 1.7 0.7 1.3-0.2 1.7-0.7 0.6-1.1 0.6-1.8-0.2-1.3-0.6-1.8-1-0.7-1.7-0.7zm-5.2 9.2 5.1-0.1h1.2c0.5 0 1.1-0.1 1.6-0.1s1.2-0.1 1.8-0.2 1.1-0.2 1.6-0.2v1.7c-1.2 0.3-2.5 0.5-4.2 0.6-1.6 0.1-3.3 0.2-5.2 0.2h-1.9v-1.9zm13.8-11.5v16.7h-2.1v-16.7h2.1zm10.6 10.6c1.7 0.1 2.9 0.5 3.8 1 0.9 0.6 1.3 1.3 1.3 2.2 0 1-0.5 1.8-1.6 2.4s-2.6 0.9-4.6 0.9-3.6-0.3-4.6-0.9-1.6-1.4-1.6-2.4c0-0.9 0.4-1.6 1.3-2.2s2.1-0.9 3.8-1v-1.6h-6.6v-1.8h15.4v1.8h-6.6v1.6zm-1 1.6c-1.2 0-2.1 0.1-2.8 0.4s-1 0.7-1 1.2c0 0.6 0.3 1 1 1.2 0.7 0.3 1.6 0.4 2.8 0.4s2.1-0.1 2.8-0.4c0.7-0.2 1-0.7 1-1.2s-0.3-0.9-1-1.2-1.7-0.4-2.8-0.4zm-6-11.8h11.8v1.8h-4.7c0.1 0.4 0.4 0.8 0.7 1.1 0.4 0.3 0.8 0.5 1.4 0.7 0.5 0.2 1.1 0.4 1.7 0.5s1.3 0.2 1.9 0.3l-1.3 1.5c-0.5-0.1-1.1-0.2-1.7-0.3s-1.1-0.3-1.6-0.5-1-0.4-1.4-0.7-0.8-0.6-1-1c-0.3 0.4-0.7 0.7-1.1 0.9-0.4 0.3-0.9 0.5-1.4 0.7s-1 0.4-1.6 0.5c-0.5 0.1-1.1 0.2-1.6 0.3l-1.3-1.5c0.7-0.1 1.4-0.3 2.1-0.4s1.2-0.3 1.8-0.5c0.5-0.2 0.9-0.5 1.2-0.7 0.3-0.3 0.6-0.6 0.7-1h-4.7l0.1-1.7zm19.4 8.2c-0.7 0-1.3-0.1-1.8-0.3s-1-0.5-1.4-0.9-0.7-0.8-0.9-1.3-0.3-1.1-0.3-1.7 0.1-1.2 0.3-1.7 0.5-0.9 0.9-1.3 0.9-0.7 1.4-0.9 1.2-0.3 1.8-0.3c0.7 0 1.3 0.1 1.8 0.3s1 0.5 1.4 0.9 0.7 0.8 0.9 1.3 0.3 1.1 0.3 1.7-0.1 1.2-0.3 1.7-0.5 0.9-0.9 1.3-0.9 0.7-1.4 0.9c-0.6 0.2-1.2 0.3-1.8 0.3zm0-6.6c-0.7 0-1.3 0.2-1.7 0.7s-0.6 1-0.6 1.7 0.2 1.3 0.6 1.7c0.4 0.5 1 0.7 1.7 0.7s1.3-0.2 1.7-0.7 0.6-1.1 0.6-1.7c0-0.7-0.2-1.3-0.6-1.7-0.4-0.5-1-0.7-1.7-0.7zm3.3 8c0.8 0 1.6 0.1 2.4 0.2 0.7 0.2 1.3 0.4 1.9 0.7 0.5 0.3 0.9 0.7 1.2 1.1s0.4 0.9 0.4 1.5-0.1 1.1-0.4 1.5-0.7 0.8-1.2 1.1-1.2 0.5-1.9 0.7-1.5 0.2-2.4 0.2-1.6-0.1-2.4-0.2c-0.7-0.1-1.3-0.4-1.8-0.7s-0.9-0.7-1.2-1.1-0.4-0.9-0.4-1.5c0-0.5 0.1-1 0.4-1.5 0.3-0.4 0.7-0.8 1.3-1.1 0.5-0.3 1.2-0.5 1.9-0.7 0.6-0.1 1.4-0.2 2.2-0.2zm0 1.6c-1.1 0-2 0.2-2.6 0.5-0.7 0.3-1 0.8-1 1.3 0 0.6 0.3 1 1 1.4 0.7 0.3 1.6 0.5 2.6 0.5 1.1 0 2-0.2 2.6-0.5 0.7-0.4 1-0.8 1-1.4s-0.3-1-1-1.3c-0.6-0.3-1.5-0.5-2.6-0.5zm5.4-11.6v3.6h2.1v1.8h-2.1v4.7h-2.1v-10.1h2.1z"/>
	<path class="st7" d="m212.9 500.4 47.4-47.4c1.4-1.4 3.7-1.4 5.1 0s1.4 3.7 0 5.1l-47.4 47.4c-1.4 1.4-3.7 1.4-5.1 0s-1.4-3.6 0-5.1z"/>
	<path class="st8" d="m200.6 511c-0.6 0-1.2 0-1.8 0.1-2.7 0.2-5 1.1-6.8 2.8-2 1.9-3.3 4.8-3.3 8.5 0 4.7 2.5 8.2 7.2 8.2 4 0 6.7-3.2 6.7-6.8 0-3.9-2.5-6.2-5.8-6.2-1.9 0-3.3 0.8-4.3 1.8h-0.1c0.5-2.6 2.4-5.1 6.4-5.5 0.7-0.1 1.3-0.1 1.8-0.1v-2.8zm-4.7 16.9c-2.4 0-3.5-2-3.6-4.6 0-0.4 0.1-0.8 0.2-1.1 0.6-1.2 1.8-2 3.1-2 2.1 0 3.3 1.6 3.3 3.8 0 2.3-1.2 3.9-3 3.9z"/>
	<path class="st9" d="m212.9 558.2 47.4-47.4c1.4-1.4 3.7-1.4 5.1 0s1.4 3.7 0 5.1l-47.4 47.4c-1.4 1.4-3.7 1.4-5.1 0s-1.4-3.7 0-5.1z"/>
	<path class="st10" d="m190.5 588.3c0.6 0 1.3 0 2.2-0.1 2.6-0.2 4.9-1.1 6.5-2.6 2-1.9 3.3-4.8 3.3-8.9 0-4.7-2.3-8.1-6.8-8.1-4 0-6.8 3.1-6.8 6.8 0 3.5 2.5 5.9 5.8 5.9 1.8 0 3.2-0.6 4.2-1.7h0.1c-0.4 1.8-1.2 3.3-2.5 4.2-1.1 0.9-2.5 1.4-3.9 1.5-0.7 0.1-1.3 0.1-2 0.1l-0.1 2.9zm5-17c2.3 0 3.3 2.2 3.3 4.8 0 0.5-0.1 0.8-0.2 1.1-0.6 0.9-1.6 1.6-3.1 1.6-2 0-3.1-1.5-3.1-3.5 0-2.4 1.3-4 3.1-4z"/>
	<path class="st1" d="m212.9 615.9 47.4-47.4c1.4-1.4 3.7-1.4 5.1 0s1.4 3.7 0 5.1l-47.3 47.4c-1.4 1.4-3.7 1.4-5.1 0-1.5-1.4-1.5-3.7-0.1-5.1z"/>
	<path class="st2" d="m201.9 624.3h-9.9l-1.2 9.6c0.7-0.1 1.5-0.2 2.6-0.2 3.8 0 5.4 1.4 5.4 3.6 0 2.3-2 3.5-4.1 3.5-1.7 0-3.4-0.6-4.2-1l-0.7 2.7c1 0.6 2.8 1.1 5.1 1.1 4.7 0 7.7-3 7.7-6.6 0-2.3-1.1-3.9-2.5-4.8-1.3-0.8-3-1.2-4.6-1.2-0.6 0-0.9 0-1.3 0.1l0.6-3.8h7.3l-0.2-3z"/>
	<path class="st11" d="m212.9 731.3 47.4-47.4c1.4-1.4 3.7-1.4 5.1 0s1.4 3.7 0 5.1l-47.4 47.4c-1.4 1.4-3.7 1.4-5.1 0s-1.4-3.7 0-5.1z"/>
	<path class="st12" d="m195.8 757.4h3.5v-19h-3l-4.7 2.3 0.6 2.7 3.5-1.8h0.1v15.8z"/>
	<path class="st13" d="m212.9 789.1 47.4-47.4c1.4-1.4 3.7-1.4 5.1 0s1.4 3.7 0 5.1l-47.4 47.4c-1.4 1.4-3.7 1.4-5.1 0s-1.4-3.7 0-5.1z"/>
	<path class="st14" d="m189.3 799.9v3h9v0.1l-8 16h3.8l8.1-16.7v-2.3h-12.9z"/>
	<path class="st15" d="m212.9 1193.1 47.4-47.4c1.4-1.4 3.7-1.4 5.1 0s1.4 3.7 0 5.1l-47.4 47.4c-1.4 1.4-3.7 1.4-5.1 0s-1.4-3.7 0-5.1z"/>
	<path class="st16" d="m384.1 1235.6v2.3c0 0.6 0.1 1.1 0.3 1.6s0.5 1 0.9 1.5 0.8 0.9 1.3 1.2c0.5 0.4 1 0.6 1.6 0.8l-1.3 1.6c-0.8-0.4-1.6-0.9-2.3-1.5s-1.2-1.2-1.6-1.8c-0.1 0.3-0.3 0.7-0.5 1s-0.5 0.7-0.9 1c-0.3 0.3-0.7 0.6-1.1 1-0.4 0.3-0.8 0.6-1.3 0.8l-1.7-1.4c1.4-0.7 2.4-1.5 3.2-2.5s1.1-2.1 1.2-3.3v-2.3h2.2zm7.9-0.4v12.3h-2.1v-12.3h2.1zm-10.7 16.4c-0.2 0-0.3 0-0.4-0.1s-0.1-0.2-0.1-0.4v-4.9h2.1v3.6h9.4v1.8h-11zm24.2-11.1v-1.7h-7.5v1.7h7.5zm-9.6 1.2v-6.4h2.1v1.8h7.5v-1.8h2.1v6.4c0 0.2 0 0.3-0.1 0.4s-0.2 0.1-0.4 0.1h-10.7c-0.2 0-0.3 0-0.4-0.1-0.1 0-0.1-0.2-0.1-0.4zm13.5 3.7h-6.4v3.2h-2.2v-3.2h-6.8v-1.8h15.4v1.8zm-12.9 6.2c-0.2 0-0.3 0-0.4-0.1s-0.1-0.2-0.1-0.4v-4.5h2.1v3.3h10v1.8l-11.6-0.1zm21.8-6.4c0.8 0 1.6 0.1 2.4 0.2 0.7 0.2 1.3 0.4 1.9 0.7 0.5 0.3 0.9 0.7 1.2 1.1s0.4 0.9 0.4 1.5-0.1 1.1-0.4 1.5-0.7 0.8-1.2 1.1-1.2 0.5-1.9 0.7-1.5 0.2-2.4 0.2-1.6-0.1-2.4-0.2c-0.7-0.1-1.3-0.4-1.8-0.7s-0.9-0.7-1.2-1.1-0.4-0.9-0.4-1.5c0-0.5 0.1-1 0.4-1.5 0.3-0.4 0.7-0.8 1.3-1.1 0.5-0.3 1.2-0.5 1.9-0.7 0.6-0.1 1.4-0.2 2.2-0.2zm0 1.7c-1.1 0-2 0.2-2.6 0.5-0.7 0.3-1 0.8-1 1.3 0 0.6 0.3 1 1 1.4 0.7 0.3 1.6 0.5 2.6 0.5 1.1 0 2-0.2 2.6-0.5 0.7-0.4 1-0.8 1-1.4s-0.3-1-1-1.3c-0.6-0.4-1.5-0.5-2.6-0.5zm-6.5-3.5c-0.2 0-0.3 0-0.4-0.1s-0.1-0.2-0.1-0.4v-6.5c0-0.2 0-0.3 0.1-0.4s0.2-0.1 0.4-0.1h7.4v1.8h-5.9v4h2.3 1.2c0.5 0 1-0.1 1.5-0.1 0.5-0.1 1-0.1 1.5-0.2s0.9-0.1 1.2-0.2v1.7c-0.3 0.1-0.6 0.1-1.1 0.2s-1 0.1-1.5 0.2c-0.6 0.1-1.1 0.1-1.8 0.2-0.6 0-1.2 0.1-1.8 0.1h-0.7-2.3v-0.2zm10 1.7v-9.8h2.1v3.2h2.2v1.8h-2.2v4.9h-2.1z"/>
	<path class="st11" d="m590 446.2 47.4-47.4c1.4-1.4 3.7-1.4 5.1 0s1.4 3.7 0 5.1l-47.4 47.4c-1.4 1.4-3.7 1.4-5.1 0s-1.4-3.7 0-5.1z"/>
	<path class="st17" d="m590 456.4 21.1-21.1c1.4-1.4 3.7-1.4 5.1 0s1.4 3.7 0 5.1l-21.1 21.1c-1.4 1.4-3.7 1.4-5.1 0s-1.4-3.7 0-5.1z"/>
	<path class="st18" d="m525.7 457.7c-1.9 0-3.4-0.4-4.5-1.1s-1.6-1.7-1.6-2.9c0-0.6 0.1-1.1 0.4-1.6s0.7-0.9 1.2-1.2 1.2-0.6 1.9-0.8c0.8-0.2 1.6-0.3 2.6-0.3 0.9 0 1.8 0.1 2.6 0.3s1.4 0.5 1.9 0.8 0.9 0.8 1.2 1.2c0.3 0.5 0.4 1 0.4 1.6 0 1.2-0.5 2.1-1.6 2.9-1.1 0.7-2.6 1.1-4.5 1.1zm0-6c-1.1 0-2.1 0.2-2.8 0.6s-1 0.9-1 1.6 0.4 1.2 1.1 1.6 1.6 0.6 2.8 0.6c1.1 0 2-0.2 2.7-0.6s1.1-0.9 1.1-1.6-0.4-1.2-1.1-1.6c-0.7-0.5-1.6-0.6-2.8-0.6zm7.7 9.2h-6.6v5.6h-2.2v-5.6h-6.6v-1.8h15.4v1.8zm3.8-4.3c0 0.6 0 1.2 0.1 1.8 0.1 0.5 0.2 1 0.4 1.4s0.4 0.7 0.7 1c0.3 0.2 0.6 0.3 1 0.3s0.7-0.1 1-0.3 0.5-0.6 0.7-0.9c0.2-0.4 0.3-0.9 0.4-1.4 0.1-0.6 0.2-1.2 0.2-1.8s-0.1-1.2-0.2-1.8-0.2-1-0.4-1.4-0.4-0.7-0.7-0.9-0.6-0.4-1-0.4-0.7 0.1-1 0.4c-0.3 0.2-0.5 0.5-0.7 0.9s-0.3 0.9-0.4 1.4-0.1 1.1-0.1 1.7zm6.6 0c0 2.2-0.4 3.8-1.2 4.9-0.8 1-1.8 1.5-3.1 1.5s-2.3-0.5-3.1-1.5-1.2-2.7-1.2-4.9 0.4-3.8 1.2-4.9c0.8-1 1.8-1.5 3.1-1.5s2.3 0.5 3.1 1.5c0.8 1.1 1.2 2.7 1.2 4.9zm2.5 9.9v-16.7h2.1v16.7h-2.1zm10.6-16.4v2.3c0 0.6 0.1 1.1 0.3 1.6s0.5 1 0.9 1.5 0.8 0.9 1.3 1.2c0.5 0.4 1 0.6 1.6 0.8l-1.3 1.6c-0.8-0.4-1.6-0.9-2.3-1.5s-1.2-1.2-1.6-1.9c-0.1 0.3-0.3 0.7-0.5 1s-0.5 0.7-0.9 1c-0.3 0.3-0.7 0.6-1.1 1-0.4 0.3-0.8 0.6-1.3 0.8l-1.7-1.4c1.4-0.7 2.4-1.5 3.2-2.5s1.1-2.1 1.2-3.3v-2.3l2.2 0.1zm7.9-0.3v12.3h-2.1v-12.3h2.1zm-10.7 16.4c-0.2 0-0.3 0-0.4-0.1s-0.1-0.2-0.1-0.4v-4.9h2.1v3.6h9.4v1.8h-11zm12.5-9.2c1.3-0.6 2.3-1.3 3.1-2.2s1.2-2 1.2-3.1v-1.6h2.2v1.5c0 0.5 0.1 1 0.3 1.5s0.5 0.9 0.9 1.4c0.4 0.4 0.8 0.8 1.3 1.1s1 0.6 1.6 0.8l-1.3 1.5c-0.8-0.4-1.6-0.8-2.2-1.4-0.7-0.5-1.2-1.1-1.6-1.8-0.4 0.7-0.9 1.4-1.5 2s-1.4 1.1-2.3 1.6l-1.7-1.3zm9-4.8h3.4v-2.4h2.1v8.8h-2.1v-4.6h-3.4v-1.8zm-5.3 14.2c-0.2 0-0.3 0-0.4-0.1s-0.1-0.2-0.1-0.4v-3.3c0-0.2 0-0.3 0.1-0.4s0.2-0.1 0.4-0.1h8.5v-1.2h-9v-1.6h10.7c0.2 0 0.3 0 0.4 0.1s0.1 0.2 0.1 0.4v3.3c0 0.2 0 0.3-0.1 0.4s-0.2 0.1-0.4 0.1h-8.4v1.2h9.3v1.6h-11.1z"/>
	<path class="st12" d="m575.2 443.6h3.5v-19h-3l-4.7 2.3 0.6 2.7 3.5-1.8h0.1v15.8z"/>
	<path class="st19" d="m437.3 1130.5 47.4-47.4c1.4-1.4 3.7-1.4 5.1 0s1.4 3.7 0 5.1l-47.4 47.4c-1.4 1.4-3.7 1.4-5.1 0s-1.4-3.7 0-5.1z"/>
	<path class="st9" d="m437.3 1017.6 47.4-47.4c1.4-1.4 3.7-1.4 5.1 0s1.4 3.7 0 5.1l-47.4 47.4c-1.4 1.4-3.7 1.4-5.1 0s-1.4-3.7 0-5.1z"/>
	<path class="st10" d="m414.9 1047.8c0.6 0 1.3 0 2.2-0.1 2.6-0.2 4.9-1.1 6.5-2.6 2-1.9 3.3-4.8 3.3-8.9 0-4.7-2.3-8.1-6.8-8.1-4 0-6.9 3.1-6.9 6.8 0 3.5 2.5 5.9 5.8 5.9 1.8 0 3.2-0.6 4.2-1.7h0.1c-0.4 1.8-1.2 3.3-2.5 4.2-1.1 0.9-2.5 1.4-3.9 1.5-0.7 0.1-1.3 0.1-2 0.1v2.9zm5-17c2.3 0 3.3 2.2 3.3 4.8 0 0.5-0.1 0.8-0.2 1.1-0.6 0.9-1.6 1.6-3.1 1.6-2 0-3.1-1.5-3.1-3.5 0-2.4 1.2-4 3.1-4z"/>
	<path class="st20" d="m437.3 904.7 47.4-47.4c1.4-1.4 3.7-1.4 5.1 0s1.4 3.7 0 5.1l-47.4 47.4c-1.4 1.4-3.7 1.4-5.1 0s-1.4-3.6 0-5.1z"/>
	<path class="st21" d="m416.7 924.8c-2.2 1-3.6 2.6-3.6 4.9 0 2.7 2.3 5.2 6.8 5.2 4.1 0 6.9-2.3 6.9-5.7 0-2.4-1.5-4-3.6-4.8v-0.1c2.1-1 2.9-2.7 2.9-4.3 0-2.3-1.8-4.8-6-4.8-3.6 0-6.4 2.1-6.4 5.2 0.1 1.7 1 3.3 3 4.4zm3.3 7.6c-2 0-3.3-1.5-3.2-3.1 0-1.5 1-2.8 2.8-3.3 2.1 0.6 3.5 1.6 3.5 3.6 0.1 1.6-1.2 2.8-3.1 2.8zm0-14.7c1.9 0 2.7 1.4 2.7 2.7 0 1.4-1.1 2.5-2.4 2.9-1.8-0.5-3.1-1.4-3.1-3 0.1-1.4 1-2.6 2.8-2.6z"/>
	<path class="st13" d="m437.3 679 47.4-47.4c1.4-1.4 3.7-1.4 5.1 0s1.4 3.7 0 5.1l-47.4 47.4c-1.4 1.4-3.7 1.4-5.1 0s-1.4-3.7 0-5.1z"/>
	<path class="st1" d="m437.3 440.7 47.4-47.4c1.4-1.4 3.7-1.4 5.1 0s1.4 3.7 0 5.1l-47.4 47.4c-1.4 1.4-3.7 1.4-5.1 0s-1.4-3.7 0-5.1z"/>
	<path class="st5" d="m437.3 450.9 47.4-47.4c1.4-1.4 3.7-1.4 5.1 0s1.4 3.7 0 5.1l-47.4 47.4c-1.4 1.4-3.7 1.4-5.1 0s-1.4-3.6 0-5.1z"/>
	<path class="st19" d="m437.3 461.2 47.4-47.4c1.4-1.4 3.7-1.4 5.1 0s1.4 3.7 0 5.1l-47.4 47.4c-1.4 1.4-3.7 1.4-5.1 0s-1.4-3.7 0-5.1z"/>
	<path class="st7" d="m437.3 340.4 47.4-47.4c1.4-1.4 3.7-1.4 5.1 0s1.4 3.7 0 5.1l-47.4 47.4c-1.4 1.4-3.7 1.4-5.1 0s-1.4-3.7 0-5.1z"/>
	<path class="st22" d="m437.3 278.1 47.4-47.4c1.4-1.4 3.7-1.4 5.1 0s1.4 3.7 0 5.1l-47.4 47.4c-1.4 1.4-3.7 1.4-5.1 0s-1.4-3.7 0-5.1z"/>
	<path class="st1" d="m437.3 288.4 47.4-47.4c1.4-1.4 3.7-1.4 5.1 0s1.4 3.7 0 5.1l-47.4 47.4c-1.4 1.4-3.7 1.4-5.1 0s-1.4-3.7 0-5.1z"/>
	<path class="st11" d="m289.5 121 47.4-47.4c1.4-1.4 3.7-1.4 5.1 0s1.4 3.7 0 5.1l-47.4 47.4c-1.4 1.4-3.7 1.4-5.1 0s-1.4-3.6 0-5.1z"/>
	<path class="st23" d="m325.1 99.9c0 5.2-4.2 9.4-9.4 9.4s-9.4-4.2-9.4-9.4 4.2-9.4 9.4-9.4 9.4 4.2 9.4 9.4z"/>
	<path class="st12" d="m272.3 147.2h3.5v-19h-3l-4.7 2.3 0.6 2.7 3.5-1.8h0.1v15.8z"/>
	<path class="st1" d="m212.9 211.8 47.4-47.4c1.4-1.4 3.7-1.4 5.1 0s1.4 3.7 0 5.1l-47.4 47.4c-1.4 1.4-3.7 1.4-5.1 0s-1.4-3.7 0-5.1z"/>
	<path class="st23" d="m248.6 190.7c0 5.2-4.2 9.4-9.4 9.4s-9.4-4.2-9.4-9.4 4.2-9.4 9.4-9.4 9.4 4.2 9.4 9.4z"/>
	<path class="st2" d="m204.8 220.7h-9.9l-1.2 9.6c0.9-0.1 1.7-0.2 2.6-0.2 3.8 0 5.4 1.4 5.4 3.6 0 2.3-2 3.5-4.1 3.5-1.7 0-3.4-0.6-4.2-1l-0.7 2.7c1 0.6 2.8 1.1 5.1 1.1 4.7 0 7.7-3 7.7-6.6 0-2.3-1.1-3.9-2.5-4.8-1.3-0.9-3-1.2-4.6-1.2-0.6 0-0.9 0-1.3 0.1l0.6-3.8h7.3l-0.2-3z"/>
	<path class="st24" d="m437.3 171 47.4-47.4c1.4-1.4 3.7-1.4 5.1 0s1.4 3.7 0 5.1l-47.4 47.4c-1.4 1.4-3.7 1.4-5.1 0s-1.4-3.6 0-5.1z"/>
	<path class="st23" d="m472.9 149.9c0 5.2-4.2 9.4-9.4 9.4s-9.4-4.2-9.4-9.4 4.2-9.4 9.4-9.4 9.4 4.2 9.4 9.4z"/>
	<path class="st25" d="m414.4 196.2c1 0.7 3 1.3 5.3 1.3 4.7 0 7.4-2.6 7.4-5.8 0-2.6-1.9-4.3-4.2-4.7v-0.1c2.3-0.8 3.5-2.5 3.5-4.5 0-2.5-2-4.7-5.9-4.7-2.3 0-4.4 0.7-5.5 1.5l0.8 2.6c0.8-0.5 2.3-1.2 3.9-1.2 2.1 0 3 1.1 3 2.4 0 1.9-2.1 2.6-3.7 2.6h-1.6v2.6h1.6c2.2 0 4.3 1 4.3 3.2 0 1.5-1.1 3-3.8 3-1.8 0-3.6-0.7-4.3-1.2l-0.8 3z"/>
	<path class="st1" d="m437.3 227.5 47.4-47.4c1.4-1.4 3.7-1.4 5.1 0s1.4 3.7 0 5.1l-47.4 47.4c-1.4 1.4-3.7 1.4-5.1 0s-1.4-3.7 0-5.1z"/>
	<path class="st23" d="m472.9 206.4c0 5.2-4.2 9.4-9.4 9.4s-9.4-4.2-9.4-9.4 4.2-9.4 9.4-9.4 9.4 4.2 9.4 9.4z"/>
	<path class="st2" d="m426.3 235.9h-9.9l-1.2 9.6c0.9-0.1 1.7-0.2 2.6-0.2 3.8 0 5.4 1.4 5.4 3.6 0 2.3-2 3.5-4.1 3.5-1.7 0-3.4-0.6-4.2-1l-0.7 2.7c1 0.6 2.8 1.1 5.1 1.1 4.7 0 7.7-3 7.7-6.6 0-2.3-1.1-3.9-2.5-4.8-1.3-0.8-3-1.2-4.6-1.2-0.6 0-0.9 0-1.3 0.1l0.6-3.8h7.3v-3z"/>
	<path class="st23" d="m472.9 262.8c0 5.2-4.2 9.4-9.4 9.4s-9.4-4.2-9.4-9.4 4.2-9.4 9.4-9.4 9.4 4.2 9.4 9.4zm0 56.4c0 5.2-4.2 9.4-9.4 9.4s-9.4-4.2-9.4-9.4 4.2-9.4 9.4-9.4c5.2 0.1 9.4 4.3 9.4 9.4zm0 112.9c0 5.2-4.2 9.4-9.4 9.4s-9.4-4.2-9.4-9.4 4.2-9.4 9.4-9.4 9.4 4.2 9.4 9.4zm0 169.3c0 5.2-4.2 9.4-9.4 9.4s-9.4-4.2-9.4-9.4 4.2-9.4 9.4-9.4c5.2 0.1 9.4 4.3 9.4 9.4zm0 56.5c0 5.2-4.2 9.4-9.4 9.4s-9.4-4.2-9.4-9.4 4.2-9.4 9.4-9.4 9.4 4.2 9.4 9.4zm0 225.7c0 5.2-4.2 9.4-9.4 9.4s-9.4-4.2-9.4-9.4 4.2-9.4 9.4-9.4 9.4 4.2 9.4 9.4zm0 112.9c0 5.2-4.2 9.4-9.4 9.4s-9.4-4.2-9.4-9.4 4.2-9.4 9.4-9.4 9.4 4.2 9.4 9.4zm0 112.9c0 5.2-4.2 9.4-9.4 9.4s-9.4-4.2-9.4-9.4 4.2-9.4 9.4-9.4 9.4 4.2 9.4 9.4z"/>
	<path class="st2" d="m425 293.1h-9.9l-1.2 9.6c0.9-0.1 1.7-0.2 2.6-0.2 3.8 0 5.4 1.4 5.4 3.6 0 2.3-2 3.5-4.1 3.5-1.7 0-3.4-0.6-4.2-1l-0.7 2.7c1 0.6 2.8 1.1 5.1 1.1 4.7 0 7.7-3 7.7-6.6 0-2.3-1.1-3.9-2.5-4.8-1.3-0.9-3-1.2-4.6-1.2-0.6 0-0.9 0-1.3 0.1l0.6-3.8h7.3v-3z"/>
	<path class="st26" d="m424.5 287.2v-4.8h2.5v-2.7h-2.5v-11.5h-4.2l-7.8 11.9v2.3h8.6v4.8h3.4zm-8.6-7.6 3.5-5.3c0.6-1.1 1.1-2 1.7-3.2h0.1c-0.1 1.1-0.1 2.2-0.1 3.3v5.2h-5.2z"/>
	<path class="st8" d="m425 350.9c-0.6 0-1.2 0-1.8 0.1-2.7 0.2-5 1.1-6.8 2.8-2 1.9-3.3 4.8-3.3 8.5 0 4.7 2.5 8.2 7.2 8.2 4 0 6.7-3.2 6.7-6.8 0-3.9-2.5-6.2-5.8-6.2-1.9 0-3.3 0.8-4.3 1.8h-0.1c0.5-2.6 2.4-5.1 6.4-5.5 0.7-0.1 1.3-0.1 1.8-0.1v-2.8zm-4.7 16.9c-2.4 0-3.5-2-3.6-4.6 0-0.4 0.1-0.8 0.2-1.1 0.6-1.2 1.8-1.9 3.1-2 2.1 0 3.3 1.5 3.3 3.8s-1.2 3.9-3 3.9z"/>
	<path class="st2" d="m424.8 424.3h-9.9l-1.2 9.6c0.7-0.1 1.5-0.2 2.6-0.2 3.8 0 5.4 1.4 5.4 3.6 0 2.3-2 3.5-4.1 3.5-1.7 0-3.4-0.6-4.2-1l-0.7 2.7c1 0.6 2.8 1.1 5.1 1.1 4.7 0 7.7-3 7.7-6.6 0-2.3-1.1-3.9-2.5-4.8-1.3-0.9-3-1.2-4.6-1.2-0.6 0-0.9 0-1.3 0.1l0.6-3.8h7.3v-3z"/>
	<path class="st6" d="m371.2 459c0.8 0 1.6 0.1 2.4 0.2 0.7 0.2 1.4 0.4 1.9 0.7s0.9 0.7 1.2 1.1 0.5 0.9 0.5 1.5-0.2 1.1-0.5 1.5-0.7 0.8-1.2 1.1-1.2 0.5-1.9 0.7-1.5 0.2-2.4 0.2-1.7-0.1-2.4-0.2-1.3-0.4-1.9-0.7c-0.5-0.3-1-0.7-1.3-1.1s-0.4-0.9-0.4-1.5c0-0.5 0.1-1 0.4-1.5 0.3-0.4 0.7-0.8 1.3-1.1 0.5-0.3 1.2-0.5 1.9-0.7 0.8-0.2 1.6-0.2 2.4-0.2zm0 1.6c-1.1 0-2 0.2-2.7 0.5s-1 0.8-1 1.3c0 0.6 0.3 1 1 1.4 0.7 0.3 1.6 0.5 2.7 0.5s2-0.2 2.6-0.5c0.7-0.4 1-0.8 1-1.4s-0.3-1-1-1.3c-0.6-0.3-1.5-0.5-2.6-0.5zm0.1-10.9c0.2 0 0.3 0 0.4 0.1s0.1 0.2 0.1 0.4c-0.2 1.9-0.9 3.7-2.1 5.2s-3 2.6-5.4 3.4l-1.3-1.5c1.8-0.5 3.3-1.3 4.3-2.2 1.1-1 1.8-2.2 2.1-3.5h-5.4v-1.8h7.3zm3.5 9.2v-2.3h-3.2v-1.7h3.2v-2h-2.8v-1.7h2.8v-2.2h2.1v10l-2.1-0.1zm10-0.9c-0.7 0-1.3-0.1-1.8-0.3s-1-0.5-1.4-0.9-0.7-0.8-0.9-1.4c-0.2-0.5-0.3-1.1-0.3-1.7s0.1-1.2 0.3-1.7 0.5-1 0.9-1.4 0.9-0.7 1.4-0.9 1.2-0.3 1.8-0.3c0.7 0 1.3 0.1 1.8 0.3s1 0.5 1.4 0.9 0.7 0.8 0.9 1.4c0.2 0.5 0.3 1.1 0.3 1.7s-0.1 1.2-0.3 1.7-0.5 1-0.9 1.4-0.9 0.7-1.4 0.9c-0.6 0.2-1.2 0.3-1.8 0.3zm0-6.7c-0.7 0-1.3 0.2-1.7 0.7s-0.6 1.1-0.6 1.8 0.2 1.3 0.6 1.8 1 0.7 1.7 0.7 1.3-0.2 1.7-0.7 0.6-1.1 0.6-1.8-0.2-1.3-0.6-1.8-1-0.7-1.7-0.7zm-5.3 9.2 5.1-0.1h1.2c0.5 0 1.1-0.1 1.6-0.1 0.6-0.1 1.2-0.1 1.8-0.2s1.1-0.2 1.6-0.2v1.7c-1.2 0.3-2.5 0.5-4.2 0.6-1.6 0.1-3.3 0.2-5.2 0.2h-1.9v-1.9zm13.8-11.5v16.7h-2.1v-16.7h2.1zm10.7 10.6c1.7 0.1 2.9 0.5 3.8 1 0.9 0.6 1.3 1.3 1.3 2.2 0 1-0.5 1.8-1.6 2.4s-2.6 0.9-4.6 0.9-3.6-0.3-4.6-0.9-1.6-1.4-1.6-2.4c0-0.9 0.4-1.6 1.3-2.2s2.1-0.9 3.8-1v-1.6h-6.5v-1.8h15.4v1.8h-6.7v1.6zm-1.1 1.6c-1.2 0-2.1 0.1-2.8 0.4s-1 0.7-1 1.2c0 0.6 0.3 1 1 1.2 0.7 0.3 1.6 0.4 2.8 0.4s2.1-0.1 2.8-0.4c0.7-0.2 1-0.7 1-1.2s-0.3-0.9-1-1.2-1.6-0.4-2.8-0.4zm-5.9-11.8h11.8v1.8h-4.7c0.1 0.4 0.4 0.8 0.7 1.1 0.4 0.3 0.8 0.5 1.4 0.7 0.5 0.2 1.1 0.4 1.7 0.5s1.3 0.2 1.9 0.3l-1.3 1.5c-0.5-0.1-1.1-0.2-1.7-0.3s-1.1-0.3-1.6-0.5-1-0.4-1.4-0.7-0.8-0.6-1-1c-0.3 0.4-0.7 0.7-1.1 0.9-0.4 0.3-0.9 0.5-1.4 0.7s-1 0.4-1.6 0.5c-0.5 0.1-1.1 0.2-1.6 0.3l-1.3-1.5c0.7-0.1 1.4-0.3 2.1-0.4s1.2-0.3 1.8-0.5c0.5-0.2 0.9-0.5 1.3-0.7 0.3-0.3 0.6-0.6 0.7-1h-4.7v-1.7zm19.3 8.2c-0.7 0-1.3-0.1-1.8-0.3s-1-0.5-1.4-0.9-0.7-0.8-0.9-1.3-0.3-1.1-0.3-1.7 0.1-1.2 0.3-1.7 0.5-0.9 0.9-1.3 0.9-0.7 1.4-0.9 1.2-0.3 1.8-0.3c0.7 0 1.3 0.1 1.8 0.3s1 0.5 1.4 0.9 0.7 0.8 0.9 1.3 0.3 1.1 0.3 1.7-0.1 1.2-0.3 1.7-0.5 0.9-0.9 1.3-0.9 0.7-1.4 0.9-1.1 0.3-1.8 0.3zm0-6.6c-0.7 0-1.3 0.2-1.7 0.7s-0.6 1-0.6 1.7 0.2 1.3 0.6 1.7c0.4 0.5 1 0.7 1.7 0.7s1.3-0.2 1.7-0.7 0.6-1.1 0.6-1.7c0-0.7-0.2-1.3-0.6-1.7-0.4-0.5-0.9-0.7-1.7-0.7zm3.4 8c0.8 0 1.6 0.1 2.4 0.2 0.7 0.2 1.4 0.4 1.9 0.7s0.9 0.7 1.2 1.1 0.4 0.9 0.4 1.5-0.1 1.1-0.4 1.5-0.7 0.8-1.2 1.1-1.2 0.5-1.9 0.7-1.5 0.2-2.4 0.2-1.6-0.1-2.4-0.2c-0.7-0.1-1.3-0.4-1.9-0.7-0.5-0.3-0.9-0.7-1.2-1.1s-0.4-0.9-0.4-1.5c0-0.5 0.1-1 0.4-1.5 0.3-0.4 0.7-0.8 1.2-1.1s1.2-0.5 1.9-0.7c0.8-0.2 1.5-0.2 2.4-0.2zm0 1.6c-1.1 0-2 0.2-2.6 0.5-0.7 0.3-1 0.8-1 1.3 0 0.6 0.3 1 1 1.4 0.7 0.3 1.6 0.5 2.6 0.5 1.1 0 2-0.2 2.6-0.5 0.7-0.4 1-0.8 1-1.4s-0.3-1-1-1.3c-0.6-0.3-1.5-0.5-2.6-0.5zm5.4-11.6v3.6h2.1v1.8h-2.1v4.7h-2.1v-10.1h2.1z"/>
	<path class="st27" d="m375.1 477.3c-1.5-0.4-2.7-0.9-3.7-1.5-0.9-0.5-1.6-1.2-2.1-2-0.5 0.8-1.2 1.5-2.2 2.1-0.9 0.6-2.1 1.1-3.5 1.4l-1.4-1.5c0.9-0.2 1.7-0.5 2.4-0.7 0.7-0.3 1.4-0.6 1.9-1s0.9-0.8 1.2-1.3 0.5-1 0.5-1.7v-0.9h2.3v0.8c0 1.2 0.5 2.1 1.6 2.9s2.5 1.4 4.3 1.8l-1.3 1.6zm2 3.5h-6.6v5.9h-2.1v-5.9h-6.7v-1.8h15.4v1.8zm5.8-1.7c-0.7 0-1.3-0.1-1.9-0.4-0.5-0.2-1-0.6-1.4-1s-0.7-0.9-0.9-1.4-0.3-1.1-0.3-1.7 0.1-1.2 0.3-1.7 0.5-1 0.9-1.4 0.9-0.7 1.4-1c0.5-0.2 1.2-0.4 1.9-0.4s1.3 0.1 1.9 0.4c0.6 0.2 1 0.6 1.4 1s0.7 0.9 0.9 1.4 0.3 1.1 0.3 1.7-0.1 1.2-0.3 1.7-0.5 1-0.9 1.4-0.9 0.7-1.4 1c-0.6 0.3-1.2 0.4-1.9 0.4zm0-7.1c-0.8 0-1.3 0.3-1.8 0.8-0.4 0.5-0.6 1.1-0.6 1.9 0 0.7 0.2 1.4 0.6 1.9s1 0.8 1.7 0.8 1.3-0.3 1.7-0.8 0.6-1.2 0.6-1.9-0.2-1.4-0.6-1.9c-0.2-0.6-0.8-0.8-1.6-0.8zm9.2-2v12.3h-2.1v-12.3h2.1zm-10.7 16.3c-0.2 0-0.3 0-0.4-0.1s-0.1-0.2-0.1-0.4v-5.1h2.1v3.8h9.5v1.8h-11.1zm24.2-11.1v-1.7h-7.5v1.7h7.5zm-9.5 1.2v-6.4h2.1v1.8h7.5v-1.8h2.1v6.4c0 0.2 0 0.3-0.1 0.4s-0.2 0.1-0.4 0.1h-10.7c-0.2 0-0.3 0-0.4-0.1-0.1 0-0.1-0.2-0.1-0.4zm13.5 3.7h-6.4v3.2h-2.2v-3.2h-6.9v-1.8h15.4v1.8zm-12.9 6.2c-0.2 0-0.3 0-0.4-0.1s-0.1-0.2-0.1-0.4v-4.5h2.1v3.3h10v1.8l-11.6-0.1zm21.8-6.4c0.8 0 1.6 0.1 2.4 0.2 0.7 0.2 1.4 0.4 1.9 0.7s0.9 0.7 1.2 1.1 0.4 0.9 0.4 1.5-0.1 1.1-0.4 1.5-0.7 0.8-1.2 1.1-1.2 0.5-1.9 0.7-1.5 0.2-2.4 0.2-1.6-0.1-2.4-0.2c-0.7-0.2-1.3-0.4-1.8-0.7s-0.9-0.7-1.2-1.1-0.4-0.9-0.4-1.5c0-0.5 0.1-1 0.4-1.5 0.3-0.4 0.7-0.8 1.2-1.1s1.2-0.5 1.9-0.7c0.7-0.1 1.5-0.2 2.3-0.2zm0 1.7c-1.1 0-2 0.2-2.6 0.5-0.7 0.3-1 0.8-1 1.3 0 0.6 0.3 1 1 1.4 0.7 0.3 1.6 0.5 2.6 0.5 1.1 0 2-0.2 2.6-0.5 0.7-0.4 1-0.8 1-1.4s-0.3-1-1-1.3c-0.6-0.4-1.5-0.5-2.6-0.5zm-6.5-3.4c-0.2 0-0.3 0-0.4-0.1s-0.1-0.2-0.1-0.4v-6.5c0-0.2 0-0.3 0.1-0.4s0.2-0.1 0.4-0.1h7.4v1.8h-5.9v4h2.3 1.2c0.5 0 1-0.1 1.5-0.1 0.5-0.1 1-0.1 1.5-0.2s0.9-0.2 1.2-0.2v1.7c-0.3 0.1-0.6 0.1-1.1 0.2s-1 0.1-1.5 0.2c-0.6 0.1-1.1 0.1-1.8 0.2-0.6 0-1.2 0.1-1.8 0.1h-0.7l-2.3-0.2zm10 1.6v-9.8h2.1v3.2h2.2v1.8h-2.2v4.9h-2.1z"/>
	<path class="st28" d="m633.9 377.9c0 9.5-7.7 17.1-17.1 17.1s-17.1-7.7-17.1-17.1c0-9.5 7.7-17.1 17.1-17.1 9.4-0.1 17.1 7.6 17.1 17.1z"/>
	<path class="st14" d="m413.7 689.8v3h9v0.1l-8 16h3.8l8.1-16.7v-2.3l-12.9-0.1z"/>
	<path class="st27" d="m377.3 1148.9c-1.5-0.4-2.7-0.9-3.7-1.5-0.9-0.5-1.6-1.2-2.1-2-0.5 0.8-1.2 1.5-2.2 2.1-0.9 0.6-2.1 1.1-3.5 1.4l-1.4-1.5c0.9-0.2 1.7-0.5 2.4-0.7 0.7-0.3 1.4-0.6 1.9-1s0.9-0.8 1.2-1.3 0.5-1 0.5-1.7v-0.9h2.3v0.8c0 1.2 0.5 2.1 1.6 2.9s2.5 1.4 4.3 1.8l-1.3 1.6zm1.9 3.5h-6.6v5.9h-2.1v-5.9h-6.7v-1.8h15.4v1.8zm5.9-1.7c-0.7 0-1.3-0.1-1.9-0.4-0.5-0.2-1-0.6-1.4-1s-0.7-0.9-0.9-1.4-0.3-1.1-0.3-1.7 0.1-1.2 0.3-1.7 0.5-1 0.9-1.4 0.9-0.7 1.4-1c0.5-0.2 1.2-0.4 1.9-0.4s1.3 0.1 1.9 0.4c0.6 0.2 1 0.6 1.4 1s0.7 0.9 0.9 1.4 0.3 1.1 0.3 1.7-0.1 1.2-0.3 1.7-0.5 1-0.9 1.4-0.9 0.7-1.4 1c-0.6 0.3-1.2 0.4-1.9 0.4zm0-7.1c-0.8 0-1.3 0.3-1.8 0.8-0.4 0.5-0.6 1.1-0.6 1.9 0 0.7 0.2 1.4 0.6 1.9s1 0.8 1.7 0.8 1.3-0.3 1.7-0.8 0.6-1.2 0.6-1.9-0.2-1.4-0.6-1.9c-0.3-0.6-0.8-0.8-1.6-0.8zm9.2-2.1v12.3h-2.1v-12.3h2.1zm-10.8 16.4c-0.2 0-0.3 0-0.4-0.1s-0.1-0.2-0.1-0.4v-5.1h2.1v3.8h9.5v1.8h-11.1zm24.3-11.1v-1.7h-7.5v1.7h7.5zm-9.6 1.2v-6.4h2.1v1.8h7.5v-1.8h2.1v6.4c0 0.2 0 0.3-0.1 0.4s-0.2 0.1-0.4 0.1h-10.7c-0.2 0-0.3 0-0.4-0.1 0 0-0.1-0.2-0.1-0.4zm13.6 3.7h-6.4v3.2h-2.2v-3.2h-6.9v-1.8h15.4v1.8zm-13 6.2c-0.2 0-0.3 0-0.4-0.1s-0.1-0.2-0.1-0.4v-4.5h2.1v3.3h10v1.8l-11.6-0.1zm21.9-6.4c0.8 0 1.6 0.1 2.4 0.2 0.7 0.2 1.4 0.4 1.9 0.7s0.9 0.7 1.2 1.1 0.4 0.9 0.4 1.5-0.1 1.1-0.4 1.5-0.7 0.8-1.2 1.1-1.2 0.5-1.9 0.7-1.5 0.2-2.4 0.2-1.6-0.1-2.4-0.2c-0.7-0.2-1.3-0.4-1.9-0.7-0.5-0.3-0.9-0.7-1.2-1.1s-0.4-0.9-0.4-1.5c0-0.5 0.1-1 0.4-1.5 0.3-0.4 0.7-0.8 1.2-1.1s1.2-0.5 1.9-0.7c0.8-0.1 1.5-0.2 2.4-0.2zm0 1.7c-1.1 0-2 0.2-2.6 0.5-0.7 0.3-1 0.8-1 1.3 0 0.6 0.3 1 1 1.4 0.7 0.3 1.6 0.5 2.6 0.5 1.1 0 2-0.2 2.6-0.5 0.7-0.4 1-0.8 1-1.4s-0.3-1-1-1.3c-0.6-0.4-1.5-0.5-2.6-0.5zm-6.5-3.4c-0.2 0-0.3 0-0.4-0.1s-0.1-0.2-0.1-0.4v-6.5c0-0.2 0-0.3 0.1-0.4s0.2-0.1 0.4-0.1h7.4v1.8h-5.9v4h2.3 1.3c0.5 0 1-0.1 1.5-0.1 0.5-0.1 1-0.1 1.5-0.2s0.9-0.2 1.2-0.2v1.7c-0.3 0.1-0.6 0.1-1.1 0.2s-1 0.1-1.5 0.2c-0.6 0.1-1.1 0.1-1.8 0.2-0.6 0-1.2 0.1-1.8 0.1h-0.7l-2.4-0.2zm9.9 1.6v-9.8h2.1v3.2h2.2v1.8h-2.2v4.9h-2.1z"/>
	<path class="st23" d="m625.6 431.8c0 5.2-4.2 9.4-9.4 9.4s-9.4-4.2-9.4-9.4 4.2-9.4 9.4-9.4c5.2 0.1 9.4 4.3 9.4 9.4zm-152.7 790.5c0 5.2-4.2 9.4-9.4 9.4s-9.4-4.2-9.4-9.4 4.2-9.4 9.4-9.4 9.4 4.2 9.4 9.4z"/>
	<path class="st24" d="m378 1337.9 47.4-47.4c1.4-1.4 3.7-1.4 5.1 0s1.4 3.7 0 5.1l-47.4 47.4c-1.4 1.4-3.7 1.4-5.1 0s-1.4-3.6 0-5.1z"/>
	<path class="st23" d="m413.6 1316.8c0 5.2-4.2 9.4-9.4 9.4s-9.4-4.2-9.4-9.4 4.2-9.4 9.4-9.4 9.4 4.2 9.4 9.4z"/>
	<path class="st25" d="m355.1 1363.1c1 0.7 3 1.3 5.3 1.3 4.7 0 7.4-2.5 7.4-5.8 0-2.6-1.9-4.3-4.2-4.7v-0.1c2.3-0.8 3.5-2.5 3.5-4.5 0-2.5-2-4.7-5.9-4.7-2.3 0-4.4 0.7-5.5 1.5l0.8 2.6c0.8-0.5 2.3-1.2 3.9-1.2 2.1 0 3.1 1.1 3.1 2.4 0 1.9-2.1 2.6-3.7 2.6h-1.6v2.6h1.6c2.2 0 4.3 1 4.3 3.2 0 1.5-1.1 3-3.8 3-1.5 0-3-0.4-4.3-1.2l-0.9 3z"/>
	<path class="st23" d="m248.6 1172c0 5.2-4.2 9.4-9.4 9.4s-9.4-4.2-9.4-9.4 4.2-9.4 9.4-9.4 9.4 4.2 9.4 9.4z"/>
	<path class="st29" d="m175.7 968.8v2.3c0 0.6 0.1 1.1 0.3 1.6s0.5 1 0.9 1.5 0.8 0.9 1.3 1.2c0.5 0.4 1 0.6 1.6 0.8l-1.3 1.6c-0.8-0.4-1.6-0.9-2.3-1.5s-1.2-1.2-1.6-1.8c-0.1 0.3-0.3 0.7-0.5 1s-0.5 0.7-0.9 1c-0.3 0.3-0.7 0.6-1.1 0.9s-0.8 0.6-1.2 0.8l-1.7-1.4c1.4-0.7 2.4-1.5 3.2-2.5s1.1-2.1 1.2-3.3v-2.3l2.1 0.1zm7.8-0.4v12.3h-2.1v-12.3h2.1zm-10.6 16.4c-0.2 0-0.3 0-0.4-0.1s-0.1-0.2-0.1-0.4v-4.9h2.1v3.6h9.4v1.8h-11zm14.3-12.4h5.4v-1.7h-6v-1.7h7.5c0.2 0 0.3 0 0.4 0.1s0.1 0.2 0.1 0.4v4c0 0.2 0 0.3-0.1 0.4s-0.2 0.1-0.4 0.1h-5.4v1.8h3.7 1.1c0.4 0 0.8-0.1 1.2-0.1s0.8-0.1 1.1-0.1c0.4-0.1 0.7-0.1 1-0.2v1.7c-0.4 0.1-1.1 0.2-1.9 0.3s-1.7 0.1-2.6 0.2c-0.5 0-1 0-1.6 0.1h-1.7-1.9c-0.2 0-0.3 0-0.4-0.1s-0.1-0.2-0.1-0.4v-4.1c0-0.2 0-0.3 0.1-0.4 0.2-0.2 0.3-0.3 0.5-0.3zm12.5-4v9.8h-2.1v-9.8h2.1zm-2.1 14.8v-2.6h-7.1v2.6h7.1zm-8.7-4.3h10.3c0.2 0 0.3 0 0.4 0.1s0.1 0.2 0.1 0.4v5c0 0.2 0 0.3-0.1 0.4s-0.2 0.1-0.4 0.1h-10.3c-0.2 0-0.3 0-0.4-0.1s-0.1-0.2-0.1-0.4v-5c0-0.2 0-0.3 0.1-0.4s0.2-0.1 0.4-0.1z"/>
	<path class="st29" d="m212.9 962.2 47.4-47.4c1.4-1.4 3.7-1.4 5.1 0s1.4 3.7 0 5.1l-47.4 47.4c-1.4 1.4-3.7 1.4-5.1 0s-1.4-3.7 0-5.1z"/>
	<path class="st30" d="m248.6 941.1c0 5.2-4.2 9.4-9.4 9.4s-9.4-4.2-9.4-9.4 4.2-9.4 9.4-9.4c5.1 0 9.4 4.2 9.4 9.4z"/>
	<path class="st23" d="m248.6 767.9c0 5.2-4.2 9.4-9.4 9.4s-9.4-4.2-9.4-9.4 4.2-9.4 9.4-9.4c5.2 0.1 9.4 4.3 9.4 9.4z"/>
	<path class="st23" d="m248.6 710.2c0 5.2-4.2 9.4-9.4 9.4s-9.4-4.2-9.4-9.4 4.2-9.4 9.4-9.4 9.4 4.2 9.4 9.4z"/>
	<path class="st23" d="m248.6 594.8c0 5.2-4.2 9.4-9.4 9.4s-9.4-4.2-9.4-9.4 4.2-9.4 9.4-9.4 9.4 4.2 9.4 9.4z"/>
	<path class="st23" d="m248.6 537c0 5.2-4.2 9.4-9.4 9.4s-9.4-4.2-9.4-9.4 4.2-9.4 9.4-9.4c5.2 0.1 9.4 4.3 9.4 9.4z"/>
	<path class="st23" d="m248.6 479.3c0 5.2-4.2 9.4-9.4 9.4s-9.4-4.2-9.4-9.4 4.2-9.4 9.4-9.4 9.4 4.2 9.4 9.4z"/>
	<path class="st23" d="m248.6 421.6c0 5.2-4.2 9.4-9.4 9.4s-9.4-4.2-9.4-9.4 4.2-9.4 9.4-9.4 9.4 4.2 9.4 9.4z"/>
	<path class="st26" d="m197.6 1221.6v-4.8h2.5v-2.7h-2.5v-11.5h-4.2l-7.8 11.9v2.3h8.6v4.8h3.4zm-8.5-7.6 3.5-5.3c0.6-1.1 1.1-2 1.7-3.2h0.1c-0.1 1.1-0.1 2.2-0.1 3.3v5.2h-5.2z"/>
	<path class="st31" d="m178.5 461.7v3.2h7.4v1.8h-15.4v-1.8h5.8v-3.2h2.2zm-0.3 6.2c2 0 3.5 0.3 4.6 0.9s1.6 1.5 1.6 2.5-0.5 1.9-1.6 2.5-2.6 0.9-4.6 0.9-3.6-0.3-4.6-0.9-1.6-1.4-1.6-2.5c0-1 0.5-1.9 1.6-2.5 1-0.6 2.6-0.9 4.6-0.9zm0 1.6c-1.2 0-2.1 0.1-2.8 0.4s-1 0.7-1 1.3 0.3 1.1 1 1.4 1.6 0.4 2.8 0.4 2.1-0.1 2.8-0.4 1-0.7 1-1.4c0-0.6-0.3-1-1-1.3-0.7-0.2-1.6-0.4-2.8-0.4zm5.5-11.4c0.2 0 0.3 0 0.4 0.1s0.1 0.2 0.1 0.4c0 0.5-0.1 1.1-0.1 1.7-0.1 0.6-0.1 1.2-0.2 1.7s-0.1 0.9-0.2 1.3l-0.1 0.5h-2.1c0.1-0.7 0.2-1.3 0.3-2 0.1-0.6 0.1-1.3 0.1-2h-10v-1.8h11.8zm5.9-0.5h5.2v1.6h-5.2v-1.6zm-2.2 2.5h9.8v1.6h-9.8v-1.6zm4.8 7.4c-1.4 0-2.5-0.3-3.2-0.8s-1.1-1.1-1.1-1.9c0-0.7 0.4-1.3 1.1-1.8s1.8-0.8 3.2-0.8 2.5 0.3 3.2 0.8c0.8 0.5 1.1 1.1 1.1 1.9 0 0.7-0.4 1.3-1.1 1.9-0.7 0.5-1.8 0.7-3.2 0.7zm0-3.8c-0.7 0-1.2 0.1-1.6 0.3s-0.6 0.5-0.6 0.9 0.2 0.7 0.6 0.9 0.9 0.3 1.6 0.3c0.6 0 1.2-0.1 1.6-0.3s0.6-0.5 0.6-0.9-0.2-0.7-0.6-0.9-0.9-0.3-1.6-0.3zm10.3 0.1h-2v4.4h-2.1v-10.5h2.1v4.3h2v1.8zm-7.5 4.5c1.9 0 3.4 0.3 4.4 0.9s1.5 1.3 1.5 2.3c0 0.9-0.5 1.7-1.5 2.3s-2.5 0.9-4.4 0.9-3.4-0.3-4.4-0.9-1.5-1.3-1.5-2.3c0-0.9 0.5-1.7 1.5-2.3s2.4-0.9 4.4-0.9zm0 1.6c-1.1 0-2 0.1-2.7 0.4s-1 0.7-1 1.2 0.3 0.9 1 1.2 1.6 0.4 2.7 0.4 2-0.1 2.7-0.4 1-0.7 1-1.2-0.3-0.9-1-1.2c-0.7-0.2-1.6-0.4-2.7-0.4z"/>
	<path class="st28" d="m103.1 971.4c0 9.5-7.7 17.1-17.1 17.1s-17.1-7.7-17.1-17.1c0-9.5 7.7-17.1 17.1-17.1 9.5 0 17.1 7.6 17.1 17.1z"/>
	<path class="st32" d="m93.4 982.4v-3.4h-8.9v-0.1l1.9-1.6c3.8-3.5 6.6-6.6 6.6-10.4 0-3.6-2.3-6.6-7.2-6.6-2.7 0-5.1 1-6.7 2.2l1.2 2.9c1.1-0.8 2.7-1.8 4.7-1.8 2.8 0 3.9 1.7 3.9 3.7 0 2.9-2.4 5.5-7.6 10.2l-2.6 2.4v2.5h14.7z"/>
	<path class="st23" d="m95.4 919.5c0 5.2-4.2 9.4-9.4 9.4s-9.4-4.2-9.4-9.4 4.2-9.4 9.4-9.4 9.4 4.2 9.4 9.4z"/>
	<path class="st33" d="m398.5 92.8c-3.9 0-7.1 3.2-7.1 7.1s3.2 7.1 7.1 7.1 7.1-3.2 7.1-7.1-3.1-7.1-7.1-7.1zm-159.3 148.5c-3.9 0-7.1 3.2-7.1 7.1s3.2 7.1 7.1 7.1 7.1-3.2 7.1-7.1-3.2-7.1-7.1-7.1zm0 57.8c-3.9 0-7.1 3.2-7.1 7.1s3.2 7.1 7.1 7.1 7.1-3.2 7.1-7.1-3.2-7.1-7.1-7.1zm0 57.7c-3.9 0-7.1 3.2-7.1 7.1s3.2 7.1 7.1 7.1 7.1-3.2 7.1-7.1-3.2-7.1-7.1-7.1zm224.3 11.8c-3.9 0-7.1 3.2-7.1 7.1s3.2 7.1 7.1 7.1 7.1-3.2 7.1-7.1-3.1-7.1-7.1-7.1zm153.2 112c-3.9 0-7.1 3.2-7.1 7.1s3.2 7.1 7.1 7.1 7.1-3.2 7.1-7.1-3.2-7.1-7.1-7.1zm-153.2 0.9c-3.9 0-7.1 3.2-7.1 7.1s3.2 7.1 7.1 7.1 7.1-3.2 7.1-7.1c0-4-3.1-7.1-7.1-7.1zm153.2 55.8c-3.9 0-7.1 3.2-7.1 7.1s3.2 7.1 7.1 7.1 7.1-3.2 7.1-7.1c0-4-3.2-7.1-7.1-7.1zm-153.2 0.6c-3.9 0-7.1 3.2-7.1 7.1s3.2 7.1 7.1 7.1 7.1-3.2 7.1-7.1-3.1-7.1-7.1-7.1zm103.2 56.4c-3.9 0-7.1 3.2-7.1 7.1s3.2 7.1 7.1 7.1 7.1-3.2 7.1-7.1-3.2-7.1-7.1-7.1zm-327.5 51.1c-3.9 0-7.1 3.2-7.1 7.1s3.2 7.1 7.1 7.1 7.1-3.2 7.1-7.1-3.2-7.1-7.1-7.1zm-96.1 57.7c-3.9 0-7.1 3.2-7.1 7.1s3.2 7.1 7.1 7.1 7.1-3.2 7.1-7.1-3.2-7.1-7.1-7.1zm320.4 4.1c-3.9 0-7.1 3.2-7.1 7.1s3.2 7.1 7.1 7.1 7.1-3.2 7.1-7.1-3.1-7.1-7.1-7.1zm0 56.5c-3.9 0-7.1 3.2-7.1 7.1s3.2 7.1 7.1 7.1 7.1-3.2 7.1-7.1c0-4-3.1-7.1-7.1-7.1zm-377.5 9.1c-3.9 0-7.1 3.2-7.1 7.1s3.2 7.1 7.1 7.1 7.1-3.2 7.1-7.1-3.2-7.1-7.1-7.1zm153.2 45.8c-3.9 0-7.1 3.2-7.1 7.1s3.2 7.1 7.1 7.1 7.1-3.2 7.1-7.1c0-4-3.2-7.1-7.1-7.1zm224.3 1.5c-3.9 0-7.1 3.2-7.1 7.1s3.2 7.1 7.1 7.1 7.1-3.2 7.1-7.1-3.1-7.1-7.1-7.1zm-377.5 20.2c-3.9 0-7.1 3.2-7.1 7.1s3.2 7.1 7.1 7.1 7.1-3.2 7.1-7.1-3.2-7.1-7.1-7.1zm153.2 36c-3.9 0-7.1 3.2-7.1 7.1s3.2 7.1 7.1 7.1 7.1-3.2 7.1-7.1-3.2-7.1-7.1-7.1zm224.3 56.7c-3.9 0-7.1 3.2-7.1 7.1s3.2 7.1 7.1 7.1 7.1-3.2 7.1-7.1c0-4-3.1-7.1-7.1-7.1zm-224.3 58.7c-3.9 0-7.1 3.2-7.1 7.1s3.2 7.1 7.1 7.1 7.1-3.2 7.1-7.1-3.2-7.1-7.1-7.1zm224.3 54.1c-3.9 0-7.1 3.2-7.1 7.1s3.2 7.1 7.1 7.1 7.1-3.2 7.1-7.1-3.1-7-7.1-7.1zm-224.3 3.7c-3.9 0-7.1 3.2-7.1 7.1s3.2 7.1 7.1 7.1 7.1-3.2 7.1-7.1c0-4-3.2-7.1-7.1-7.1zm0 57.7c-3.9 0-7.1 3.2-7.1 7.1s3.2 7.1 7.1 7.1 7.1-3.2 7.1-7.1-3.2-7.1-7.1-7.1zm224.3 51.5c-3.9 0-7.1 3.2-7.1 7.1s3.2 7.1 7.1 7.1 7.1-3.2 7.1-7.1-3.1-7.1-7.1-7.1zm-224.3 63.9c-3.9 0-7.1 3.2-7.1 7.1s3.2 7.1 7.1 7.1 7.1-3.2 7.1-7.1-3.2-7.1-7.1-7.1zm67.1 87.1c-3.9 0-7.1 3.2-7.1 7.1s3.2 7.1 7.1 7.1 7.1-3.2 7.1-7.1-3.2-7.1-7.1-7.1z"/>
	<path class="st32" d="m624.1 388.9v-3.4h-8.9v-0.1l1.9-1.6c3.8-3.5 6.6-6.6 6.6-10.4 0-3.6-2.3-6.6-7.2-6.6-2.7 0-5.1 1-6.7 2.2l1.2 2.9c1.1-0.8 2.7-1.8 4.7-1.8 2.8 0 3.9 1.7 3.9 3.7 0 2.9-2.4 5.5-7.6 10.3l-2.6 2.4v2.5l14.7-0.1z"/>
	<text id="홍대입구" visibility="hidden" class="st34" transform="translate(262.2 430.27)">홍대입구</text>
	<text id="신촌" visibility="hidden" class="st34" transform="translate(262.2 372.29)">신촌</text>
	<text id="이대" visibility="hidden" class="st34" transform="translate(262.2 314.53)">이대</text>
	<text id="아현" visibility="hidden" class="st34" transform="translate(262.2 258.3)">아현</text>
	<text id="합정" visibility="hidden" class="st34" transform="translate(262.2 487.73)">합정</text>
	<text id="당산" visibility="hidden" class="st34" transform="translate(262.2 545.34)">당산</text>
	<text id="영등포구청" visibility="hidden" class="st34" transform="translate(262.2 603.36)">영등포구청</text>
	<text id="문래" visibility="hidden" class="st34" transform="translate(262.2 661.18)">문래</text>
	<text id="신도림" visibility="hidden" class="st34" transform="translate(262.2 719.29)">신도림</text>
	<text id="대림" visibility="hidden" class="st34" transform="translate(262.2 776.64)">대림</text>
	<text id="구로디지털단지" visibility="hidden" class="st34" transform="translate(262.2 834.28)">구로디지털단지</text>
	<text id="신대방" visibility="hidden" class="st34" transform="translate(262.2 892.23)">신대방</text>
	<text id="신림" visibility="hidden" class="st34" transform="translate(262.2 949.02)">신림</text>
	<text id="봉천" visibility="hidden" class="st34" transform="translate(262.2 1008.1)">봉천</text>
	<text id="서울대입구" visibility="hidden" class="st34" transform="translate(262.2 1065.9)">서울대입구</text>
	<text id="낙성대" visibility="hidden" class="st34" transform="translate(262.2 1123.2)">낙성대</text>
	<text id="사당" visibility="hidden" class="st34" transform="translate(262.2 1180.9)">사당</text>
	<text id="방배" visibility="hidden" class="st34" transform="translate(262.2 1238.8)">방배</text>
	<text id="충정로" visibility="hidden" class="st34" transform="translate(262.2 198.63)">충정로</text>
	<text id="시청" visibility="hidden" class="st34" transform="translate(263.89 82.943)">시청</text>
	<text id="을지로입구" visibility="hidden" class="st34" transform="translate(354.7 82.943)">을지로입구</text>
	<text id="동대문역사문화공원" visibility="hidden" class="st34" transform="translate(487.92 271.11)">동대문역사문화공원</text>
	<text id="을지로4가" visibility="hidden" class="st34" transform="translate(487.92 215.75)">을지로4가</text>
	<text id="을지로3가" visibility="hidden" class="st34" transform="translate(487.92 158.16)">을지로3가</text>
	<text id="왕십리" visibility="hidden" class="st34" transform="translate(487.92 441.25)">왕십리</text>
	<text id="상왕십리" visibility="hidden" class="st34" transform="translate(487.92 384.89)">상왕십리</text>
	<text id="신당" visibility="hidden" class="st34" transform="translate(487.92 328.29)">신당</text>
	<text id="뚝섬" visibility="hidden" class="st34" transform="translate(487.92 554.99)">뚝섬</text>
	<text id="한양대" visibility="hidden" class="st34" transform="translate(487.92 498.62)">한양대</text>
	<text id="구의" visibility="hidden" class="st34" transform="translate(487.92 723.24)">구의</text>
	<text id="건대입구" visibility="hidden" class="st34" transform="translate(487.92 666.88)">건대입구</text>
	<text id="잠실나루" visibility="hidden" class="st34" transform="translate(487.92 835.98)">잠실나루</text>
	<text id="강변" visibility="hidden" class="st34" transform="translate(487.92 779.61)">강변</text>
	<text id="잠실새내" visibility="hidden" class="st34" transform="translate(487.92 947.89)">잠실새내</text>
	<text id="잠실" visibility="hidden" class="st34" transform="translate(487.92 891.52)">잠실</text>
	<text id="삼성" visibility="hidden" class="st34" transform="translate(487.92 1061.6)">삼성</text>
	<text id="종합운동장" visibility="hidden" class="st34" transform="translate(487.92 1005.3)">종합운동장</text>
	<text id="선릉" visibility="hidden" class="st34" transform="translate(487.92 1118.3)">선릉</text>
	<text id="강남" visibility="hidden" class="st34" transform="translate(487.92 1231.7)">강남</text>
	<text id="역삼" visibility="hidden" class="st34" transform="translate(487.92 1174.3)">역삼</text>
	<text id="서초" visibility="hidden" class="st34" transform="translate(285 1355.5)">서초</text>
	<text id="교대" visibility="hidden" class="st34" transform="translate(407.58 1355.5)">교대</text>
	<text id="용답" visibility="hidden" class="st34" transform="translate(546.39 579.92)">용답</text>
	<text id="신설동" visibility="hidden" class="st34" transform="translate(639.64 439.75)">신설동</text>
	<text id="신답" visibility="hidden" class="st34" transform="translate(639.64 553.49)">신답</text>
	<text id="용두" visibility="hidden" class="st34" transform="translate(639.64 497.13)">용두</text>
	<text id="도림천" visibility="hidden" class="st34" transform="translate(110.7 688.81)">도림천</text>
	<text id="양천구청" visibility="hidden" class="st34" transform="translate(108.46 786.99)">양천구청</text>
	<text id="신정네거리" visibility="hidden" class="st34" transform="translate(108.46 856.33)">신정네거리</text>
	<text id="까치산" visibility="hidden" class="st34" transform="translate(108.46 929.16)">까치산</text>
	<text id="성수" visibility="hidden" class="st34" transform="translate(399.1 610.82)">성수</text>
</svg>
