<?xml version="1.0" encoding="utf-8"?>
<svg version="1.1" id="Layer_1" xmlns="http://www.w3.org/2000/svg" xmlns:xlink="http://www.w3.org/1999/xlink" x="0px" y="0px" viewBox="0 0 720 943.4" style="enable-background:new 0 0 720 943.4;" xml:space="preserve">
	<style type="text/css">
		.st0 {fill: #77C4A3;}
		.st1 {fill: #8FC31F;}
		.st2 {fill: #77C4A3; fill-opacity: 0.9922;}
		.st3 {fill: #D4003C;}
		.st4 {fill: #996CAC; fill-opacity: 0.9961;}
		.st5 {fill: #E6186C; fill-opacity: 0.9961;}
		.st6 {fill: #FABE00; fill-opacity: 0.9961;}
		.st7 {fill: #D4003B; fill-opacity: 0.9961;}
		.st8 {fill: #00A84D;}
		.st9 {fill: #CD7C2F;}
		.st10 {fill: #00A4E3; fill-opacity: 0.9961;}
		.st11 {fill: #EF7C1C; fill-opacity: 0.9922;}
		.st12 {opacity: 0.99; fill: #EF7C1C; fill-opacity: 0.9922; enable-background: new;}
		.st13 {fill: #FFFFFF;}
		.st14 {fill: none; stroke: #EF7C1C; stroke-width: 3; stroke-linecap: round; stroke-linejoin: round; stroke-miterlimit: 15.1181; stroke-opacity: 0.9922;}
		.st15 {fill: #FFFFFF; stroke: #000000; stroke-width: 3.9701; stroke-linecap: round; stroke-linejoin: round; stroke-miterlimit: 15.1181; stroke-opacity: 0.9922;}
		.st16 {fill: #0052A4; fill-opacity: 0.9961;}
		.st17 {fill: #996CAC;}
		.st18 {fill: #747F00; fill-opacity: 0.9961;}
		.st19 {fill: #BDB092; fill-opacity: 0.9961;}
		.st20 {font-family: 'Pretendard-Regular', &quot;Apple SD Gothic Neo&quot;, &quot;Malgun Gothic&quot;, sans-serif; font-size: 24px; font-size: 24px;}
	</style>
	<path class="st0" d="M103.3,425.3l47.4-47.4c1.4-1.4,3.7-1.4,5.1,0l0,0c1.4,1.4,1.4,3.7,0,5.1l-47.4,47.4c-1.4,1.4-3.7,1.4-5.1,0
	l0,0C101.9,429,101.9,426.7,103.3,425.3z" />
<path class="st1" d="M103.3,435.5l47.4-47.4c1.4-1.4,3.7-1.4,5.1,0l0,0c1.4,1.4,1.4,3.7,0,5.1l-47.4,47.4c-1.4,1.4-3.7,1.4-5.1,0
	l0,0C101.9,439.2,101.9,436.9,103.3,435.5z" />
<path class="st2" d="M37.2,432c0.8,0,1.6,0.1,2.4,0.2c0.7,0.2,1.4,0.4,1.9,0.7c0.5,0.3,0.9,0.7,1.2,1.1s0.5,0.9,0.5,1.5
	s-0.2,1.1-0.5,1.5s-0.7,0.8-1.2,1.1c-0.5,0.3-1.2,0.5-1.9,0.7s-1.5,0.2-2.4,0.2s-1.6-0.1-2.4-0.2c-0.7-0.2-1.3-0.4-1.9-0.7
	c-0.5-0.3-0.9-0.7-1.2-1.1c-0.3-0.4-0.4-0.9-0.4-1.5c0-0.5,0.1-1,0.4-1.5c0.3-0.4,0.7-0.8,1.3-1.1c0.5-0.3,1.2-0.5,1.9-0.7
	S36.4,432,37.2,432L37.2,432z M37.2,433.6c-1.1,0-2,0.2-2.6,0.5c-0.7,0.3-1,0.8-1,1.3c0,0.6,0.3,1,1,1.4s1.6,0.5,2.6,0.5
	c1.1,0,2-0.2,2.7-0.5s1-0.8,1-1.4s-0.3-1-1-1.3C39.2,433.8,38.3,433.6,37.2,433.6z M37.3,422.7c0.2,0,0.3,0,0.4,0.1
	c0.1,0.1,0.1,0.2,0.1,0.4c-0.2,1.9-0.9,3.7-2.1,5.2c-1.2,1.5-3,2.6-5.4,3.4l-1.3-1.5c1.8-0.5,3.3-1.3,4.3-2.2c1.1-1,1.8-2.2,2.1-3.5
	H30v-1.8L37.3,422.7z M40.8,431.9v-2.3h-3.2v-1.7h3.2v-2H38v-1.7h2.8V422H43v10L40.8,431.9z M50.8,431c-0.7,0-1.3-0.1-1.8-0.3
	c-0.5-0.2-1-0.5-1.4-0.9s-0.7-0.8-0.9-1.4c-0.2-0.5-0.3-1.1-0.3-1.7s0.1-1.2,0.3-1.7s0.5-1,0.9-1.4s0.9-0.7,1.4-0.9
	c0.5-0.2,1.2-0.3,1.8-0.3c0.7,0,1.3,0.1,1.8,0.3c0.5,0.2,1,0.5,1.4,0.9s0.7,0.8,0.9,1.4c0.2,0.5,0.3,1.1,0.3,1.7s-0.1,1.2-0.3,1.7
	s-0.5,1-0.9,1.4s-0.9,0.7-1.4,0.9C52,430.9,51.4,431,50.8,431z M50.8,424.3c-0.7,0-1.3,0.2-1.7,0.7s-0.6,1.1-0.6,1.8
	c0,0.7,0.2,1.3,0.6,1.8c0.4,0.5,1,0.7,1.7,0.7s1.3-0.2,1.7-0.7s0.6-1.1,0.6-1.8c0-0.7-0.2-1.3-0.6-1.8
	C52.1,424.5,51.5,424.3,50.8,424.3L50.8,424.3z M45.5,433.5l5.1-0.1c0.3,0,0.7,0,1.2,0s1.1-0.1,1.6-0.1c0.6-0.1,1.2-0.1,1.8-0.2
	s1.1-0.2,1.6-0.2v1.7c-1.2,0.3-2.5,0.5-4.2,0.6c-1.6,0.1-3.3,0.2-5.2,0.2h-1.9L45.5,433.5z M59.3,422v16.7h-2.1V422H59.3z M70,432.6
	c1.7,0.1,2.9,0.5,3.8,1c0.9,0.6,1.3,1.3,1.3,2.2c0,1-0.5,1.8-1.6,2.4s-2.6,0.9-4.6,0.9s-3.6-0.3-4.6-0.9s-1.6-1.4-1.6-2.4
	c0-0.9,0.4-1.6,1.3-2.2s2.1-0.9,3.8-1V431h-6.5v-1.8h15.4v1.8H70V432.6z M68.9,434.2c-1.2,0-2.1,0.1-2.8,0.4c-0.7,0.3-1,0.7-1,1.2
	c0,0.6,0.3,1,1,1.2c0.7,0.3,1.6,0.4,2.8,0.4c1.2,0,2.1-0.1,2.8-0.4c0.7-0.2,1-0.7,1-1.2s-0.3-0.9-1-1.2
	C71,434.3,70.1,434.2,68.9,434.2z M63,422.4h11.8v1.8h-4.7c0.1,0.4,0.4,0.8,0.7,1.1c0.4,0.3,0.8,0.5,1.4,0.7
	c0.5,0.2,1.1,0.4,1.7,0.5s1.3,0.2,1.9,0.3l-1.3,1.5c-0.5-0.1-1.1-0.2-1.7-0.3c-0.6-0.1-1.1-0.3-1.6-0.5s-1-0.4-1.4-0.7
	c-0.4-0.3-0.8-0.6-1-1c-0.3,0.4-0.7,0.7-1.1,0.9c-0.4,0.3-0.9,0.5-1.4,0.7s-1,0.4-1.6,0.5c-0.5,0.1-1.1,0.2-1.6,0.3l-1.3-1.5
	c0.7-0.1,1.4-0.3,2.1-0.4c0.7-0.1,1.2-0.3,1.8-0.5c0.5-0.2,0.9-0.5,1.2-0.7c0.3-0.3,0.6-0.6,0.7-1H63V422.4z M82.3,430.6
	c-0.7,0-1.3-0.1-1.8-0.3c-0.5-0.2-1-0.5-1.4-0.9s-0.7-0.8-0.9-1.3c-0.2-0.5-0.3-1.1-0.3-1.7s0.1-1.2,0.3-1.7
	c0.2-0.5,0.5-0.9,0.9-1.3s0.9-0.7,1.4-0.9c0.5-0.2,1.2-0.3,1.8-0.3c0.7,0,1.3,0.1,1.8,0.3c0.5,0.2,1,0.5,1.4,0.9s0.7,0.8,0.9,1.3
	c0.2,0.5,0.3,1.1,0.3,1.7s-0.1,1.2-0.3,1.7c-0.2,0.5-0.5,0.9-0.9,1.3s-0.9,0.7-1.4,0.9C83.6,430.5,83,430.6,82.3,430.6L82.3,430.6z
	 M82.3,424c-0.7,0-1.3,0.2-1.7,0.7c-0.4,0.5-0.6,1-0.6,1.7s0.2,1.3,0.6,1.7c0.4,0.5,1,0.7,1.7,0.7s1.3-0.2,1.7-0.7
	c0.4-0.5,0.6-1.1,0.6-1.7c0-0.7-0.2-1.3-0.6-1.7C83.6,424.2,83.1,424,82.3,424z M85.7,432c0.8,0,1.6,0.1,2.4,0.2
	c0.7,0.2,1.3,0.4,1.9,0.7c0.5,0.3,0.9,0.7,1.2,1.1c0.3,0.4,0.4,0.9,0.4,1.5s-0.1,1.1-0.4,1.5s-0.7,0.8-1.2,1.1
	c-0.5,0.3-1.2,0.5-1.9,0.7c-0.7,0.2-1.5,0.2-2.4,0.2s-1.7-0.1-2.4-0.2c-0.7-0.2-1.3-0.4-1.8-0.7c-0.5-0.3-0.9-0.7-1.2-1.1
	c-0.3-0.4-0.4-0.9-0.4-1.5c0-0.5,0.1-1,0.4-1.5c0.3-0.4,0.7-0.8,1.3-1.1c0.5-0.3,1.2-0.5,1.9-0.7C84.1,432,84.8,432,85.7,432z
	 M85.7,433.6c-1.1,0-2,0.2-2.6,0.5c-0.7,0.3-1,0.8-1,1.3c0,0.6,0.3,1,1,1.4s1.6,0.5,2.6,0.5c1.1,0,2-0.2,2.6-0.5
	c0.7-0.3,1-0.8,1-1.4s-0.3-1-1-1.3C87.7,433.8,86.8,433.6,85.7,433.6z M91.1,422v3.6h2.1v1.8h-2.1v4.7H89V422H91.1z" />
<path class="st1" d="M69.2,455.9c-0.8-0.5-1.5-1.2-2.2-1.9c-0.7-0.8-1.2-1.6-1.6-2.4c-0.1,0.3-0.3,0.7-0.5,1.1s-0.6,0.8-0.9,1.3
	c-0.3,0.4-0.7,0.9-1.2,1.3c-0.4,0.4-0.8,0.8-1.3,1.1l-1.8-1.4c1.6-1,2.7-2.1,3.4-3.5s1.1-2.9,1.1-4.5v-3.6h2.2v3.7
	c0,1.5,0.3,3,1,4.3s1.8,2.4,3.3,3.2L69.2,455.9z M74.3,442.7v16.7h-2.1v-9.9h-3.3v-1.9h3.3v-4.9L74.3,442.7z M76.8,445.8h8.1v1.8
	h-8.1V445.8z M78.5,443.1h4.7v1.7h-4.7V443.1z M80.9,456.2c-1.1,0-2-0.3-2.7-1s-1-1.6-1-2.8c0-1.2,0.3-2.1,1-2.8
	c0.7-0.7,1.6-1,2.7-1s2,0.3,2.7,1s1.1,1.6,1.1,2.8c0,1.1-0.3,2.1-1,2.8C82.9,455.8,82,456.2,80.9,456.2L80.9,456.2z M80.9,450.2
	c-0.5,0-0.9,0.2-1.2,0.6c-0.3,0.4-0.5,0.9-0.5,1.5s0.2,1.1,0.5,1.5s0.7,0.6,1.2,0.6s0.9-0.2,1.2-0.6c0.3-0.4,0.5-0.9,0.5-1.5
	s-0.2-1.1-0.5-1.5C81.8,450.4,81.4,450.2,80.9,450.2L80.9,450.2z M85.7,458.6V443h2v6.1h1.5v-6.4h2v16.7h-2v-8.3h-1.5v7.5
	L85.7,458.6L85.7,458.6z" />
<path class="st3" d="M330.4,190.6l21.1-21.1c1.4-1.4,3.7-1.4,5.1,0l0,0c1.4,1.4,1.4,3.7,0,5.1l0,0l-21.1,21.1
	c-1.4,1.4-3.7,1.4-5.1,0l0,0C329,194.3,329,192,330.4,190.6L330.4,190.6z" />
<path class="st4" d="M537.8,853.5l47.4-47.4c1.4-1.4,3.7-1.4,5.1,0c1.4,1.4,1.4,3.7,0,5.1l-47.4,47.4c-1.4,1.4-3.7,1.4-5.1,0l0,0
	C536.4,857.2,536.4,854.9,537.8,853.5L537.8,853.5z" />
<path class="st4" d="M523.1,860.3h-9.9l-1.2,9.6c0.7-0.1,1.5-0.2,2.6-0.2c3.8,0,5.4,1.4,5.4,3.6c0,2.3-2,3.5-4.1,3.5
	c-1.7,0-3.4-0.6-4.2-1l-0.7,2.7c1,0.6,2.8,1.1,5.1,1.1c4.7,0,7.7-3,7.7-6.6c0-2.3-1.1-3.9-2.5-4.8c-1.3-0.8-3-1.2-4.6-1.2
	c-0.6,0-0.9,0-1.3,0.1l0.6-3.8h7.3v-3H523.1z" />
<path class="st5" d="M537.8,741.2l47.4-47.4c1.4-1.4,3.7-1.4,5.1,0s1.4,3.7,0,5.1l-47.4,47.4c-1.4,1.4-3.7,1.4-5.1,0l0,0
	C536.4,744.9,536.4,742.6,537.8,741.2z" />
<path class="st5" d="M513.7,762.8c-2.2,1-3.6,2.6-3.6,4.9c0,2.7,2.3,5.2,6.8,5.2c4.1,0,6.9-2.3,6.9-5.7c0-2.4-1.5-4-3.6-4.8v-0.1
	c2.1-1,2.9-2.7,2.9-4.3c0-2.3-1.8-4.8-6-4.8c-3.6,0-6.4,2.1-6.4,5.2C510.8,760.2,511.7,761.8,513.7,762.8L513.7,762.8z M517,770.5
	c-2,0-3.3-1.5-3.2-3.1c0-1.5,1-2.8,2.8-3.3c2.1,0.6,3.5,1.6,3.5,3.6C520.1,769.3,518.9,770.5,517,770.5L517,770.5z M516.9,755.8
	c1.9,0,2.7,1.4,2.7,2.7c0,1.4-1.1,2.5-2.4,2.9c-1.8-0.5-3.1-1.4-3.1-3C514.2,757,515.1,755.8,516.9,755.8z" />
<path class="st6" d="M537.8,682l47.4-47.4c1.4-1.4,3.7-1.4,5.1,0s1.4,3.7,0,5.1l-47.4,47.4c-1.4,1.4-3.7,1.4-5.1,0l0,0
	C536.4,685.7,536.4,683.5,537.8,682z" />
<path class="st6" d="M473.3,690.8c-1.5-0.4-2.7-0.9-3.7-1.5c-0.9-0.5-1.6-1.2-2.1-2c-0.5,0.8-1.2,1.5-2.2,2.1
	c-0.9,0.6-2.1,1.1-3.5,1.4l-1.4-1.5c0.9-0.2,1.7-0.5,2.4-0.7c0.7-0.3,1.4-0.6,1.9-1s0.9-0.8,1.2-1.3c0.3-0.5,0.5-1,0.5-1.7v-0.9h2.3
	v0.8c0,1.2,0.5,2.1,1.6,2.9c1.1,0.8,2.5,1.4,4.3,1.8L473.3,690.8z M475.2,694.3h-6.6v5.9h-2.1v-5.9h-6.7v-1.8h15.4L475.2,694.3z
	 M481.1,692.6c-0.7,0-1.3-0.1-1.9-0.4c-0.5-0.2-1-0.6-1.4-1s-0.7-0.9-0.9-1.4c-0.2-0.5-0.3-1.1-0.3-1.7s0.1-1.2,0.3-1.7
	c0.2-0.5,0.5-1,0.9-1.4s0.9-0.7,1.4-1c0.5-0.2,1.2-0.4,1.9-0.4c0.7,0,1.3,0.1,1.9,0.4c0.6,0.2,1,0.6,1.4,1s0.7,0.9,0.9,1.4
	c0.2,0.5,0.3,1.1,0.3,1.7s-0.1,1.2-0.3,1.7c-0.2,0.5-0.5,1-0.9,1.4s-0.9,0.7-1.4,1C482.4,692.5,481.8,692.6,481.1,692.6L481.1,692.6
	z M481.1,685.5c-0.8,0-1.3,0.3-1.8,0.8c-0.4,0.5-0.6,1.1-0.6,1.9c0,0.7,0.2,1.4,0.6,1.9s1,0.8,1.7,0.8s1.3-0.3,1.7-0.8
	c0.4-0.5,0.6-1.2,0.6-1.9s-0.2-1.4-0.6-1.9C482.4,685.7,481.8,685.5,481.1,685.5L481.1,685.5z M490.3,683.4v12.3h-2.1v-12.3H490.3z
	 M479.5,699.8c-0.2,0-0.3,0-0.4-0.1s-0.1-0.2-0.1-0.4v-5.1h2.1v3.8h9.5v1.8H479.5z M503.8,688.7V687h-7.5v1.7H503.8z M494.2,689.9
	v-6.4h2.1v1.8h7.5v-1.8h2.1v6.4c0,0.2,0,0.3-0.1,0.4c-0.1,0.1-0.2,0.1-0.4,0.1h-10.7c-0.2,0-0.3,0-0.4-0.1
	C494.3,690.3,494.2,690.1,494.2,689.9L494.2,689.9z M507.8,693.6h-6.4v3.2h-2.2v-3.2h-6.9v-1.8h15.4v1.8H507.8z M494.8,699.8
	c-0.2,0-0.3,0-0.4-0.1s-0.1-0.2-0.1-0.4v-4.5h2.1v3.3h10v1.8L494.8,699.8z M516.7,693.4c0.8,0,1.6,0.1,2.4,0.2
	c0.7,0.2,1.3,0.4,1.9,0.7c0.5,0.3,0.9,0.7,1.2,1.1c0.3,0.4,0.4,0.9,0.4,1.5s-0.1,1.1-0.4,1.5c-0.3,0.4-0.7,0.8-1.2,1.1
	s-1.2,0.5-1.9,0.7s-1.5,0.2-2.4,0.2s-1.6-0.1-2.4-0.2c-0.7-0.1-1.3-0.4-1.8-0.7s-0.9-0.7-1.2-1.1c-0.3-0.4-0.4-0.9-0.4-1.5
	c0-0.5,0.1-1,0.4-1.5c0.3-0.4,0.7-0.8,1.3-1.1c0.5-0.3,1.2-0.5,1.9-0.7C515,693.5,515.8,693.4,516.7,693.4L516.7,693.4z
	 M516.7,695.1c-1.1,0-2,0.2-2.6,0.5c-0.7,0.3-1,0.8-1,1.3c0,0.6,0.3,1,1,1.4c0.7,0.3,1.6,0.5,2.6,0.5c1.1,0,2-0.2,2.6-0.5
	c0.7-0.4,1-0.8,1-1.4c0-0.6-0.3-1-1-1.3C518.7,695.2,517.8,695.1,516.7,695.1L516.7,695.1z M510.2,691.7c-0.2,0-0.3,0-0.4-0.1
	s-0.1-0.2-0.1-0.4v-6.5c0-0.2,0-0.3,0.1-0.4c0.1-0.1,0.2-0.1,0.4-0.1h7.4v1.8h-5.9v4h2.3c0.3,0,0.8,0,1.2,0c0.5,0,1-0.1,1.5-0.1
	c0.5-0.1,1-0.1,1.5-0.2c0.5-0.1,0.9-0.2,1.2-0.2v1.7c-0.3,0.1-0.6,0.1-1.1,0.2c-0.5,0.1-1,0.1-1.5,0.2c-0.6,0.1-1.1,0.1-1.8,0.2
	c-0.6,0-1.2,0.1-1.8,0.1c-0.1,0-0.4,0-0.7,0L510.2,691.7L510.2,691.7z M520.1,693.3v-9.8h2.1v3.2h2.2v1.8h-2.2v4.9h-2.1V693.3z" />
<path class="st6" d="M537.8,409.3l47.4-47.4c1.4-1.4,3.7-1.4,5.1,0c1.4,1.4,1.4,3.7,0,5.1L543,414.4c-1.4,1.4-3.7,1.4-5.1,0l0,0
	C536.4,413,536.4,410.7,537.8,409.3z" />
<path class="st6" d="M473.3,418.1c-1.5-0.4-2.7-0.9-3.7-1.5c-0.9-0.5-1.6-1.2-2.1-2c-0.5,0.8-1.2,1.5-2.2,2.1
	c-0.9,0.6-2.1,1.1-3.5,1.4l-1.4-1.5c0.9-0.2,1.7-0.5,2.4-0.7c0.7-0.3,1.4-0.6,1.9-1s0.9-0.8,1.2-1.3c0.3-0.5,0.5-1,0.5-1.7V411h2.3
	v0.8c0,1.2,0.5,2.1,1.6,2.9s2.5,1.4,4.3,1.8L473.3,418.1z M475.2,421.5h-6.6v5.9h-2.1v-5.9h-6.7v-1.8h15.4L475.2,421.5z
	 M481.1,419.8c-0.7,0-1.3-0.1-1.9-0.4c-0.5-0.2-1-0.6-1.4-1s-0.7-0.9-0.9-1.4c-0.2-0.5-0.3-1.1-0.3-1.7s0.1-1.2,0.3-1.7
	c0.2-0.5,0.5-1,0.9-1.4s0.9-0.7,1.4-0.9c0.5-0.2,1.2-0.4,1.9-0.4c0.7,0,1.3,0.1,1.9,0.4c0.6,0.2,1,0.6,1.4,0.9
	c0.4,0.4,0.7,0.9,0.9,1.4c0.2,0.5,0.3,1.1,0.3,1.7s-0.1,1.2-0.3,1.7c-0.2,0.5-0.5,1-0.9,1.4s-0.9,0.7-1.4,1
	C482.4,419.7,481.8,419.8,481.1,419.8L481.1,419.8z M481.1,412.7c-0.8,0-1.3,0.3-1.8,0.8c-0.4,0.5-0.6,1.1-0.6,1.9
	c0,0.7,0.2,1.4,0.6,1.9s1,0.8,1.7,0.8s1.3-0.3,1.7-0.8s0.6-1.2,0.6-1.9c0-0.7-0.2-1.4-0.6-1.9C482.4,413,481.8,412.7,481.1,412.7
	L481.1,412.7z M490.3,410.7V423h-2.1v-12.3H490.3z M479.5,427.1c-0.2,0-0.3,0-0.4-0.1s-0.1-0.2-0.1-0.4v-5.1h2.1v3.8h9.5v1.8
	L479.5,427.1z M503.8,416v-1.7h-7.5v1.7H503.8z M494.2,417.2v-6.4h2.1v1.8h7.5v-1.8h2.1v6.4c0,0.2,0,0.3-0.1,0.4s-0.2,0.1-0.4,0.1
	h-10.7c-0.2,0-0.3,0-0.4-0.1C494.3,417.5,494.2,417.4,494.2,417.2L494.2,417.2z M507.8,420.9h-6.4v3.2h-2.2v-3.2h-6.9v-1.8h15.4v1.8
	H507.8z M494.8,427.1c-0.2,0-0.3,0-0.4-0.1s-0.1-0.2-0.1-0.4V422h2.1v3.3h10v1.8L494.8,427.1z M516.7,420.7c0.8,0,1.6,0.1,2.4,0.2
	c0.7,0.2,1.3,0.4,1.9,0.7c0.5,0.3,0.9,0.7,1.2,1.1s0.4,0.9,0.4,1.5s-0.1,1.1-0.4,1.5c-0.3,0.4-0.7,0.8-1.2,1.1
	c-0.5,0.3-1.2,0.5-1.9,0.7s-1.5,0.2-2.4,0.2s-1.6-0.1-2.4-0.2c-0.7-0.1-1.3-0.4-1.8-0.7c-0.5-0.3-0.9-0.7-1.2-1.1
	c-0.3-0.4-0.4-0.9-0.4-1.5c0-0.5,0.1-1,0.4-1.5c0.3-0.4,0.7-0.8,1.3-1.1c0.5-0.3,1.2-0.5,1.9-0.7C515,420.7,515.8,420.7,516.7,420.7
	L516.7,420.7z M516.7,422.3c-1.1,0-2,0.2-2.6,0.5c-0.7,0.3-1,0.8-1,1.3c0,0.6,0.3,1,1,1.4c0.7,0.3,1.6,0.5,2.6,0.5
	c1.1,0,2-0.2,2.6-0.5c0.7-0.3,1-0.8,1-1.4s-0.3-1-1-1.3C518.7,422.5,517.8,422.3,516.7,422.3L516.7,422.3z M510.2,418.9
	c-0.2,0-0.3,0-0.4-0.1s-0.1-0.2-0.1-0.4v-6.5c0-0.2,0-0.3,0.1-0.4s0.2-0.1,0.4-0.1h7.4v1.8h-5.9v4h2.3c0.3,0,0.8,0,1.2,0
	c0.5,0,1-0.1,1.5-0.1c0.5-0.1,1-0.1,1.5-0.2s0.9-0.1,1.2-0.2v1.7c-0.3,0.1-0.6,0.1-1.1,0.2s-1,0.1-1.5,0.2c-0.6,0.1-1.1,0.1-1.8,0.2
	c-0.6,0-1.2,0.1-1.8,0.1c-0.1,0-0.4,0-0.7,0L510.2,418.9L510.2,418.9z M520.1,420.5v-9.8h2.1v3.2h2.2v1.8h-2.2v4.8H520.1z" />
<path class="st7" d="M537.8,296.9l47.4-47.4c1.4-1.4,3.7-1.4,5.1,0c1.4,1.4,1.4,3.7,0,5.1L543,302c-1.4,1.4-3.7,1.4-5.1,0l0,0
	C536.4,300.6,536.4,298.3,537.8,296.9z" />
<path class="st7" d="M482.4,302.2v2.3c0,0.6,0.1,1.1,0.3,1.6c0.2,0.5,0.5,1,0.9,1.5s0.8,0.9,1.3,1.2c0.5,0.4,1,0.6,1.6,0.8l-1.3,1.6
	c-0.8-0.4-1.6-0.9-2.3-1.5c-0.7-0.6-1.2-1.2-1.6-1.8c-0.1,0.3-0.3,0.7-0.5,1s-0.5,0.7-0.9,1c-0.3,0.3-0.7,0.6-1.1,1
	c-0.4,0.3-0.8,0.6-1.2,0.8l-1.7-1.4c1.4-0.7,2.4-1.5,3.2-2.5c0.8-1,1.1-2.1,1.2-3.3v-2.3L482.4,302.2z M490.3,301.8v12.3h-2.1v-12.3
	H490.3z M479.6,318.2c-0.2,0-0.3,0-0.4-0.1s-0.1-0.2-0.1-0.4v-4.9h2.1v3.6h9.4v1.8H479.6z M503.8,307.1v-1.7h-7.5v1.7H503.8z
	 M494.2,308.3V302h2.1v1.8h7.5V302h2.1v6.4c0,0.2,0,0.3-0.1,0.4s-0.2,0.1-0.4,0.1h-10.7c-0.2,0-0.3,0-0.4-0.1
	C494.3,308.7,494.2,308.5,494.2,308.3L494.2,308.3z M507.8,312h-6.4v3.2h-2.2V312h-6.9v-1.8h15.4v1.8H507.8z M494.8,318.2
	c-0.2,0-0.3,0-0.4-0.1s-0.1-0.2-0.1-0.4v-4.5h2.1v3.3h10v1.8L494.8,318.2L494.8,318.2z M516.7,311.8c0.8,0,1.6,0.1,2.4,0.2
	c0.7,0.2,1.3,0.4,1.9,0.7c0.5,0.3,0.9,0.7,1.2,1.1s0.4,0.9,0.4,1.5s-0.1,1.1-0.4,1.5c-0.3,0.4-0.7,0.8-1.2,1.1
	c-0.5,0.3-1.2,0.5-1.9,0.7s-1.5,0.2-2.4,0.2s-1.6-0.1-2.4-0.2c-0.7-0.1-1.3-0.4-1.8-0.7c-0.5-0.3-0.9-0.7-1.2-1.1
	c-0.3-0.4-0.4-0.9-0.4-1.5c0-0.5,0.1-1,0.4-1.5c0.3-0.4,0.7-0.8,1.3-1.1c0.5-0.3,1.2-0.5,1.9-0.7C515,311.9,515.8,311.8,516.7,311.8
	L516.7,311.8z M516.7,313.5c-1.1,0-2,0.2-2.6,0.5c-0.7,0.3-1,0.8-1,1.3c0,0.6,0.3,1,1,1.4c0.7,0.3,1.6,0.5,2.6,0.5
	c1.1,0,2-0.2,2.6-0.5c0.7-0.4,1-0.8,1-1.4s-0.3-1-1-1.3C518.7,313.6,517.8,313.5,516.7,313.5L516.7,313.5z M510.2,310.1
	c-0.2,0-0.3,0-0.4-0.1s-0.1-0.2-0.1-0.4V303c0-0.2,0-0.3,0.1-0.4s0.2-0.1,0.4-0.1h7.4v1.8h-5.9v4h2.3c0.3,0,0.8,0,1.2,0
	c0.5,0,1-0.1,1.5-0.1c0.5-0.1,1-0.1,1.5-0.2s0.9-0.1,1.2-0.2v1.7c-0.3,0.1-0.6,0.1-1.1,0.2s-1,0.1-1.5,0.2c-0.6,0.1-1.1,0.1-1.8,0.2
	c-0.6,0-1.2,0.1-1.8,0.1c-0.1,0-0.4,0-0.7,0h-2.3V310.1z M520.1,311.7v-9.8h2.1v3.2h2.2v1.8h-2.2v4.9h-2.1V311.7z" />
<path class="st8" d="M537.8,184.4l47.4-47.4c1.4-1.4,3.7-1.4,5.1,0c1.4,1.4,1.4,3.7,0,5.1l-47.4,47.4c-1.4,1.4-3.7,1.4-5.1,0l0,0
	C536.4,188.1,536.4,185.8,537.8,184.4z" />
<path class="st8" d="M523.8,210.1v-3H516V207l1.6-1.4c3.3-3.1,5.7-5.8,5.7-9.1c0-3.1-2.1-5.8-6.3-5.8c-2.4,0-4.5,0.9-5.9,2l1.1,2.5
	c1-0.7,2.4-1.6,4.1-1.6c2.5,0,3.4,1.5,3.4,3.2c0,2.5-2.1,4.8-6.6,9l-2.3,2.1v2.2L523.8,210.1L523.8,210.1z" />
<path class="st2" d="M330.4,300.9l47.4-47.4c1.4-1.4,3.7-1.4,5.1,0s1.4,3.7,0,5.1L335.5,306c-1.4,1.4-3.7,1.4-5.1,0l0,0
	C329,304.6,329,302.3,330.4,300.9z" />
<path class="st2" d="M262.5,316.5c0.8,0,1.6,0.1,2.4,0.2c0.7,0.2,1.4,0.4,1.9,0.7c0.5,0.3,0.9,0.7,1.2,1.1c0.3,0.4,0.5,0.9,0.5,1.5
	s-0.2,1.1-0.5,1.5s-0.7,0.8-1.2,1.1c-0.5,0.3-1.2,0.5-1.9,0.7c-0.7,0.2-1.5,0.2-2.4,0.2s-1.6-0.1-2.4-0.2c-0.7-0.2-1.3-0.4-1.9-0.7
	c-0.5-0.3-0.9-0.7-1.2-1.1c-0.3-0.4-0.4-0.9-0.4-1.5c0-0.5,0.1-1,0.4-1.5c0.3-0.4,0.7-0.8,1.3-1.1c0.5-0.3,1.2-0.5,1.9-0.7
	C260.9,316.6,261.7,316.5,262.5,316.5L262.5,316.5z M262.5,318.2c-1.1,0-2,0.2-2.6,0.5c-0.7,0.3-1,0.8-1,1.3c0,0.6,0.3,1,1,1.4
	c0.7,0.3,1.6,0.5,2.6,0.5c1.1,0,2-0.2,2.7-0.5c0.7-0.4,1-0.8,1-1.4s-0.3-1-1-1.3C264.5,318.3,263.6,318.2,262.5,318.2L262.5,318.2z
	 M262.6,307.2c0.2,0,0.3,0,0.4,0.1s0.1,0.2,0.1,0.4c-0.2,1.9-0.9,3.7-2.1,5.2s-3,2.6-5.4,3.4l-1.3-1.5c1.8-0.5,3.3-1.3,4.3-2.2
	c1.1-1,1.8-2.2,2.1-3.5h-5.4v-1.8L262.6,307.2z M266.2,316.5v-2.3H263v-1.7h3.2v-2h-2.8v-1.7h2.8v-2.2h2.1v10L266.2,316.5z
	 M276.1,315.6c-0.7,0-1.3-0.1-1.8-0.3c-0.5-0.2-1-0.5-1.4-0.9s-0.7-0.8-0.9-1.4c-0.2-0.5-0.3-1.1-0.3-1.7s0.1-1.2,0.3-1.7
	c0.2-0.5,0.5-1,0.9-1.4s0.9-0.7,1.4-0.9c0.5-0.2,1.2-0.3,1.8-0.3c0.7,0,1.3,0.1,1.8,0.3c0.5,0.2,1,0.5,1.4,0.9s0.7,0.8,0.9,1.4
	c0.2,0.5,0.3,1.1,0.3,1.7s-0.1,1.2-0.3,1.7c-0.2,0.5-0.5,1-0.9,1.4s-0.9,0.7-1.4,0.9C277.3,315.5,276.7,315.6,276.1,315.6
	L276.1,315.6z M276.1,308.8c-0.7,0-1.3,0.2-1.7,0.7c-0.4,0.5-0.6,1.1-0.6,1.8c0,0.7,0.2,1.3,0.6,1.8s1,0.7,1.7,0.7s1.3-0.2,1.7-0.7
	c0.4-0.5,0.6-1.1,0.6-1.8c0-0.7-0.2-1.3-0.6-1.8C277.4,309,276.8,308.8,276.1,308.8L276.1,308.8z M270.9,318l5.1-0.1
	c0.3,0,0.7,0,1.2,0s1.1-0.1,1.6-0.1c0.6-0.1,1.2-0.1,1.8-0.2c0.6-0.1,1.1-0.2,1.6-0.2v1.7c-1.2,0.3-2.5,0.5-4.2,0.6
	c-1.6,0.1-3.3,0.2-5.2,0.2h-1.9V318z M284.7,306.5v16.7h-2.1v-16.7H284.7z M295.3,317.1c1.7,0.1,2.9,0.5,3.8,1
	c0.9,0.6,1.3,1.3,1.3,2.2c0,1-0.5,1.8-1.6,2.4s-2.6,0.9-4.6,0.9s-3.6-0.3-4.6-0.9s-1.6-1.4-1.6-2.4c0-0.9,0.4-1.6,1.3-2.2
	s2.1-0.9,3.8-1v-1.6h-6.5v-1.8H302v1.8h-6.6L295.3,317.1z M294.2,318.7c-1.2,0-2.1,0.1-2.8,0.4c-0.7,0.3-1,0.7-1,1.2
	c0,0.6,0.3,1,1,1.2c0.7,0.3,1.6,0.4,2.8,0.4c1.2,0,2.1-0.1,2.8-0.4c0.7-0.2,1-0.7,1-1.2s-0.3-0.9-1-1.2S295.4,318.7,294.2,318.7z
	 M288.3,307h11.8v1.8h-4.7c0.1,0.4,0.4,0.8,0.7,1.1c0.4,0.3,0.8,0.5,1.4,0.7c0.5,0.2,1.1,0.4,1.7,0.5s1.3,0.2,1.9,0.3l-1.3,1.5
	c-0.5-0.1-1.1-0.2-1.7-0.3c-0.6-0.1-1.1-0.3-1.6-0.5s-1-0.4-1.4-0.7c-0.4-0.3-0.8-0.6-1-1c-0.3,0.4-0.7,0.7-1.1,0.9
	c-0.4,0.3-0.9,0.5-1.4,0.7s-1,0.4-1.6,0.5c-0.5,0.1-1.1,0.2-1.6,0.3l-1.3-1.5c0.7-0.1,1.4-0.3,2.1-0.4s1.2-0.3,1.8-0.5
	c0.5-0.2,0.9-0.5,1.2-0.7c0.3-0.3,0.6-0.6,0.7-1h-4.7V307H288.3z M307.6,315.1c-0.7,0-1.3-0.1-1.8-0.3c-0.5-0.2-1-0.5-1.4-0.9
	s-0.7-0.8-0.9-1.3c-0.2-0.5-0.3-1.1-0.3-1.7s0.1-1.2,0.3-1.7c0.2-0.5,0.5-0.9,0.9-1.3s0.9-0.7,1.4-0.9c0.5-0.2,1.2-0.3,1.8-0.3
	c0.7,0,1.3,0.1,1.8,0.3c0.5,0.2,1,0.5,1.4,0.9s0.7,0.8,0.9,1.3c0.2,0.5,0.3,1.1,0.3,1.7s-0.1,1.2-0.3,1.7c-0.2,0.5-0.5,0.9-0.9,1.3
	s-0.9,0.7-1.4,0.9S308.3,315.1,307.6,315.1L307.6,315.1z M307.6,308.5c-0.7,0-1.3,0.2-1.7,0.7c-0.4,0.5-0.6,1-0.6,1.7
	s0.2,1.3,0.6,1.7c0.4,0.5,1,0.7,1.7,0.7s1.3-0.2,1.7-0.7c0.4-0.5,0.6-1.1,0.6-1.7c0-0.7-0.2-1.3-0.6-1.7
	C309,308.8,308.4,308.5,307.6,308.5z M311,316.5c0.8,0,1.6,0.1,2.4,0.2c0.7,0.2,1.3,0.4,1.9,0.7c0.5,0.3,0.9,0.7,1.2,1.1
	c0.3,0.4,0.4,0.9,0.4,1.5s-0.1,1.1-0.4,1.5s-0.7,0.8-1.2,1.1c-0.5,0.3-1.2,0.5-1.9,0.7c-0.7,0.2-1.5,0.2-2.4,0.2s-1.6-0.1-2.4-0.2
	c-0.7-0.2-1.3-0.4-1.9-0.7c-0.5-0.3-0.9-0.7-1.2-1.1c-0.3-0.4-0.4-0.9-0.4-1.5c0-0.5,0.1-1,0.4-1.5c0.3-0.4,0.7-0.8,1.2-1.1
	c0.5-0.3,1.2-0.5,1.9-0.7C309.4,316.6,310.2,316.5,311,316.5L311,316.5z M311,318.2c-1.1,0-2,0.2-2.6,0.5c-0.7,0.3-1,0.8-1,1.3
	c0,0.6,0.3,1,1,1.4c0.7,0.3,1.6,0.5,2.6,0.5c1.1,0,2-0.2,2.6-0.5c0.7-0.4,1-0.8,1-1.4s-0.3-1-1-1.3C313,318.3,312.1,318.2,311,318.2
	z M316.4,306.5v3.6h2.1v1.8h-2.1v4.7h-2.1v-10.1H316.4z" />
<path class="st9" d="M330.4,411.1l47.4-47.4c1.4-1.4,3.7-1.4,5.1,0s1.4,3.7,0,5.1l-47.4,47.4c-1.4,1.4-3.7,1.4-5.1,0l0,0
	C329,414.8,329,412.6,330.4,411.1L330.4,411.1z" />
<path class="st9" d="M315.9,421.7c-0.6,0-1.2,0-1.8,0.1c-2.7,0.2-5,1.1-6.8,2.8c-2,1.9-3.3,4.8-3.3,8.5c0,4.7,2.5,8.2,7.2,8.2
	c4,0,6.7-3.2,6.7-6.8c0-3.9-2.6-6.2-5.8-6.2c-1.9,0-3.3,0.8-4.3,1.8h-0.1c0.5-2.6,2.4-5.1,6.4-5.5c0.7-0.1,1.3-0.1,1.8-0.1
	L315.9,421.7z M311.2,438.6c-2.4,0-3.5-2-3.6-4.6c0-0.4,0.1-0.8,0.2-1.1c0.6-1.2,1.8-2,3.1-2c2.1,0,3.3,1.6,3.3,3.8
	C314.2,437,313,438.6,311.2,438.6L311.2,438.6z" />
<path class="st10" d="M330.4,524.7l47.4-47.4c1.4-1.4,3.7-1.4,5.1,0s1.4,3.7,0,5.1l-47.4,47.4c-1.4,1.4-3.7,1.4-5.1,0l0,0
	C329,528.4,329,526.1,330.4,524.7z" />
<path class="st10" d="M315.6,550.2v-4.8h2.5v-2.7h-2.5v-11.5h-4.2l-7.8,11.9v2.3h8.6v4.8H315.6z M307,542.7L307,542.7l3.5-5.3
	c0.6-1.1,1.1-2,1.7-3.2h0.1c-0.1,1.1-0.1,2.2-0.1,3.3v5.2H307z" />
<path class="st8" d="M330.4,582.2l47.4-47.4c1.4-1.4,3.7-1.4,5.1,0s1.4,3.7,0,5.1l-47.4,47.4c-1.4,1.4-3.7,1.4-5.1,0l0,0
	C329,585.9,329,583.6,330.4,582.2z" />
<path class="st8" d="M317.9,607.9v-3h-7.8v-0.1l1.6-1.4c3.3-3.1,5.7-5.8,5.7-9.1c0-3.1-2.1-5.8-6.3-5.8c-2.4,0-4.5,0.9-5.9,2
	l1.1,2.5c1-0.7,2.4-1.6,4.1-1.6c2.5,0,3.4,1.5,3.4,3.2c0,2.5-2.1,4.8-6.6,9l-2.3,2.1v2.2L317.9,607.9z" />
<path class="st9" d="M103.3,798.7l47.4-47.4c1.4-1.4,3.7-1.4,5.1,0c1.4,1.4,1.4,3.7,0,5.1l-47.4,47.4c-1.4,1.4-3.7,1.4-5.1,0l0,0
	C101.9,802.4,101.9,800.1,103.3,798.7z" />
<path class="st9" d="M91,809.2c-0.6,0-1.2,0-1.8,0.1c-2.7,0.2-5,1.1-6.8,2.8c-2,1.9-3.3,4.8-3.3,8.5c0,4.7,2.5,8.2,7.2,8.2
	c4,0,6.7-3.2,6.7-6.8c0-3.9-2.5-6.2-5.8-6.2c-1.9,0-3.3,0.8-4.3,1.8h-0.1c0.5-2.6,2.4-5.1,6.4-5.5c0.7-0.1,1.3-0.1,1.8-0.1L91,809.2
	L91,809.2z M86.3,826.2c-2.4,0-3.5-2.1-3.6-4.6c0-0.4,0.1-0.8,0.2-1.1c0.6-1.2,1.8-1.9,3.1-2c2.1,0,3.3,1.5,3.3,3.8
	C89.3,824.5,88.1,826.2,86.3,826.2z" />
<path class="st11" d="M407.9,92.4c-31,0-56.3,25.3-56.3,56.3v71.8c1.3-1.4,3.1-2.3,5-2.4c1.9,0,3.7,0.8,5,2.1v-71.5
	c0-25.6,20.7-46.3,46.3-46.3h8.4c-1.5-1.3-2.3-3.1-2.4-5c0.1-1.9,1-3.7,2.4-5L407.9,92.4L407.9,92.4z M425.7,92.4
	c1.4,1.3,2.3,3.1,2.4,5c-0.1,1.9-1,3.7-2.4,5h87.1c25.6,0,46.3,20.7,46.3,46.3v66.2c1.3-1.4,3.1-2.3,5-2.4c1.9,0,3.7,0.8,5,2.1
	v-65.9c0-31-25.3-56.3-56.3-56.3L425.7,92.4L425.7,92.4z M124.5,93.3v49.5c1.3-1.4,3.1-2.3,5-2.4c1.9,0.1,3.7,1,5,2.4V93.3H124.5
	L124.5,93.3z M124.5,152.2v42.4c1.3-1.5,3.1-2.3,5-2.4c1.9,0.1,3.7,1,5,2.4v-42.4c-1.3,1.4-3.1,2.3-5,2.4
	C127.6,154.5,125.8,153.7,124.5,152.2L124.5,152.2z M124.5,204v42.4c1.3-1.4,3.1-2.3,5-2.4c1.9,0,3.7,0.8,5,2.1V204
	c-1.3,1.4-3.1,2.3-5,2.4C127.6,206.4,125.8,205.5,124.5,204L124.5,204z M569.1,224.2c-1.3,1.4-3.1,2.3-5,2.4c-1.9-0.1-3.7-1-5-2.4
	v103.1c1.3-1.4,3.1-2.3,5-2.4c1.9,0.1,3.7,1,5,2.4V224.2z M351.6,229.8v102c1.3-1.4,3.1-2.3,5-2.4c1.9,0.1,3.7,1,5,2.4v-102
	c-1.3,1.4-3.1,2.3-5,2.4C354.7,232.1,352.9,231.3,351.6,229.8z M124.5,255.8v42.4c1.3-1.4,3.1-2.3,5-2.4c1.9,0,3.7,0.8,5,2.1v-42.1
	c-1.3,1.4-3.1,2.3-5,2.4C127.6,258.2,125.8,257.3,124.5,255.8L124.5,255.8z M124.5,307.6V350c1.3-1.4,3.1-2.3,5-2.4
	c1.9,0,3.7,0.8,5,2.1v-42.1c-1.3,1.4-3.1,2.3-5,2.4C127.6,310,125.8,309.1,124.5,307.6L124.5,307.6z M559.1,336.6v103.1
	c1.3-1.4,3.1-2.3,5-2.4c1.9,0.1,3.7,1,5,2.4V336.9c-1.3,1.3-3.1,2.1-5,2.1C562.1,339,560.3,338.1,559.1,336.6L559.1,336.6z
	 M351.6,341.2v102c1.3-1.4,3.1-2.3,5-2.4c1.9,0.1,3.7,1,5,2.4V341.5c-1.3,1.3-3.1,2.1-5,2.1C354.7,343.5,352.9,342.7,351.6,341.2z
	 M124.5,359.5v99.8c1.3-1.4,3.1-2.3,5-2.4c1.9,0.1,3.7,1,5,2.4v-99.8c-1.3,1.4-3.1,2.3-5,2.4C127.6,361.8,125.8,360.9,124.5,359.5
	L124.5,359.5z M569.1,449.1c-1.3,1.4-3.1,2.3-5,2.4c-1.9-0.1-3.7-1-5-2.4v44.1c1.3-1.4,3.1-2.3,5-2.4c1.9,0,3.7,0.8,5,2.1V449.1
	L569.1,449.1z M351.6,452.6v218.9c1.3-1.4,3.1-2.3,5-2.4c1.9,0,3.7,0.8,5,2.1V452.6c-1.3,1.4-3.1,2.3-5,2.4
	C354.7,454.9,352.9,454,351.6,452.6z M124.5,468.6V511c1.3-1.5,3.1-2.3,5-2.4c1.9,0,3.7,0.8,5,2.1v-42.1c-1.3,1.4-3.1,2.3-5,2.4
	C127.6,470.9,125.8,470.1,124.5,468.6L124.5,468.6z M569.1,502.5c-1.3,1.4-3.1,2.3-5,2.4c-1.9-0.1-3.7-1-5-2.4v44.1
	c1.3-1.4,3.1-2.3,5-2.4c1.9,0.1,3.7,1,5,2.4V502.5L569.1,502.5z M124.5,520.4v42.4c1.3-1.4,3.1-2.3,5-2.4c1.9,0,3.7,0.8,5,2.1v-42.1
	c-1.3,1.4-3.1,2.3-5,2.4C127.6,522.7,125.8,521.9,124.5,520.4L124.5,520.4z M559.1,556v44c1.3-1.4,3.1-2.3,5-2.4
	c1.9,0,3.7,0.8,5,2.1v-43.5c-1.3,1.3-3.1,2.1-5,2.1C562.1,558.3,560.3,557.4,559.1,556L559.1,556z M124.5,572.2v42.4
	c1.3-1.4,3.1-2.3,5-2.4c1.9,0,3.7,0.8,5,2.1v-42.1c-1.3,1.4-3.1,2.3-5,2.4C127.6,574.6,125.8,573.7,124.5,572.2L124.5,572.2z
	 M569.1,609.4c-1.3,1.4-3.1,2.3-5,2.4c-1.9-0.1-3.7-1-5-2.4v162.1c1.3-1.4,3.1-2.3,5-2.4c1.9,0,3.7,0.8,5,2.1V609.4z M124.5,624
	v42.4c1.3-1.5,3.1-2.3,5-2.4c1.9,0.1,3.7,1,5,2.4V624c-1.3,1.4-3.1,2.3-5,2.4C127.6,626.4,125.8,625.5,124.5,624z M124.5,675.9v42.4
	c1.3-1.4,3.1-2.3,5-2.4c1.9,0.1,3.7,1,5,2.4v-42.1c-1.3,1.3-3.1,2.1-5,2.1C127.6,678.2,125.8,677.3,124.5,675.9L124.5,675.9z
	 M351.6,680.9v43.5c1.3-1.4,3.1-2.3,5-2.4c1.9,0.1,3.7,1,5,2.4v-43.5c-1.3,1.4-3.1,2.3-5,2.4C354.7,683.2,352.9,682.3,351.6,680.9
	L351.6,680.9z M124.5,727.7V842c0,31,25.3,56.3,56.3,56.3h15.1c-1.4-1.3-2.3-3.1-2.4-5c0.1-1.9,1-3.7,2.4-5h-15.1
	c-25.5,0-46.3-20.6-46.3-46.2c0-0.1,0-0.1,0-0.2V728c-1.3,1.3-3.1,2.1-5,2.1C127.6,730,125.8,729.1,124.5,727.7L124.5,727.7z
	 M351.6,733.8v43.5c1.3-1.4,3.1-2.3,5-2.4c1.9,0.1,3.7,1,5,2.4v-43.5c-1.3,1.4-3.1,2.3-5,2.4C354.7,736.1,352.9,735.2,351.6,733.8z
	 M569.1,780.8c-1.3,1.4-3.1,2.3-5,2.4c-1.9-0.1-3.7-1-5-2.4v100.7h10V780.8z M351.6,786.7v43.5c1.3-1.4,3.1-2.3,5-2.4
	c1.9,0.1,3.7,1,5,2.4v-43.5c-1.3,1.4-3.1,2.3-5,2.4C354.7,789,352.9,788.1,351.6,786.7z M351.6,839.6v2.4
	c0,25.6-20.7,46.3-46.3,46.3h-22c1.4,1.3,2.3,3.1,2.4,5c-0.1,1.9-1,3.7-2.4,5h22c31,0,56.3-25.3,56.3-56.3v-2.4
	c-1.3,1.4-3.1,2.3-5,2.4C354.7,841.9,352.9,841.1,351.6,839.6L351.6,839.6z M205.3,888.3c1.4,1.3,2.3,3.1,2.4,5
	c-0.1,1.9-1,3.7-2.4,5h68.6c-1.4-1.3-2.3-3.1-2.4-5c0.1-1.9,1-3.7,2.4-5H205.3L205.3,888.3z" />
<path class="st12" d="M146.7,93.3c0,9.5-7.7,17.1-17.1,17.1s-17.1-7.7-17.1-17.1c0-9.5,7.7-17.1,17.1-17.1l0,0
	C139,76.2,146.7,83.9,146.7,93.3L146.7,93.3z" />
<path class="st13" d="M122.5,102.7c1.1,0.7,3.3,1.5,5.9,1.5c5.2,0,8.1-2.8,8.1-6.3c0-2.8-2.1-4.7-4.6-5.2v-0.1
	c2.6-0.9,3.9-2.7,3.9-4.9c0-2.7-2.2-5.1-6.5-5.1c-2.5,0-4.8,0.8-6,1.6l0.9,2.9c0.9-0.6,2.6-1.3,4.3-1.3c2.3,0,3.4,1.2,3.4,2.6
	c0,2.1-2.3,2.9-4.1,2.9H126v2.9h1.8c2.4,0,4.8,1.1,4.8,3.5c0,1.6-1.2,3.4-4.2,3.4c-2,0-4-0.8-4.8-1.3L122.5,102.7z" />
<path class="st14" d="M421,90.3c-3.9,0-7.1,3.2-7.1,7.1l0,0c0,3.9,3.2,7.1,7.1,7.1l0,0c3.9,0,7.1-3.2,7.1-7.1S424.9,90.3,421,90.3z
	 M129.5,140.5c-3.9,0-7.1,3.2-7.1,7.1c0,3.9,3.2,7.1,7.1,7.1c3.9,0,7.1-3.2,7.1-7.1C136.6,143.6,133.5,140.5,129.5,140.5z
	 M129.5,192.3c-3.9,0-7.1,3.2-7.1,7.1c0,3.9,3.2,7.1,7.1,7.1c3.9,0,7.1-3.2,7.1-7.1C136.6,195.4,133.5,192.3,129.5,192.3z
	 M564.1,212.4c-3.9,0-7.1,3.2-7.1,7.1l0,0c0,3.9,3.2,7.1,7.1,7.1l0,0c3.9,0,7.1-3.2,7.1-7.1l0,0C571.2,215.6,568,212.4,564.1,212.4
	L564.1,212.4z M356.6,218.1c-3.9,0-7.1,3.2-7.1,7.1c0,3.9,3.2,7.1,7.1,7.1s7.1-3.2,7.1-7.1C363.7,221.2,360.5,218.1,356.6,218.1
	L356.6,218.1z M129.5,244.1c-3.9,0-7.1,3.2-7.1,7.1c0,3.9,3.2,7.1,7.1,7.1c3.9,0,7.1-3.2,7.1-7.1
	C136.6,247.2,133.5,244.1,129.5,244.1z M129.5,295.9c-3.9,0-7.1,3.2-7.1,7.1s3.2,7.1,7.1,7.1c3.9,0,7.1-3.2,7.1-7.1
	S133.5,295.9,129.5,295.9z M564.1,324.9c-3.9,0-7.1,3.2-7.1,7.1l0,0c0,3.9,3.2,7.1,7.1,7.1l0,0c3.9,0,7.1-3.2,7.1-7.1l0,0
	C571.2,328,568,324.9,564.1,324.9L564.1,324.9z M356.6,329.4c-3.9,0-7.1,3.2-7.1,7.1s3.2,7.1,7.1,7.1s7.1-3.2,7.1-7.1l0,0
	C363.7,332.6,360.5,329.4,356.6,329.4z M129.5,347.7c-3.9,0-7.1,3.2-7.1,7.1l0,0c0,3.9,3.2,7.1,7.1,7.1c3.9,0,7.1-3.2,7.1-7.1
	C136.6,350.9,133.5,347.7,129.5,347.7L129.5,347.7z M564.1,437.3c-3.9,0-7.1,3.2-7.1,7.1l0,0c0,3.9,3.2,7.1,7.1,7.1l0,0
	c3.9,0,7.1-3.2,7.1-7.1l0,0C571.2,440.5,568,437.3,564.1,437.3L564.1,437.3z M356.6,440.8c-3.9,0-7.1,3.2-7.1,7.1s3.2,7.1,7.1,7.1
	s7.1-3.2,7.1-7.1S360.5,440.8,356.6,440.8z M129.5,456.9c-3.9,0-7.1,3.2-7.1,7.1s3.2,7.1,7.1,7.1c3.9,0,7.1-3.2,7.1-7.1
	C136.6,460,133.5,456.9,129.5,456.9z M564.1,490.7c-3.9,0-7.1,3.2-7.1,7.1l0,0c0,3.9,3.2,7.1,7.1,7.1l0,0c3.9,0,7.1-3.2,7.1-7.1l0,0
	C571.2,493.9,568,490.7,564.1,490.7L564.1,490.7z M129.5,508.7c-3.9,0-7.1,3.2-7.1,7.1l0,0c0,3.9,3.2,7.1,7.1,7.1l0,0
	c3.9,0,7.1-3.2,7.1-7.1l0,0C136.6,511.8,133.5,508.7,129.5,508.7L129.5,508.7L129.5,508.7z M564.1,544.2c-3.9,0-7.1,3.2-7.1,7.1l0,0
	c0,3.9,3.2,7.1,7.1,7.1l0,0c3.9,0,7.1-3.2,7.1-7.1l0,0C571.2,547.4,568,544.2,564.1,544.2L564.1,544.2z M129.5,560.5
	c-3.9,0-7.1,3.2-7.1,7.1l0,0c0,3.9,3.2,7.1,7.1,7.1l0,0c3.9,0,7.1-3.2,7.1-7.1l0,0C136.6,563.6,133.5,560.5,129.5,560.5L129.5,560.5
	z M564.1,597.6c-3.9,0-7.1,3.2-7.1,7.1l0,0c0,3.9,3.2,7.1,7.1,7.1l0,0c3.9,0,7.1-3.2,7.1-7.1l0,0C571.2,600.8,568,597.6,564.1,597.6
	L564.1,597.6L564.1,597.6z M129.5,612.3c-3.9,0-7.1,3.2-7.1,7.1l0,0c0,3.9,3.2,7.1,7.1,7.1l0,0c3.9,0,7.1-3.2,7.1-7.1l0,0
	C136.6,615.4,133.5,612.3,129.5,612.3L129.5,612.3z M129.5,664.1c-3.9,0-7.1,3.2-7.1,7.1l0,0c0,3.9,3.2,7.1,7.1,7.1l0,0
	c3.9,0,7.1-3.2,7.1-7.1l0,0C136.6,667.2,133.5,664.1,129.5,664.1L129.5,664.1z M356.6,669.1c-3.9,0-7.1,3.2-7.1,7.1
	c0,3.9,3.2,7.1,7.1,7.1s7.1-3.2,7.1-7.1l0,0C363.7,672.3,360.5,669.1,356.6,669.1L356.6,669.1z M129.5,715.9c-3.9,0-7.1,3.2-7.1,7.1
	l0,0c0,3.9,3.2,7.1,7.1,7.1l0,0c3.9,0,7.1-3.2,7.1-7.1l0,0C136.6,719.1,133.5,715.9,129.5,715.9L129.5,715.9z M356.6,722
	c-3.9,0-7.1,3.2-7.1,7.1c0,3.9,3.2,7.1,7.1,7.1s7.1-3.2,7.1-7.1l0,0C363.7,725.2,360.5,722,356.6,722L356.6,722z M564.1,769
	c-3.9,0-7.1,3.2-7.1,7.1l0,0c0,3.9,3.2,7.1,7.1,7.1l0,0c3.9,0,7.1-3.2,7.1-7.1l0,0C571.2,772.2,568,769,564.1,769L564.1,769z
	 M356.6,774.9c-3.9,0-7.1,3.2-7.1,7.1c0,3.9,3.2,7.1,7.1,7.1s7.1-3.2,7.1-7.1l0,0C363.7,778.1,360.5,774.9,356.6,774.9L356.6,774.9z
	 M356.6,827.8c-3.9,0-7.1,3.2-7.1,7.1c0,3.9,3.2,7.1,7.1,7.1s7.1-3.2,7.1-7.1l0,0C363.7,831,360.5,827.8,356.6,827.8z M200.6,886.2
	c-3.9,0-7.1,3.2-7.1,7.1l0,0c0,3.9,3.2,7.1,7.1,7.1c3.9,0,7.1-3.2,7.1-7.1C207.7,889.4,204.5,886.2,200.6,886.2L200.6,886.2z
	 M278.6,886.2c-3.9,0-7.1,3.2-7.1,7.1l0,0c0,3.9,3.2,7.1,7.1,7.1s7.1-3.2,7.1-7.1S282.5,886.2,278.6,886.2L278.6,886.2z" />
<path class="st15" d="M138.9,409.4c0,5.2-4.2,9.4-9.4,9.4s-9.4-4.2-9.4-9.4l0,0c0-5.2,4.2-9.4,9.4-9.4
	C134.7,400,138.9,404.2,138.9,409.4z M138.9,777.6c0,5.2-4.2,9.4-9.4,9.4s-9.4-4.2-9.4-9.4l0,0c0-5.2,4.2-9.4,9.4-9.4
	C134.7,768.2,138.9,772.4,138.9,777.6z" />
<path class="st9" d="M103.3,856l47.4-47.4c1.4-1.4,3.7-1.4,5.1,0c1.4,1.4,1.4,3.7,0,5.1l-47.4,47.4c-1.4,1.4-3.7,1.4-5.1,0l0,0
	C101.9,859.7,101.9,857.5,103.3,856z" />
<path class="st9" d="M91,866.6c-0.6,0-1.2,0-1.8,0.1c-2.7,0.2-5,1.1-6.8,2.8c-2,1.9-3.3,4.8-3.3,8.5c0,4.7,2.5,8.2,7.2,8.2
	c4,0,6.7-3.2,6.7-6.8c0-3.9-2.5-6.2-5.8-6.2c-1.9,0-3.3,0.8-4.3,1.8h-0.1c0.5-2.6,2.4-5.1,6.4-5.5c0.7-0.1,1.3-0.1,1.8-0.1L91,866.6
	L91,866.6z M86.3,883.5c-2.4,0-3.5-2-3.6-4.6c0-0.4,0.1-0.8,0.2-1.1c0.6-1.2,1.8-1.9,3.1-2c2.1,0,3.3,1.5,3.3,3.8
	S88.1,883.5,86.3,883.5z" />
<path class="st15" d="M138.9,834.9c0,5.2-4.2,9.4-9.4,9.4s-9.4-4.2-9.4-9.4l0,0c0-5.2,4.2-9.4,9.4-9.4
	C134.7,825.5,138.9,829.7,138.9,834.9z" />
<path class="st16" d="M330.4,636.9l47.4-47.4c1.4-1.4,3.7-1.4,5.1,0s1.4,3.7,0,5.1L335.5,642c-1.4,1.4-3.7,1.4-5.1,0l0,0
	C329,640.6,329,638.4,330.4,636.9L330.4,636.9z" />
<path class="st17" d="M330.4,647.2l47.4-47.4c1.4-1.4,3.7-1.4,5.1,0s1.4,3.7,0,5.1l-47.4,47.4c-1.4,1.4-3.7,1.4-5.1,0l0,0
	C329,650.9,329,648.6,330.4,647.2z" />
<path class="st16" d="M312.4,649.8h3.5v-19h-3l-4.7,2.3l0.6,2.7l3.5-1.8h0.1V649.8z" />
<path class="st17" d="M318.5,656.5h-9.9l-1.2,9.6c0.7-0.1,1.5-0.2,2.6-0.2c3.8,0,5.4,1.4,5.4,3.6c0,2.3-2,3.5-4.1,3.5
	c-1.7,0-3.4-0.6-4.2-1l-0.7,2.7c1,0.6,2.8,1.1,5.1,1.1c4.7,0,7.7-3,7.7-6.6c0-2.3-1.1-3.9-2.5-4.8c-1.3-0.8-3-1.2-4.6-1.2
	c-0.6,0-0.9,0-1.3,0.1l0.6-3.8h7.3v-3H318.5z" />
<path class="st15" d="M366,620.5c0,5.2-4.2,9.4-9.4,9.4c-5.2,0-9.4-4.2-9.4-9.4s4.2-9.4,9.4-9.4S366,615.3,366,620.5L366,620.5z
	 M366,562c0,5.2-4.2,9.4-9.4,9.4l0,0c-5.2,0-9.4-4.2-9.4-9.4s4.2-9.4,9.4-9.4C361.8,552.7,366,556.9,366,562L366,562z M366,503.6
	c0,5.2-4.2,9.4-9.4,9.4c-5.2,0-9.4-4.2-9.4-9.4c0-5.2,4.2-9.4,9.4-9.4S366,498.4,366,503.6L366,503.6z M366,392.2
	c0,5.2-4.2,9.4-9.4,9.4l0,0c-5.2,0-9.4-4.2-9.4-9.4c0-5.2,4.2-9.4,9.4-9.4C361.8,382.8,366,387,366,392.2z M366,280.8
	c0,5.2-4.2,9.4-9.4,9.4l0,0c-5.2,0-9.4-4.2-9.4-9.4s4.2-9.4,9.4-9.4S366,275.7,366,280.8L366,280.8z" />
<path class="st18" d="M465.5,118.5l47.4-47.4c1.4-1.4,3.7-1.4,5.1,0c1.4,1.4,1.4,3.7,0,5.1l-47.4,47.4c-1.4,1.4-3.7,1.4-5.1,0l0,0
	C464.1,122.2,464.1,119.9,465.5,118.5L465.5,118.5z" />
<path class="st19" d="M475.7,118.5l47.4-47.4c1.4-1.4,3.7-1.4,5.1,0c1.4,1.4,1.4,3.7,0,5.1l-47.4,47.4c-1.4,1.4-3.7,1.4-5.1,0l0,0
	C474.3,122.2,474.3,119.9,475.7,118.5z" />
<path class="st18" d="M442.8,131.1v3h9v0.1l-8,16h3.8l8.1-16.7v-2.3h-12.9V131.1z" />
<path class="st19" d="M464.7,150.5c0.6,0,1.3,0,2.2-0.1c2.6-0.2,4.9-1.1,6.5-2.6c2-1.9,3.3-4.8,3.3-8.9c0-4.7-2.3-8.1-6.8-8.1
	c-4,0-6.9,3.1-6.9,6.8c0,3.5,2.5,5.9,5.8,5.9c1.8,0,3.2-0.6,4.2-1.7h0.1c-0.4,1.8-1.2,3.3-2.5,4.2c-1.1,0.9-2.5,1.4-3.9,1.5
	c-0.7,0.1-1.3,0.1-2,0.1L464.7,150.5z M469.7,133.5c2.3,0,3.3,2.2,3.3,4.8c0,0.5-0.1,0.8-0.2,1.1c-0.6,0.9-1.6,1.6-3.1,1.6
	c-2,0-3.1-1.5-3.1-3.5C466.6,135.1,467.9,133.5,469.7,133.5L469.7,133.5z" />
<path class="st15" d="M504.9,97.4c0,5.2-4.2,9.4-9.4,9.4c-5.2,0-9.4-4.2-9.4-9.4c0-5.2,4.2-9.4,9.4-9.4
	C500.7,88,504.9,92.2,504.9,97.4L504.9,97.4z M573.5,163.3c0,5.2-4.2,9.4-9.4,9.4s-9.4-4.2-9.4-9.4s4.2-9.4,9.4-9.4
	C569.3,153.9,573.5,158.1,573.5,163.3L573.5,163.3L573.5,163.3z M573.5,275.7c0,5.2-4.2,9.4-9.4,9.4l0,0c-5.2,0-9.4-4.2-9.4-9.4
	c0-5.2,4.2-9.4,9.4-9.4C569.3,266.4,573.5,270.6,573.5,275.7L573.5,275.7z M573.5,388.2c0,5.2-4.2,9.4-9.4,9.4l0,0
	c-5.2,0-9.4-4.2-9.4-9.4c0-5.2,4.2-9.4,9.4-9.4C569.3,378.8,573.5,383,573.5,388.2L573.5,388.2z M573.5,660.9c0,5.2-4.2,9.4-9.4,9.4
	s-9.4-4.2-9.4-9.4s4.2-9.4,9.4-9.4S573.5,655.7,573.5,660.9L573.5,660.9z M573.5,719.9c0,5.2-4.2,9.4-9.4,9.4s-9.4-4.2-9.4-9.4
	s4.2-9.4,9.4-9.4S573.5,714.7,573.5,719.9L573.5,719.9z M573.5,832.4c0,5.2-4.2,9.4-9.4,9.4s-9.4-4.2-9.4-9.4s4.2-9.4,9.4-9.4
	S573.5,827.2,573.5,832.4L573.5,832.4z" />
<path class="st12" d="M581.2,890c0,9.5-7.7,17.1-17.1,17.1S547,899.4,547,890c0-9.5,7.7-17.1,17.1-17.1l0,0
	C573.5,872.8,581.2,880.5,581.2,890L581.2,890z" />
<path class="st13" d="M557.1,899.3c1.1,0.7,3.3,1.4,5.9,1.4c5.2,0,8.1-2.8,8.1-6.3c0-2.8-2.1-4.7-4.6-5.2v-0.1
	c2.6-0.9,3.9-2.7,3.9-4.9c0-2.7-2.2-5.1-6.5-5.1c-2.5,0-4.8,0.8-6,1.6l0.9,2.9c0.9-0.6,2.6-1.3,4.3-1.3c2.3,0,3.3,1.2,3.3,2.6
	c0,2.1-2.3,2.9-4.1,2.9h-1.8v2.9h1.8c2.4,0,4.8,1.1,4.8,3.5c0,1.6-1.2,3.3-4.2,3.3c-1.7,0-3.3-0.5-4.8-1.3L557.1,899.3z" />
<path class="st7" d="M280.3,198.6v2.3c0,0.6,0.1,1.1,0.3,1.6c0.2,0.5,0.5,1,0.9,1.5s0.8,0.9,1.3,1.2c0.5,0.4,1,0.6,1.6,0.8l-1.3,1.6
	c-0.8-0.4-1.6-0.9-2.3-1.5c-0.7-0.6-1.2-1.2-1.6-1.9c-0.1,0.3-0.3,0.7-0.5,1s-0.5,0.7-0.9,1c-0.3,0.3-0.7,0.6-1.1,1
	c-0.4,0.3-0.8,0.6-1.3,0.8l-1.7-1.4c1.4-0.7,2.4-1.5,3.2-2.5c0.8-1,1.1-2.1,1.2-3.3v-2.3L280.3,198.6z M288.2,198.3v12.3h-2.1v-12.3
	H288.2z M277.5,214.7c-0.2,0-0.3,0-0.4-0.1s-0.1-0.2-0.1-0.4v-4.9h2.1v3.6h9.4v1.8L277.5,214.7z M301.7,203.6v-1.7h-7.5v1.7H301.7z
	 M292.1,204.8v-6.4h2.1v1.8h7.5v-1.8h2.1v6.4c0,0.2,0,0.3-0.1,0.4c-0.1,0.1-0.2,0.1-0.4,0.1h-10.7c-0.2,0-0.3,0-0.4-0.1
	C292.2,205.1,292.1,205,292.1,204.8L292.1,204.8z M305.7,208.4h-6.4v3.2h-2.2v-3.2h-6.9v-1.8h15.4v1.8H305.7z M292.7,214.7
	c-0.2,0-0.3,0-0.4-0.1s-0.1-0.2-0.1-0.4v-4.5h2.1v3.3h10v1.8L292.7,214.7z M314.6,208.2c0.8,0,1.6,0.1,2.4,0.2
	c0.7,0.2,1.3,0.4,1.9,0.7c0.5,0.3,0.9,0.7,1.2,1.1c0.3,0.4,0.4,0.9,0.4,1.5s-0.1,1.1-0.4,1.5s-0.7,0.8-1.2,1.1s-1.2,0.5-1.9,0.7
	c-0.7,0.1-1.5,0.2-2.4,0.2s-1.6-0.1-2.4-0.2c-0.7-0.1-1.3-0.4-1.9-0.7c-0.5-0.3-0.9-0.7-1.2-1.1c-0.3-0.4-0.4-0.9-0.4-1.5
	c0-0.5,0.1-1,0.4-1.5c0.3-0.4,0.7-0.8,1.2-1.1s1.2-0.5,1.9-0.7C312.9,208.3,313.7,208.2,314.6,208.2L314.6,208.2z M314.6,209.9
	c-1.1,0-2,0.2-2.6,0.5c-0.7,0.3-1,0.8-1,1.3c0,0.6,0.3,1,1,1.4c0.7,0.3,1.6,0.5,2.6,0.5c1.1,0,2-0.2,2.6-0.5c0.7-0.3,1-0.8,1-1.4
	c0-0.6-0.3-1-1-1.3C316.6,210.1,315.7,209.9,314.6,209.9L314.6,209.9z M308.1,206.5c-0.2,0-0.3,0-0.4-0.1s-0.1-0.2-0.1-0.4v-6.5
	c0-0.2,0-0.3,0.1-0.4c0.1-0.1,0.2-0.1,0.4-0.1h7.4v1.8h-5.9v4h2.3c0.3,0,0.8,0,1.3,0s1-0.1,1.5-0.1c0.5-0.1,1-0.1,1.5-0.2
	c0.5-0.1,0.9-0.2,1.2-0.2v1.7c-0.3,0.1-0.6,0.1-1.1,0.2c-0.5,0.1-1,0.1-1.5,0.2c-0.6,0.1-1.1,0.1-1.8,0.2c-0.6,0-1.2,0.1-1.8,0.1
	c-0.1,0-0.4,0-0.7,0L308.1,206.5L308.1,206.5z M318,208.1v-9.8h2.1v3.2h2.2v1.8h-2.2v4.9L318,208.1z" />
<path class="st15" d="M366,169.5c0,5.2-4.2,9.4-9.4,9.4c-5.2,0-9.4-4.2-9.4-9.4s4.2-9.4,9.4-9.4S366,164.3,366,169.5L366,169.5z" />
	<text id="대화" visibility="hidden" transform="translate(152.838 139.8027)" class="st20">대화</text>
	<text id="주엽" visibility="hidden" transform="translate(152.838 191.6257)" class="st20">주엽</text>
	<text id="정발산" visibility="hidden" transform="translate(152.838 242.9634)" class="st20">정발산</text>
	<text id="마두" visibility="hidden" transform="translate(152.838 294.3286)" class="st20">마두</text>
	<text id="백석" visibility="hidden" transform="translate(152.838 346.106)" class="st20">백석</text>
	<text id="대곡" visibility="hidden" transform="translate(152.838 400.706)" class="st20">대곡</text>
	<text id="화정" visibility="hidden" transform="translate(152.838 456.0867)" class="st20">화정</text>
	<text id="원당" visibility="hidden" transform="translate(152.838 508.1183)" class="st20">원당</text>
	<text id="원흥" visibility="hidden" transform="translate(152.838 559.9131)" class="st20">원흥</text>
	<text id="삼송" visibility="hidden" transform="translate(152.838 610.5131)" class="st20">삼송</text>
	<text id="지축" visibility="hidden" transform="translate(152.838 663.2672)" class="st20">지축</text>
	<text id="구파발" visibility="hidden" transform="translate(152.838 714.6335)" class="st20">구파발</text>
	<text id="연신내" visibility="hidden" transform="translate(152.838 769.2335)" class="st20">연신내</text>
	<text id="불광" visibility="hidden" transform="translate(152.838 826.9876)" class="st20">불광</text>
	<text id="녹번" visibility="hidden" transform="translate(180.7969 916.6887)" class="st20">녹번</text>
	<text id="홍제" visibility="hidden" transform="translate(259.0887 916.6884)" class="st20">홍제</text>
	<text id="신사" visibility="hidden" transform="translate(381.755 160.2319)" class="st20">신사</text>
	<text id="압구정" visibility="hidden" transform="translate(381.755 217.0549)" class="st20">압구정</text>
	<text id="옥수" visibility="hidden" transform="translate(381.755 272.3925)" class="st20">옥수</text>
	<text id="금호" visibility="hidden" transform="translate(381.755 327.7577)" class="st20">금호</text>
	<text id="약수" visibility="hidden" transform="translate(381.755 384.5351)" class="st20">약수</text>
	<text id="동대입구" visibility="hidden" transform="translate(381.755 439.1351)" class="st20">동대입구</text>
	<text id="충무로" visibility="hidden" transform="translate(381.755 495.5158)" class="st20">충무로</text>
	<text id="을지로3가" visibility="hidden" transform="translate(381.755 553.5474)" class="st20">을지로3가</text>
	<text id="종로3가" visibility="hidden" transform="translate(381.755 612.3422)" class="st20">종로3가</text>
	<text id="안국" visibility="hidden" transform="translate(381.755 666.9422)" class="st20">안국</text>
	<text id="경복궁" visibility="hidden" transform="translate(381.755 719.6964)" class="st20">경복궁</text>
	<text id="독립문" visibility="hidden" transform="translate(381.755 773.0626)" class="st20">독립문</text>
	<text id="무악재" visibility="hidden" transform="translate(381.755 825.6625)" class="st20">무악재</text>
	<text id="교대" visibility="hidden" transform="translate(590.43 155.4653)" class="st20">교대</text>
	<text id="남부터미널" visibility="hidden" transform="translate(590.43 212.2883)" class="st20">남부터미널</text>
	<text id="양재" visibility="hidden" transform="translate(590.43 267.6259)" class="st20">양재</text>
	<text id="매봉" visibility="hidden" transform="translate(590.43 323.9911)" class="st20">매봉</text>
	<text id="도곡" visibility="hidden" transform="translate(590.43 379.7685)" class="st20">도곡</text>
	<text id="대치" visibility="hidden" transform="translate(590.43 435.3685)" class="st20">대치</text>
	<text id="학여울" visibility="hidden" transform="translate(590.43 489.7492)" class="st20">학여울</text>
	<text id="대청" visibility="hidden" transform="translate(590.43 543.7808)" class="st20">대청</text>
	<text id="일원" visibility="hidden" transform="translate(590.43 596.5756)" class="st20">일원</text>
	<text id="수서" visibility="hidden" transform="translate(590.43 653.1756)" class="st20">수서</text>
	<text id="가락시장" visibility="hidden" transform="translate(590.43 711.9297)" class="st20">가락시장</text>
	<text id="경찰병원" visibility="hidden" transform="translate(590.43 768.296)" class="st20">경찰병원</text>
	<text id="오금" visibility="hidden" transform="translate(590.43 822.8959)" class="st20">오금</text>
	<text id="잠원" visibility="hidden" transform="translate(399.9308 57.5754)" class="st20">잠원</text>
	<text id="고속터미널" visibility="hidden" transform="translate(537.7979 64.9031)" class="st20">고속터미널</text>
</svg>