<svg version="1.1" xmlns="http://www.w3.org/2000/svg" xmlns:xlink="http://www.w3.org/1999/xlink" x="0px" y="0px" viewBox="0 0 185 61" style="enable-background:new 0 0 185 61;" xml:space="preserve">
<g>
	<rect x="0" y="0" width="185" height="61" style="rx: 21px; ry: 21px; fill: white; fill-opacity: 0.5;" class="svg-pan-zoom-control-background"/>
	<path d="M163.8,0H21.2C9.5,0,0,9.5,0,21.2v18.7C0,51.5,9.5,61,21.2,61h142.7c11.7,0,21.2-9.5,21.2-21.2V21.2C185,9.5,175.5,0,163.8,0z M38.1,48.2l-6.6-12.3H26v12.3h-7.2V13.6h13.6c7.9,0,12.4,4.5,12.4,11.3c0,4.7-2.2,8.2-6.1,9.9l7.4,13.5H38.1z M73.6,48.2H50.3V13.6h23.3v5.9H57.5v8.4h14.9v5.9H57.5v8.4h16.1V48.2z M92.5,48.7c-8.4,0-13.7-3.9-13.9-11.3h7c0.2,3.5,3,5.3,6.8,5.3c3.8,0,6.2-1.8,6.2-4.4c0-2.3-2.2-3.4-5.9-4.4L88.9,33c-5.8-1.4-9.4-4.4-9.4-9.4c0-6.3,5.6-10.5,13.1-10.5c7.7,0,12.7,4.3,12.8,10.4h-6.9c-0.3-2.7-2.5-4.4-6-4.4c-3.6,0-5.6,1.7-5.7,4c0,2.5,2.6,3.6,5.6,4.3l3.1,0.8c5.9,1.3,10.4,4.4,10.4,10.1C105.9,44.7,100.9,48.7,92.5,48.7z M134.4,48.2h-23.3V13.6h23.3v5.9h-16.1v8.4h14.9v5.9h-14.9v8.4h16.1V48.2z M167.6,19.5h-10.6v28.7h-7.1V19.5h-10.6v-5.9h28.4V19.5z" class="svg-pan-zoom-control-element"/>
	<path d="M31.1,19.5H26v10.6h5.1c4.3,0,6.3-1.8,6.3-5.2C37.4,21.4,35.3,19.5,31.1,19.5z" class="svg-pan-zoom-control-element"/>
</g>
</svg>
