<?xml version="1.0" encoding="UTF-8"?>
<svg id="Layer_2" data-name="Layer 2" xmlns="http://www.w3.org/2000/svg" viewBox="0 0 25.7 25.7">
  <defs>
    <style>
      .cls-1 {
        fill: #14b258;
      }

      .cls-1, .cls-2 {
        stroke-width: 0px;
      }

      .cls-2 {
        fill: #fff;
      }
    </style>
  </defs>
  <g id="Layer_1-2" data-name="Layer 1">
    <g>
      <path class="cls-1" d="m25.7,12.85c0,7.1-5.75,12.85-12.85,12.85S0,19.95,0,12.85,5.77,0,12.85,0c7.1,0,12.85,5.76,12.85,12.85"/>
      <path class="cls-2" d="m9.59,16.14l3.3-3.03c.86-.83,1.32-1.33,1.32-2.06,0-.81-.62-1.32-1.46-1.32s-1.42.55-1.42,1.42h-1.82c-.01-1.8,1.32-2.95,3.26-2.95s3.28,1.12,3.28,2.72c0,1.04-.51,1.9-2.4,3.62l-1.4,1.36v.05h3.92v1.57h-6.58v-1.38Z"/>
    </g>
  </g>
</svg>