<?xml version="1.0" encoding="UTF-8"?>
<svg id="Layer_2" data-name="Layer 2" xmlns="http://www.w3.org/2000/svg" viewBox="0 0 25.7 25.7">
  <defs>
    <style>
      .cls-1 {
        fill: #fff;
      }

      .cls-1, .cls-2 {
        stroke-width: 0px;
      }

      .cls-2 {
        fill: #f47d2e;
      }
    </style>
  </defs>
  <g id="Layer_1-2" data-name="Layer 1">
    <g>
      <path class="cls-2" d="m25.7,12.85c0,7.1-5.75,12.85-12.86,12.85S0,19.95,0,12.85,5.77,0,12.84,0s12.86,5.75,12.86,12.85"/>
      <path class="cls-1" d="m9.32,14.93h1.93c.04.69.7,1.14,1.59,1.14s1.57-.52,1.56-1.26c.01-.75-.66-1.28-1.74-1.28h-.85v-1.41h.85c.9,0,1.54-.5,1.54-1.22s-.53-1.18-1.35-1.18-1.49.46-1.51,1.16h-1.83c.03-1.59,1.46-2.68,3.34-2.68s3.2,1.13,3.19,2.59c.01,1.03-.71,1.76-1.74,1.94v.08c1.35.17,2.09.99,2.08,2.13.01,1.57-1.49,2.7-3.55,2.7s-3.47-1.12-3.5-2.72Z"/>
    </g>
  </g>
</svg>