<?xml version="1.0" encoding="UTF-8"?>
<svg id="Layer_2" data-name="Layer 2" xmlns="http://www.w3.org/2000/svg" viewBox="0 0 25.7 25.7">
  <defs>
    <style>
      .cls-1 {
        fill: #9370b1;
      }

      .cls-1, .cls-2 {
        stroke-width: 0px;
      }

      .cls-2 {
        fill: #fff;
      }
    </style>
  </defs>
  <g id="Layer_1-2" data-name="Layer 1">
    <g>
      <path class="cls-1" d="m25.7,12.85c0,7.1-5.75,12.85-12.85,12.85S0,19.95,0,12.85,5.77,0,12.85,0s12.85,5.75,12.85,12.85"/>
      <path class="cls-2" d="m9.52,14.93h1.85c.04.72.7,1.21,1.5,1.21.95,0,1.62-.67,1.62-1.62s-.69-1.65-1.65-1.66c-.69,0-1.17.25-1.45.77h-1.73l.5-5.29h5.66v1.56h-4.09l-.25,2.32h.08c.34-.46,1.03-.77,1.84-.77,1.69,0,2.95,1.26,2.95,3.02,0,1.85-1.41,3.19-3.48,3.19-1.92,0-3.31-1.13-3.35-2.72Z"/>
    </g>
  </g>
</svg>