<?xml version="1.0" encoding="UTF-8"?>
<svg id="Layer_2" data-name="Layer 2" xmlns="http://www.w3.org/2000/svg" viewBox="0 0 25.7 25.7">
  <defs>
    <style>
      .cls-1 {
        fill: #c67439;
      }

      .cls-1, .cls-2 {
        stroke-width: 0px;
      }

      .cls-2 {
        fill: #fff;
      }
    </style>
  </defs>
  <g id="Layer_1-2" data-name="Layer 1">
    <g>
      <path class="cls-1" d="m25.7,12.85c0,7.1-5.75,12.85-12.86,12.85S0,19.95,0,12.85,5.77,0,12.84,0s12.86,5.75,12.86,12.85"/>
      <path class="cls-2" d="m9.24,13.14c0-3.1,1.49-4.94,3.78-4.94,1.85,0,3.11,1.17,3.3,2.68h-1.88c-.15-.65-.69-1.04-1.42-1.04-1.24,0-1.9,1.13-1.92,2.93h.09c.42-.81,1.33-1.29,2.35-1.29,1.65,0,2.88,1.24,2.88,2.97,0,1.87-1.41,3.21-3.48,3.2-1.9-.01-3.71-1.14-3.71-4.51Zm5.33,1.36c0-.91-.67-1.64-1.61-1.64s-1.65.74-1.66,1.64c.01.9.7,1.64,1.64,1.64s1.64-.71,1.64-1.64Z"/>
    </g>
  </g>
</svg>