<?xml version="1.0" encoding="UTF-8"?>
<svg id="Layer_2" data-name="Layer 2" xmlns="http://www.w3.org/2000/svg" viewBox="0 0 25.7 25.7">
  <defs>
    <style>
      .cls-1 {
        fill: #fff;
      }

      .cls-1, .cls-2 {
        stroke-width: 0px;
      }

      .cls-2 {
        fill: #ee2d74;
      }
    </style>
  </defs>
  <g id="Layer_1-2" data-name="Layer 1">
    <g>
      <path class="cls-2" d="m25.7,12.85c0,7.1-5.75,12.85-12.86,12.85S0,19.95,0,12.85,5.77,0,12.84,0c7.11,0,12.86,5.74,12.86,12.85"/>
      <path class="cls-1" d="m9.24,15.05c0-1.16.89-2.09,2.03-2.27v-.06c-.99-.19-1.68-1.03-1.68-2.03,0-1.43,1.37-2.48,3.25-2.48s3.25,1.04,3.26,2.48c-.01,1.02-.71,1.84-1.68,2.03v.06c1.12.18,2.02,1.12,2.02,2.27,0,1.5-1.51,2.6-3.61,2.6s-3.61-1.1-3.61-2.6Zm5.22-.19c0-.8-.67-1.38-1.61-1.38s-1.62.58-1.61,1.38c-.01.79.63,1.33,1.61,1.33s1.61-.55,1.61-1.33Zm-.22-3.99c0-.71-.57-1.22-1.4-1.22s-1.38.5-1.38,1.22.57,1.26,1.38,1.26,1.4-.52,1.4-1.26Z"/>
    </g>
  </g>
</svg>