<?xml version="1.0" encoding="UTF-8"?>
<svg id="Layer_2" data-name="Layer 2" xmlns="http://www.w3.org/2000/svg" viewBox="0 0 25.7 25.7">
  <defs>
    <style>
      .cls-1 {
        fill: #b0a38d;
      }

      .cls-1, .cls-2 {
        stroke-width: 0px;
      }

      .cls-2 {
        fill: #fff;
      }
    </style>
  </defs>
  <g id="Layer_1-2" data-name="Layer 1">
    <g>
      <path class="cls-1" d="m25.7,12.85c0,7.1-5.75,12.85-12.86,12.85S0,19.95,0,12.85,5.77,0,12.84,0c7.11-.01,12.86,5.74,12.86,12.85"/>
      <path class="cls-2" d="m16.46,12.69c.01,3.12-1.47,4.96-3.78,4.96-1.85,0-3.11-1.16-3.3-2.72h1.88c.15.67.69,1.08,1.42,1.08,1.26,0,1.92-1.12,1.92-2.96h-.08c-.43.81-1.33,1.29-2.36,1.29-1.65,0-2.87-1.24-2.88-2.96,0-1.85,1.4-3.2,3.48-3.19,1.9.01,3.71,1.14,3.71,4.48Zm-5.32-1.35c0,.9.67,1.61,1.61,1.61s1.65-.74,1.65-1.62c-.01-.88-.7-1.62-1.64-1.62s-1.64.72-1.62,1.64Z"/>
    </g>
  </g>
</svg>