<?xml version="1.0" encoding="UTF-8"?>
<svg id="Layer_2" data-name="Layer 2" xmlns="http://www.w3.org/2000/svg" viewBox="0 0 25.6 25.6">
  <defs>
    <style>
      .cls-1 {
        fill: #906090;
      }

      .cls-1, .cls-2 {
        stroke-width: 0px;
      }

      .cls-2 {
        fill: #fff;
      }
    </style>
  </defs>
  <g id="Layer_1-2" data-name="Layer 1">
    <g>
      <path class="cls-1" d="M25.6,12.8c0,7-5.8,12.8-12.8,12.8S0,19.8,0,12.8,5.8,0,12.8,0s12.8,5.8,12.8,12.8"/>
      <path class="cls-2" d="M6.24,12.91c-1.07,0-.99,0-1.19-.07-.41-.14-.8-.46-1.06-.85-.27-.41-.36-.82-.34-1.41.02-.37.05-.61.13-.93.19-.75.5-1.3,1.07-1.87.41-.41.84-.7,1.42-.96.39-.18.7-.27,1.04-.32.1-.02.39-.02,4.74-.02h4.63s.77,1.06.77,1.06c.42.58,1.48,2.03,2.34,3.21l1.57,2.18h-.9s-.88,0-.88,0l-.72-1.02c-.39-.55-.72-.99-.73-1-.03-.02-.07,0-.11.03-.02.02-.39.44-.83.94-.28.32-.57.65-.85.97l-.06.07h-.93s-.94,0-.94,0l.64-.75c1.86-2.17,2.13-2.45,2.14-2.47,0-.01,0-.03,0-.05,0-.02-.25-.37-.65-.92l-.64-.89h-1.03l-.02.04s-.5.85-2.42,4.24l-.44.79h-.87c-.48,0-.87,0-.87,0s.23-.4.5-.88c.71-1.24,1.93-3.35,2.15-3.74.16-.27.19-.34.19-.37,0-.04-.02-.08-.05-.09-.01,0-.86,0-2.77,0-2.57,0-2.75,0-2.84.02-.38.07-.69.19-1,.38-.4.25-.67.5-.91.87-.25.38-.37.74-.43,1.25-.02.18-.02.45,0,.54.03.14.09.27.2.39.08.09.17.15.29.2.2.07.12.07,1.05.07h.83s.31-.52.31-.52c.17-.29.31-.53.31-.54,0-.01-.06-.01-.51-.02h-.51s0-.03,0-.03c0-.02.1-.2.35-.63l.35-.6h2.73v.02s-.17.27-.34.56c-.8,1.38-1.14,1.99-1.39,2.43-.17.31-.2.35-.3.45-.11.11-.24.17-.4.21-.08.02-.14.02-.5.02-.22,0-.84,0-1.37,0h0Z"/>
      <path class="cls-2" d="M18.89,8.87c-.22-.3-.41-.55-.41-.56,0,0,.38-.43.85-.94l.84-.91h.9c.95,0,.89,0,.88.01-.02.02-2.58,2.86-2.62,2.91l-.03.03-.41-.55Z"/>
      <path class="cls-2" d="M10.09,21.39l1.96-5.66h1.51l1.95,5.66h-1.26l-.42-1.3h-2.05l-.43,1.3h-1.27ZM13.53,19.17l-.71-2.16h-.04l-.7,2.16h1.45Z"/>
    </g>
  </g>
</svg>