<?xml version="1.0" encoding="UTF-8"?>
<svg id="Layer_2" data-name="Layer 2" xmlns="http://www.w3.org/2000/svg" viewBox="0 0 25.7 25.7">
  <defs>
    <style>
      .cls-1 {
        fill: #231f20;
      }

      .cls-1, .cls-2 {
        stroke-width: 0px;
      }

      .cls-2 {
        fill: #72c7a8;
      }
    </style>
  </defs>
  <g id="Layer_1-2" data-name="Layer 1">
    <g>
      <path class="cls-2" d="m25.7,12.85c0,7.1-5.75,12.85-12.85,12.85S0,19.95,0,12.85,5.76,0,12.85,0s12.85,5.75,12.85,12.85"/>
      <g>
        <path class="cls-1" d="m12.14,8.63h-.99v-.7h-1.6v-.8h1.6v-.68h-1.53c-.44,1.12-1.45,1.9-3.02,2.33l-.39-.79c1.64-.43,2.44-1.21,2.58-2.19h-2.2v-.8h3.28c0,.23-.02.45-.05.66h1.32v-1.14h.99v4.09Zm.05,1.52c0,.89-.98,1.45-2.42,1.45s-2.44-.56-2.43-1.45c0-.88.97-1.44,2.43-1.44s2.41.55,2.42,1.44Zm-3.86,0c0,.44.54.66,1.44.66s1.42-.23,1.42-.66-.54-.66-1.42-.66c-.9,0-1.44.22-1.44.66Z"/>
        <path class="cls-1" d="m17.64,9.16l.08.72c-1.58.3-3.27.32-4.51.32l-.12-.81c1.27,0,3.02-.02,4.55-.23Zm-.3-2.41c0,1.02-.84,1.75-1.97,1.75s-1.98-.73-1.98-1.75.85-1.75,1.98-1.74c1.12,0,1.97.73,1.97,1.74Zm-2.95,0c0,.56.42.88.98.88s.99-.32,1-.88c0-.55-.43-.88-1-.88s-.99.33-.98.88Zm4.66,4.91h-.99v-7.12h.99v7.12Z"/>
        <path class="cls-1" d="m12.2,12.94c0-.36.29-.65.66-.65.34,0,.65.29.65.65s-.3.66-.65.66c-.37,0-.66-.3-.66-.66Z"/>
        <path class="cls-1" d="m12.63,18.56h-2.75v.52c1.24.09,1.97.54,1.98,1.27,0,.82-.94,1.28-2.48,1.28s-2.49-.46-2.49-1.28c0-.74.74-1.18,2-1.27v-.52h-2.74v-.8h6.48v.8Zm-.59-2.95h-1.93c.17.5.89.98,2.24,1.09l-.35.78c-1.34-.13-2.25-.64-2.62-1.33-.38.69-1.27,1.2-2.62,1.33l-.33-.78c1.32-.11,2.04-.6,2.23-1.09h-1.92v-.78h5.3v.78Zm-4.14,4.74c0,.34.49.53,1.48.53s1.47-.19,1.48-.53c0-.36-.52-.53-1.48-.54-.98,0-1.48.18-1.48.54Z"/>
        <path class="cls-1" d="m17,16.64c0,1.01-.84,1.72-1.94,1.72s-1.95-.71-1.95-1.72.84-1.73,1.95-1.72c1.1,0,1.94.71,1.94,1.72Zm1.77,3.6c0,.88-.94,1.4-2.4,1.4s-2.44-.52-2.44-1.4.95-1.41,2.44-1.41,2.4.53,2.4,1.41Zm-4.68-3.6c0,.55.41.88.97.88s.96-.33.97-.88c0-.55-.42-.89-.97-.88-.56,0-.98.34-.97.88Zm.84,3.6c0,.41.5.61,1.44.61s1.41-.2,1.41-.61-.49-.62-1.41-.62-1.45.21-1.44.62Zm3.77-4.09h.96v.8h-.96v1.73h-1v-4.16h1v1.62Z"/>
      </g>
    </g>
  </g>
</svg>