<?xml version="1.0" encoding="UTF-8"?>
<svg id="Layer_2" data-name="Layer 2" xmlns="http://www.w3.org/2000/svg" viewBox="0 0 25.7 25.7">
  <defs>
    <style>
      .cls-1 {
        fill: #1c8c72;
      }

      .cls-1, .cls-2 {
        stroke-width: 0px;
      }

      .cls-2 {
        fill: #fff;
      }
    </style>
  </defs>
  <g id="Layer_1-2" data-name="Layer 1">
    <g>
      <path class="cls-1" d="m25.7,12.85c0,7.1-5.75,12.85-12.85,12.85S0,19.95,0,12.85,5.77,0,12.85,0c7.1.01,12.85,5.76,12.85,12.85"/>
      <g>
        <path class="cls-2" d="m11.96,13.7h-1.24v-.87h-2v-1h2v-.85h-1.91c-.55,1.41-1.81,2.37-3.77,2.91l-.49-.99c2.05-.54,3.05-1.51,3.22-2.73h-2.74v-1h4.1c0,.29-.02.57-.06.83h1.65v-1.43h1.24v5.12Zm.07,1.9c0,1.11-1.22,1.82-3.03,1.82s-3.05-.7-3.04-1.82c0-1.1,1.21-1.8,3.04-1.8s3.02.69,3.03,1.8Zm-4.82,0c0,.55.67.83,1.8.83s1.78-.28,1.78-.83-.67-.83-1.78-.82c-1.12,0-1.8.27-1.8.82Z"/>
        <path class="cls-2" d="m21.24,14.16h-3.35v1.45h-1.23v-1.45h-3.55v-1h8.13v1Zm-3.47-4.72h2.67v.96h-2.56c.16.69,1.07,1.3,2.98,1.45l-.4.96c-1.62-.13-2.74-.63-3.3-1.4-.56.76-1.68,1.27-3.3,1.4l-.4-.96c1.89-.14,2.81-.76,2.98-1.45h-2.54v-.96h2.65v-.85h1.23v.85Zm2.57,7.86h-6.28v-2.49h1.24v1.49h5.04v1Z"/>
      </g>
    </g>
  </g>
</svg>