<?xml version="1.0" encoding="UTF-8"?>
<svg id="Layer_2" data-name="Layer 2" xmlns="http://www.w3.org/2000/svg" viewBox="0 0 25.7 25.7">
  <defs>
    <style>
      .cls-1 {
        fill: #0c95d3;
      }

      .cls-1, .cls-2 {
        stroke-width: 0px;
      }

      .cls-2 {
        fill: #fff;
      }
    </style>
  </defs>
  <g id="Layer_1-2" data-name="Layer 1">
    <g>
      <path class="cls-1" d="m25.7,12.85c0,7.1-5.75,12.85-12.85,12.85S0,19.95,0,12.85,5.77,0,12.85,0s12.85,5.75,12.85,12.85"/>
      <g>
        <path class="cls-2" d="m12.56,13.54H4.49v-1.01h3.03v-1.55h1.23v1.55h3.81v1.01Zm-.91,2.25c0,1.04-1.23,1.67-3.17,1.67s-3.16-.62-3.16-1.67,1.24-1.68,3.16-1.68,3.16.62,3.17,1.68Zm-.05-6.09c0,.7,0,1.46-.25,2.38l-1.22-.12c.2-.81.22-1.41.23-2.01h-4.96v-.98h6.2v.72Zm-5.05,6.09c0,.48.7.72,1.92.72s1.93-.24,1.93-.72-.71-.75-1.93-.75-1.92.25-1.92.75Z"/>
        <path class="cls-2" d="m18.39,10.39h-5.27v-.97h2.02v-.9h1.24v.9h2.01v.97Zm-.45,1.9c0,.96-.9,1.59-2.19,1.59s-2.21-.63-2.21-1.59.9-1.6,2.21-1.6,2.19.65,2.19,1.6Zm2.32,3.59c0,.98-1.17,1.57-3,1.57s-3.02-.6-3.01-1.57c0-1,1.14-1.59,3.01-1.59s3,.6,3,1.59Zm-5.5-3.59c0,.44.39.67.99.66.6,0,1.01-.22,1.01-.66s-.41-.69-1.01-.69-1,.24-.99.69Zm.72,3.59c0,.42.62.64,1.78.64s1.75-.22,1.75-.64-.62-.64-1.75-.64-1.79.21-1.78.64Zm4.68-5.04h1.2v1.04h-1.2v2.33h-1.25v-5.64h1.25v2.28Z"/>
      </g>
    </g>
  </g>
</svg>