<?xml version="1.0" encoding="UTF-8"?>
<svg id="Layer_2" data-name="Layer 2" xmlns="http://www.w3.org/2000/svg" viewBox="0 0 25.7 25.7">
  <defs>
    <style>
      .cls-1 {
        fill: #ac862e;
      }

      .cls-1, .cls-2 {
        stroke-width: 0px;
      }

      .cls-2 {
        fill: #fff;
      }
    </style>
  </defs>
  <g id="Layer_1-2" data-name="Layer 1">
    <g>
      <path class="cls-1" d="m25.7,12.85c0,7.1-5.75,12.85-12.85,12.85S0,19.95,0,12.85,5.77,0,12.85,0s12.85,5.75,12.85,12.85"/>
      <g>
        <path class="cls-2" d="m5,13.72l-.48-.97c2-.51,3.13-1.5,3.33-2.7h-2.81v-.97h4.15c0,2.34-1.53,3.95-4.19,4.63Zm6.91,3.63h-5.93v-3.45h5.93v3.45Zm-4.69-.98h3.47v-1.49h-3.47v1.49Zm4.69-2.83h-1.25v-4.96h1.25v4.96Z"/>
        <path class="cls-2" d="m21.25,16.47h-8.13v-1.04h3.42v-1.6h-2.74v-.98h1.19v-2.54h-1.23v-1h6.82v1h-1.25v2.54h1.21v.98h-2.75v1.6h3.48v1.04Zm-3.16-3.62v-2.54h-1.86v2.54h1.86Z"/>
      </g>
    </g>
  </g>
</svg>