<?xml version="1.0" encoding="UTF-8"?>
<svg id="Layer_2" data-name="Layer 2" xmlns="http://www.w3.org/2000/svg" viewBox="0 0 25.7 25.7">
  <defs>
    <style>
      .cls-1 {
        fill: #85c446;
      }

      .cls-1, .cls-2 {
        stroke-width: 0px;
      }

      .cls-2 {
        fill: #fff;
      }
    </style>
  </defs>
  <g id="Layer_1-2" data-name="Layer 1">
    <g>
      <path class="cls-1" d="m25.7,12.85c0,7.1-5.75,12.85-12.85,12.85S0,19.95,0,12.85,5.77,0,12.85,0s12.85,5.75,12.85,12.85"/>
      <g>
        <path class="cls-2" d="m9.99,14.52l-.76,1c-.99-.48-1.65-1.37-2.01-2.46-.39,1.16-1.07,2.11-2.09,2.62l-.78-1.02c1.52-.68,2.22-2.4,2.23-4.07v-1.33h1.26v1.33c0,1.67.67,3.29,2.16,3.94Zm1.98,2.96h-1.23v-5.11h-1.75v-1.01h1.75v-2.79h1.23v8.91Z"/>
        <path class="cls-2" d="m17.4,10.92h-4.3v-.99h1.54v-1.11h1.23v1.11h1.52v.99Zm-.18,2.51c0,1.24-.82,2.12-1.95,2.12s-1.96-.88-1.96-2.12.83-2.11,1.96-2.11,1.94.88,1.95,2.11Zm-2.82,0c0,.67.35,1.06.87,1.06s.85-.39.86-1.06c0-.67-.36-1.07-.86-1.07s-.87.4-.87,1.07Zm6.4,4.03h-1.18v-4.28h-.72v3.9h-1.16v-8.33h1.16v3.44h.72v-3.61h1.18v8.89Z"/>
      </g>
    </g>
  </g>
</svg>