<?xml version="1.0" encoding="UTF-8"?>
<svg id="Layer_2" data-name="Layer 2" xmlns="http://www.w3.org/2000/svg" viewBox="0 0 25.7 25.7">
  <defs>
    <style>
      .cls-1 {
        fill: #231f20;
      }

      .cls-1, .cls-2 {
        stroke-width: 0px;
      }

      .cls-2 {
        fill: #ffc316;
      }
    </style>
  </defs>
  <g id="Layer_1-2" data-name="Layer 1">
    <g>
      <path class="cls-2" d="m25.7,12.85c0,7.1-5.75,12.85-12.85,12.85S0,19.95,0,12.85,5.77,0,12.85,0s12.85,5.76,12.85,12.85"/>
      <g>
        <path class="cls-1" d="m12.63,9.21h-2.77v2.43h-.98v-2.43h-2.73v-.81h6.48v.81Zm-.23-2.16l-.39.8c-1.24-.18-2.15-.75-2.62-1.52-.47.77-1.37,1.34-2.6,1.52l-.4-.8c1.62-.2,2.48-1.13,2.48-1.97v-.34h1.05v.34c0,.84.85,1.77,2.48,1.97Z"/>
        <path class="cls-1" d="m17.06,6.78c0,1.06-.85,1.8-1.95,1.8s-1.95-.74-1.95-1.8.85-1.79,1.95-1.79,1.95.75,1.95,1.79Zm-2.91,0c0,.59.41.94.97.94s.96-.34.96-.94-.42-.93-.96-.92c-.55,0-.98.34-.97.92Zm5.05,4.73h-4.95v-2.38h1.01v1.59h3.95v.8Zm-.19-1.87h-1v-5.11h1v5.11Z"/>
        <path class="cls-1" d="m12.2,12.94c0-.36.29-.65.66-.65.34,0,.65.29.65.65s-.3.66-.65.66c-.37,0-.66-.3-.66-.66Z"/>
        <path class="cls-1" d="m12.65,18.96h-2.68v1.15h-.98v-1.15h-2.84v-.78h6.51v.78Zm-.72,2.55h-5.02v-1.97h.98v1.17h4.04v.8Zm-3.97-6.02h2.85v-.74h.99v2.92h-4.83v-2.92h.98v.74Zm2.85,1.39v-.65h-2.85v.65h2.85Z"/>
        <path class="cls-1" d="m16.51,15.8h-2.2v1.66c1.32,0,2.04-.05,2.84-.22l.09.8c-.88.2-1.71.22-3.32.23h-.59v-3.26h3.2v.8Zm2.27,4.39c0,.91-.94,1.45-2.4,1.45s-2.44-.53-2.44-1.45.95-1.42,2.44-1.42,2.4.53,2.4,1.42Zm-3.85,0c0,.43.52.66,1.45.66s1.43-.23,1.43-.66-.53-.63-1.43-.63-1.46.22-1.45.63Zm3.8-3.98h.95v.81h-.95v1.62h-1.02v-4.12h1.02v1.69Z"/>
      </g>
    </g>
  </g>
</svg>