<?xml version="1.0" encoding="UTF-8"?>
<svg id="Layer_2" data-name="Layer 2" xmlns="http://www.w3.org/2000/svg" viewBox="0 0 25.7 25.7">
  <defs>
    <style>
      .cls-1 {
        fill: #435c89;
      }

      .cls-1, .cls-2 {
        stroke-width: 0px;
      }

      .cls-2 {
        fill: #fff;
      }
    </style>
  </defs>
  <g id="Layer_1-2" data-name="Layer 1">
    <g>
      <path class="cls-1" d="m25.7,12.85c0,7.1-5.75,12.85-12.85,12.85S0,19.95,0,12.85,5.77,0,12.85,0c7.1.01,12.85,5.76,12.85,12.85"/>
      <g>
        <path class="cls-2" d="m9.96,12.72l-.63.98c-1-.33-1.69-1-2.09-1.85-.4.91-1.11,1.65-2.15,2l-.64-.99c1.49-.5,2.14-1.74,2.14-2.94v-.86h1.3v.86c0,1.17.62,2.32,2.08,2.79Zm2.19,4.58h-6.19v-2.86h1.26v1.87h4.93v1Zm-.23-2.24h-1.25v-6.48h1.25v6.48Z"/>
        <path class="cls-2" d="m17.69,11.76h-2.89v.77c1.48,0,2.53-.05,3.73-.24l.16,1c-1.37.21-2.56.26-4.33.26h-.78v-2.73h2.87v-.74h-2.88v-.98h4.12v2.67Zm2.86,5.61h-5.96v-3.12h5.96v3.12Zm-4.73-1h3.51v-1.14h-3.51v1.14Zm4.73-2.52h-1.25v-5.26h1.25v5.26Z"/>
      </g>
    </g>
  </g>
</svg>