<?xml version="1.0" encoding="UTF-8"?>
<svg id="Layer_2" data-name="Layer 2" xmlns="http://www.w3.org/2000/svg" viewBox="0 0 25.7 25.7">
  <defs>
    <style>
      .cls-1 {
        fill: #d31e47;
      }

      .cls-1, .cls-2 {
        stroke-width: 0px;
      }

      .cls-2 {
        fill: #fff;
      }
    </style>
  </defs>
  <g id="Layer_1-2" data-name="Layer 1">
    <g>
      <path class="cls-1" d="m25.7,12.85c0,7.1-5.75,12.85-12.85,12.85S0,19.95,0,12.85,5.77,0,12.85,0c7.09,0,12.85,5.75,12.85,12.85"/>
      <g>
        <path class="cls-2" d="m7.08,12.85l-.51.78c-.8-.27-1.36-.8-1.67-1.48-.32.73-.89,1.32-1.72,1.6l-.52-.79c1.2-.4,1.71-1.39,1.71-2.35v-.69h1.04v.69c0,.94.49,1.86,1.66,2.23Zm1.75,3.66H3.88v-2.29h1.01v1.49h3.95v.8Zm-.19-1.79h-1v-5.19h1v5.19Z"/>
        <path class="cls-2" d="m16.1,13.96h-2.68v1.15h-.98v-1.15h-2.84v-.78h6.51v.78Zm-.72,2.55h-5.02v-1.97h.98v1.17h4.04v.8Zm-3.97-6.02h2.85v-.74h.99v2.92h-4.83v-2.92h.98v.74Zm2.85,1.39v-.65h-2.85v.65h2.85Z"/>
        <path class="cls-2" d="m19.96,10.8h-2.2v1.66c1.32,0,2.04-.05,2.84-.22l.09.8c-.88.2-1.71.22-3.32.23h-.59v-3.26h3.2v.8Zm2.27,4.39c0,.91-.94,1.45-2.4,1.45s-2.44-.53-2.44-1.45.95-1.42,2.44-1.42,2.4.53,2.4,1.42Zm-3.85,0c0,.43.52.66,1.45.66s1.43-.23,1.43-.66-.53-.63-1.43-.63-1.46.22-1.45.63Zm3.8-3.98h.95v.81h-.95v1.62h-1.02v-4.12h1.02v1.69Z"/>
      </g>
    </g>
  </g>
</svg>