<?xml version="1.0" encoding="UTF-8"?>
<svg id="Layer_2" data-name="Layer 2" xmlns="http://www.w3.org/2000/svg" viewBox="0 0 25.7 25.7">
  <defs>
    <style>
      .cls-1 {
        fill: #59ad46;
      }

      .cls-1, .cls-2 {
        stroke-width: 0px;
      }

      .cls-2 {
        fill: #fff;
      }
    </style>
  </defs>
  <g id="Layer_1-2" data-name="Layer 1">
    <g>
      <path class="cls-1" d="m25.7,12.85c0,7.1-5.75,12.85-12.85,12.85S0,19.95,0,12.85,5.77,0,12.85,0c7.1.01,12.85,5.76,12.85,12.85"/>
      <g>
        <path class="cls-2" d="m10.83,11.81h-.94v-3.36h-.57c-.09,1.4-.69,2.24-1.56,2.24-.94,0-1.55-.98-1.55-2.59s.61-2.57,1.55-2.57c.86,0,1.44.8,1.55,2.12h.58v-2.53h.94v6.68Zm-3.7-3.7c0,1.09.23,1.63.62,1.62.41,0,.65-.53.65-1.62s-.24-1.63-.65-1.63-.63.55-.62,1.63Zm5.18,4.03h-.95v-7.11h.95v7.11Z"/>
        <path class="cls-2" d="m19.06,12.15h-.98v-3.81h-1.32v2.12h-3.43v-4.89h.99v1.73h1.46v-1.73h.98v1.96h1.32v-2.51h.98v7.12Zm-3.28-2.48v-1.59h-1.46v1.59h1.46Z"/>
        <path class="cls-2" d="m9.72,17.38h-2.29v1.29c1.04,0,1.89-.05,2.84-.21l.09.8c-1.09.2-2.06.24-3.31.24h-.6v-2.91h2.29v-1.16h-2.3v-.8h3.29v2.76Zm2.03-.66h1.05v.82h-1.05v3.62h-.98v-7.12h.98v2.69Z"/>
        <path class="cls-2" d="m17.06,16.28c0,1.06-.85,1.8-1.95,1.8s-1.95-.74-1.95-1.8.85-1.79,1.95-1.79,1.95.75,1.95,1.79Zm-2.91,0c0,.59.41.94.97.94s.96-.34.96-.94-.42-.93-.96-.92c-.55,0-.98.34-.97.92Zm5.05,4.73h-4.95v-2.38h1.01v1.59h3.95v.8Zm-.19-1.87h-1v-5.11h1v5.11Z"/>
      </g>
    </g>
  </g>
</svg>