<?xml version="1.0" encoding="UTF-8"?>
<svg id="Layer_2" data-name="Layer 2" xmlns="http://www.w3.org/2000/svg" viewBox="0 0 25.7 25.7">
  <defs>
    <style>
      .cls-1 {
        fill: #231f20;
      }

      .cls-1, .cls-2 {
        stroke-width: 0px;
      }

      .cls-2 {
        fill: #cfc959;
      }
    </style>
  </defs>
  <g id="Layer_1-2" data-name="Layer 1">
    <g>
      <path class="cls-2" d="m25.7,12.85c0,7.09-5.75,12.85-12.85,12.85S0,19.95,0,12.85,5.77,0,12.85,0s12.85,5.75,12.85,12.85"/>
      <g>
        <path class="cls-1" d="m12.65,9.82h-2.78v2.33h-.98v-2.33h-2.74v-.81h6.51v.81Zm-.68-2.94c0,.97-1.07,1.59-2.59,1.59s-2.59-.62-2.58-1.59c0-.98,1.05-1.62,2.58-1.62s2.59.63,2.59,1.62Zm-4.15,0c0,.51.6.8,1.55.8s1.56-.29,1.56-.8-.6-.82-1.56-.82-1.56.3-1.55.82Z"/>
        <path class="cls-1" d="m17.02,8.06c0,1.56-.8,2.54-1.87,2.54s-1.89-.98-1.88-2.54c0-1.55.79-2.53,1.88-2.53s1.87.98,1.87,2.53Zm-2.79,0c0,1.06.37,1.63.92,1.63s.91-.57.91-1.63-.37-1.63-.91-1.63-.92.58-.92,1.63Zm4.78,4.09h-1.01v-7.12h1.01v7.12Z"/>
        <path class="cls-1" d="m10.54,17.35l-.51.78c-.8-.27-1.36-.8-1.67-1.48-.32.73-.89,1.32-1.72,1.6l-.52-.79c1.2-.4,1.71-1.39,1.71-2.35v-.69h1.04v.69c0,.94.49,1.86,1.66,2.23Zm1.75,3.66h-4.95v-2.29h1.01v1.49h3.95v.8Zm-.19-1.79h-1v-5.19h1v5.19Z"/>
        <path class="cls-1" d="m17.35,16.79l-.52.77c-.76-.25-1.29-.72-1.6-1.34-.31.68-.87,1.22-1.7,1.48l-.52-.79c1.18-.34,1.7-1.21,1.71-2.13v-.52h1.01v.52c0,.85.49,1.67,1.62,2.01Zm1.7,3.05h-3.73v.44h3.94v.78h-4.92v-1.95h3.73v-.41h-3.74v-.77h4.73v1.9Zm0-2.2h-.99v-1.77h-1.34v-.79h1.34v-1.06h.99v3.62Z"/>
      </g>
    </g>
  </g>
</svg>