<?xml version="1.0" encoding="UTF-8"?>
<svg id="Layer_2" data-name="Layer 2" xmlns="http://www.w3.org/2000/svg" viewBox="0 0 25.7 25.7">
  <defs>
    <style>
      .cls-1 {
        fill: #231f20;
      }

      .cls-1, .cls-2 {
        stroke-width: 0px;
      }

      .cls-2 {
        fill: #fbab1a;
      }
    </style>
  </defs>
  <g id="Layer_1-2" data-name="Layer 1">
    <g>
      <path class="cls-2" d="m25.7,12.85c0,7.1-5.75,12.85-12.85,12.85S0,19.95,0,12.85,5.77,0,12.85,0c7.1,0,12.85,5.76,12.85,12.85"/>
      <g>
        <path class="cls-1" d="m7.27,14.16l.08.72c-1.58.3-3.27.32-4.51.32l-.12-.81c1.27,0,3.02-.02,4.55-.23Zm-.3-2.41c0,1.02-.84,1.75-1.97,1.75s-1.98-.73-1.98-1.75.85-1.75,1.98-1.74c1.12,0,1.97.73,1.97,1.74Zm-2.95,0c0,.56.42.88.98.88s.99-.32,1-.88c0-.55-.43-.88-1-.88s-.99.33-.98.88Zm4.66,4.91h-.99v-7.12h.99v7.12Z"/>
        <path class="cls-1" d="m13.71,10.75h-1.41c.02.83.52,1.66,1.63,2.03l-.49.78c-.79-.25-1.32-.77-1.63-1.41-.32.73-.88,1.31-1.73,1.6l-.52-.79c1.17-.39,1.69-1.32,1.72-2.21h-1.43v-.8h3.86v.8Zm1.91,4.52c0,.86-.94,1.37-2.45,1.37s-2.45-.51-2.45-1.37.93-1.37,2.45-1.38c1.52,0,2.45.51,2.45,1.38Zm-3.91,0c0,.41.51.61,1.45.61s1.46-.2,1.46-.61-.52-.61-1.46-.61-1.45.2-1.45.61Zm3.88-1.53h-.99v-1.68h-1.11v-.8h1.11v-1.73h.99v4.22Z"/>
        <path class="cls-1" d="m23.02,14.41h-2.78v2.23h-.98v-2.23h-2.74v-.78h6.51v.78Zm-4.76-3.79h2.98v-.82h1v3.14h-4.97v-3.14h.98v.82Zm2.98,1.52v-.74h-2.98v.74h2.98Z"/>
      </g>
    </g>
  </g>
</svg>