<?xml version="1.0" encoding="UTF-8"?>
<svg id="Layer_2" data-name="Layer 2" xmlns="http://www.w3.org/2000/svg" viewBox="0 0 25.7 25.7">
  <defs>
    <style>
      .cls-1 {
        fill: #88b2d8;
      }

      .cls-1, .cls-2 {
        stroke-width: 0px;
      }

      .cls-2 {
        fill: #fff;
      }
    </style>
  </defs>
  <g id="Layer_1-2" data-name="Layer 1">
    <g>
      <path class="cls-1" d="m25.7,12.85c0,7.1-5.75,12.85-12.85,12.85S0,19.95,0,12.85,5.77,0,12.85,0c7.1.01,12.85,5.76,12.85,12.85"/>
      <g>
        <path class="cls-2" d="m7.7,11.58c0,1.2-.96,2.03-2.19,2.03s-2.19-.83-2.19-2.03.96-2.01,2.19-2.01,2.19.84,2.19,2.01Zm-3.28,0c0,.67.47,1.05,1.09,1.05s1.08-.39,1.08-1.05-.47-1.05-1.08-1.04c-.62,0-1.1.39-1.09,1.04Zm5.69,5.33h-5.57v-2.68h1.13v1.78h4.44v.9Zm-.21-2.1h-1.12v-5.75h1.12v5.75Z"/>
        <path class="cls-2" d="m15.81,13.15l-.54.87c-.9-.25-1.53-.8-1.89-1.5-.36.76-.99,1.35-1.92,1.63l-.54-.88c1.3-.39,1.88-1.36,1.88-2.34v-.06h-1.61v-.88h1.61v-.89h1.13v.89h1.6v.88h-1.62v.06c0,.9.59,1.82,1.89,2.21Zm2.1,3.76h-5.5v-2.43h1.12v1.53h4.38v.9Zm-.19-1.92h-1.12v-2.7h-1.33v-.91h1.33v-2.33h1.12v5.93Z"/>
        <path class="cls-2" d="m21.76,16.24h-1.33v-5.11h-.04l-1.46.91v-1.17l1.57-1h1.25v6.36Z"/>
      </g>
    </g>
  </g>
</svg>